<svg width="24" height="24" viewBox="0 0 24 24" fill="none" xmlns="http://www.w3.org/2000/svg">
<g clip-path="url(#clip0_2378_31587)">
<path d="M22.95 9.59982C22.7625 9.41235 22.5082 9.30703 22.243 9.30703C21.9778 9.30703 21.7235 9.41235 21.536 9.59982L10.644 20.5388C10.1797 21.0032 9.6285 21.3715 9.02185 21.6229C8.4152 21.8742 7.76499 22.0036 7.10834 22.0036C5.78218 22.0037 4.51029 21.477 3.57249 20.5393C2.63468 19.6016 2.10778 18.3298 2.10768 17.0037C2.10759 15.6775 2.63432 14.4056 3.57199 13.4678L14.121 2.87582C14.6851 2.32071 15.4457 2.01099 16.2371 2.01412C17.0285 2.01725 17.7866 2.33297 18.3463 2.89252C18.906 3.45208 19.2219 4.21012 19.2252 5.00153C19.2285 5.79294 18.919 6.5536 18.364 7.11782L7.81499 17.7098C7.62474 17.8921 7.37145 17.9938 7.10799 17.9938C6.84452 17.9938 6.59124 17.8921 6.40099 17.7098C6.21352 17.5223 6.1082 17.268 6.1082 17.0028C6.1082 16.7377 6.21352 16.4833 6.40099 16.2958L15.793 6.86082C15.9751 6.67222 16.0759 6.41962 16.0737 6.15742C16.0714 5.89522 15.9662 5.64441 15.7808 5.459C15.5954 5.27359 15.3446 5.16842 15.0824 5.16615C14.8202 5.16387 14.5676 5.26466 14.379 5.44682L4.98699 14.8818C4.70836 15.1604 4.48734 15.4911 4.33654 15.8552C4.18574 16.2192 4.10813 16.6093 4.10813 17.0033C4.10813 17.3973 4.18574 17.7875 4.33654 18.1515C4.48734 18.5155 4.70836 18.8462 4.98699 19.1248C5.55861 19.6703 6.31837 19.9746 7.10849 19.9746C7.89861 19.9746 8.65837 19.6703 9.22999 19.1248L19.778 8.53182C20.696 7.59012 21.206 6.32467 21.1976 5.00959C21.1892 3.69451 20.663 2.4357 19.733 1.50584C18.803 0.575987 17.5441 0.0499642 16.229 0.0417243C14.9139 0.0334843 13.6486 0.54369 12.707 1.46182L2.15799 12.0538C0.845167 13.3666 0.107632 15.1472 0.107632 17.0038C0.107632 18.8604 0.845167 20.641 2.15799 21.9538C3.47081 23.2666 5.25138 24.0042 7.10799 24.0042C8.9646 24.0042 10.7452 23.2666 12.058 21.9538L22.95 11.0178C23.0434 10.9249 23.1176 10.8144 23.1681 10.6927C23.2187 10.5711 23.2448 10.4406 23.2448 10.3088C23.2448 10.177 23.2187 10.0466 23.1681 9.9249C23.1176 9.80322 23.0434 9.69275 22.95 9.59982V9.59982Z" fill="#2D3436"/>
</g>
<defs>
<clipPath id="clip0_2378_31587">
<rect width="24" height="24" fill="white"/>
</clipPath>
</defs>
</svg>
