<svg width="2000" height="1845" viewBox="0 0 2000 1845" fill="none" xmlns="http://www.w3.org/2000/svg">
<path d="M1251.46 618.463H744C744 618.463 794.299 481 871.761 481C949.224 481 973.403 575.876 973.403 575.876C973.403 575.876 1025.64 524.333 1068.58 524.333C1111.51 524.333 1148.83 592.443 1148.83 592.443C1148.83 592.443 1209.47 555.826 1251.46 618.463Z" fill="#EBEBEB"/>
<path opacity="0.5" d="M2000 491.225H1762.98C1762.98 491.225 1815.92 414.459 1857.76 414.459C1899.6 414.459 1911.84 465.653 1911.84 465.653C1911.84 465.653 1941.29 441.723 1968.61 445.753C1995.92 449.782 2000 491.225 2000 491.225Z" fill="#EBEBEB"/>
<path opacity="0.5" d="M1961.16 833.766H1724C1724 833.766 1776.99 757 1818.78 757C1860.57 757 1872.86 808.144 1872.86 808.144C1872.86 808.144 1902.31 784.264 1929.62 788.542C1956.94 792.821 1961.16 833.766 1961.16 833.766Z" fill="#EBEBEB"/>
<path d="M461.791 835.851H0C0 835.851 63.0846 694.608 130.746 685.603C198.408 676.598 230.796 790.528 230.796 790.528C230.796 790.528 274.478 750.329 308.806 750.329C343.134 750.329 369.602 803.264 369.602 803.264C369.602 803.264 438.259 767.195 461.791 835.851Z" fill="#EBEBEB"/>
<path opacity="0.5" d="M672.787 420.777H360.697C360.697 420.777 414.329 318.438 472.638 316.946C530.946 315.453 561.195 394.408 561.195 394.408C561.195 394.408 651.742 321.821 672.787 420.777Z" fill="#EBEBEB"/>
<path d="M1174.18 706.593H988.707V1678.93H1174.18V706.593Z" fill="#DBDBDB"/>
<path d="M1053.58 738.185H1017.51V775.299H1053.58V738.185Z" fill="#EBEBEB"/>
<path d="M1099.7 738.185H1063.63V775.299H1099.7V738.185Z" fill="#EBEBEB"/>
<path d="M1053.58 801.22H1017.51V838.334H1053.58V801.22Z" fill="#EBEBEB"/>
<path d="M1099.7 801.22H1063.63V838.334H1099.7V801.22Z" fill="#EBEBEB"/>
<path d="M1053.58 864.255H1017.51V901.369H1053.58V864.255Z" fill="#EBEBEB"/>
<path d="M1099.7 864.255H1063.63V901.369H1099.7V864.255Z" fill="#EBEBEB"/>
<path d="M1053.58 927.29H1017.51V964.404H1053.58V927.29Z" fill="#EBEBEB"/>
<path d="M1099.7 927.29H1063.63V964.404H1099.7V927.29Z" fill="#EBEBEB"/>
<path d="M1053.58 990.324H1017.51V1027.44H1053.58V990.324Z" fill="#EBEBEB"/>
<path d="M1099.7 990.324H1063.63V1027.44H1099.7V990.324Z" fill="#EBEBEB"/>
<path d="M1053.58 1053.36H1017.51V1090.47H1053.58V1053.36Z" fill="#EBEBEB"/>
<path d="M1099.7 1053.36H1063.63V1090.47H1099.7V1053.36Z" fill="#EBEBEB"/>
<path d="M1053.58 1116.39H1017.51V1153.51H1053.58V1116.39Z" fill="#EBEBEB"/>
<path d="M1099.7 1116.39H1063.63V1153.51H1099.7V1116.39Z" fill="#EBEBEB"/>
<path d="M1053.58 1179.43H1017.51V1216.54H1053.58V1179.43Z" fill="#EBEBEB"/>
<path d="M1099.7 1179.43H1063.63V1216.54H1099.7V1179.43Z" fill="#EBEBEB"/>
<path d="M1053.58 1242.46H1017.51V1279.58H1053.58V1242.46Z" fill="#EBEBEB"/>
<path d="M1099.7 1242.46H1063.63V1279.58H1099.7V1242.46Z" fill="#EBEBEB"/>
<path d="M1053.58 1305.5H1017.51V1342.61H1053.58V1305.5Z" fill="#EBEBEB"/>
<path d="M1099.7 1305.5H1063.63V1342.61H1099.7V1305.5Z" fill="#EBEBEB"/>
<path d="M1053.58 1368.53H1017.51V1405.65H1053.58V1368.53Z" fill="#EBEBEB"/>
<path d="M1099.7 1368.53H1063.63V1405.65H1099.7V1368.53Z" fill="#EBEBEB"/>
<path d="M1053.58 1431.57H1017.51V1468.68H1053.58V1431.57Z" fill="#EBEBEB"/>
<path d="M1099.7 1431.57H1063.63V1468.68H1099.7V1431.57Z" fill="#EBEBEB"/>
<path d="M1053.58 1494.6H1017.51V1531.72H1053.58V1494.6Z" fill="#EBEBEB"/>
<path d="M1099.7 1494.6H1063.63V1531.72H1099.7V1494.6Z" fill="#EBEBEB"/>
<path d="M1053.58 1557.64H1017.51V1594.75H1053.58V1557.64Z" fill="#EBEBEB"/>
<path d="M1109.3 1594.7H1145.37V1557.59H1109.3V1594.7Z" fill="#EBEBEB"/>
<path d="M1109.3 1531.67H1145.37V1494.55H1109.3V1531.67Z" fill="#EBEBEB"/>
<path d="M1109.3 1468.63H1145.37V1431.52H1109.3V1468.63Z" fill="#EBEBEB"/>
<path d="M1109.3 1405.65H1145.37V1368.53H1109.3V1405.65Z" fill="#EBEBEB"/>
<path d="M1109.3 1342.61H1145.37V1305.5H1109.3V1342.61Z" fill="#EBEBEB"/>
<path d="M1109.3 1279.58H1145.37V1242.46H1109.3V1279.58Z" fill="#EBEBEB"/>
<path d="M1109.3 1216.54H1145.37V1179.43H1109.3V1216.54Z" fill="#EBEBEB"/>
<path d="M1109.3 1153.51H1145.37V1116.39H1109.3V1153.51Z" fill="#EBEBEB"/>
<path d="M1109.3 1090.47H1145.37V1053.36H1109.3V1090.47Z" fill="#EBEBEB"/>
<path d="M1109.3 1027.44H1145.37V990.324H1109.3V1027.44Z" fill="#EBEBEB"/>
<path d="M1109.3 964.404H1145.37V927.29H1109.3V964.404Z" fill="#EBEBEB"/>
<path d="M1109.3 901.369H1145.37V864.255H1109.3V901.369Z" fill="#EBEBEB"/>
<path d="M1109.3 838.335H1145.37V801.221H1109.3V838.335Z" fill="#EBEBEB"/>
<path d="M1109.3 775.299H1145.37V738.184H1109.3V775.299Z" fill="#EBEBEB"/>
<path d="M1099.7 1557.64H1063.63V1594.75H1099.7V1557.64Z" fill="#EBEBEB"/>
<path d="M1320.45 706.593H1174.18V1678.93H1320.45V706.593Z" fill="#A6A6A6"/>
<path d="M1275.57 1594.7H1305.37V1557.59H1275.57V1594.7Z" fill="#C7C7C7"/>
<path d="M1237.51 1594.7H1267.26V1557.59H1237.51V1594.7Z" fill="#C7C7C7"/>
<path d="M1275.57 1531.67H1305.37V1494.55H1275.57V1531.67Z" fill="#C7C7C7"/>
<path d="M1237.51 1531.67H1267.26V1494.55H1237.51V1531.67Z" fill="#C7C7C7"/>
<path d="M1275.57 1468.63H1305.37V1431.52H1275.57V1468.63Z" fill="#C7C7C7"/>
<path d="M1237.51 1468.63H1267.26V1431.52H1237.51V1468.63Z" fill="#C7C7C7"/>
<path d="M1275.57 1405.65H1305.37V1368.53H1275.57V1405.65Z" fill="#C7C7C7"/>
<path d="M1237.51 1405.65H1267.26V1368.53H1237.51V1405.65Z" fill="#C7C7C7"/>
<path d="M1275.57 1342.61H1305.37V1305.5H1275.57V1342.61Z" fill="#C7C7C7"/>
<path d="M1237.51 1342.61H1267.26V1305.5H1237.51V1342.61Z" fill="#C7C7C7"/>
<path d="M1275.57 1279.58H1305.37V1242.46H1275.57V1279.58Z" fill="#C7C7C7"/>
<path d="M1237.51 1279.58H1267.26V1242.46H1237.51V1279.58Z" fill="#C7C7C7"/>
<path d="M1275.57 1216.54H1305.37V1179.43H1275.57V1216.54Z" fill="#C7C7C7"/>
<path d="M1237.51 1216.54H1267.26V1179.43H1237.51V1216.54Z" fill="#C7C7C7"/>
<path d="M1275.57 1153.51H1305.37V1116.39H1275.57V1153.51Z" fill="#C7C7C7"/>
<path d="M1237.51 1153.51H1267.26V1116.39H1237.51V1153.51Z" fill="#C7C7C7"/>
<path d="M1275.57 1090.47H1305.37V1053.36H1275.57V1090.47Z" fill="#C7C7C7"/>
<path d="M1237.51 1090.47H1267.26V1053.36H1237.51V1090.47Z" fill="#C7C7C7"/>
<path d="M1275.57 1027.44H1305.37V990.324H1275.57V1027.44Z" fill="#C7C7C7"/>
<path d="M1237.51 1027.44H1267.26V990.324H1237.51V1027.44Z" fill="#C7C7C7"/>
<path d="M1275.57 964.404H1305.37V927.29H1275.57V964.404Z" fill="#C7C7C7"/>
<path d="M1237.51 964.404H1267.26V927.29H1237.51V964.404Z" fill="#C7C7C7"/>
<path d="M1275.57 901.369H1305.37V864.255H1275.57V901.369Z" fill="#C7C7C7"/>
<path d="M1237.51 901.369H1267.26V864.255H1237.51V901.369Z" fill="#C7C7C7"/>
<path d="M1275.57 838.335H1305.37V801.221H1275.57V838.335Z" fill="#C7C7C7"/>
<path d="M1237.51 838.335H1267.26V801.221H1237.51V838.335Z" fill="#C7C7C7"/>
<path d="M1275.57 775.299H1305.37V738.184H1275.57V775.299Z" fill="#C7C7C7"/>
<path d="M1229.5 738.185H1199.75V775.299H1229.5V738.185Z" fill="#C7C7C7"/>
<path d="M1229.5 801.22H1199.75V838.334H1229.5V801.22Z" fill="#C7C7C7"/>
<path d="M1229.5 864.255H1199.75V901.369H1229.5V864.255Z" fill="#C7C7C7"/>
<path d="M1229.5 927.29H1199.75V964.404H1229.5V927.29Z" fill="#C7C7C7"/>
<path d="M1229.5 990.324H1199.75V1027.44H1229.5V990.324Z" fill="#C7C7C7"/>
<path d="M1229.5 1053.36H1199.75V1090.47H1229.5V1053.36Z" fill="#C7C7C7"/>
<path d="M1229.5 1116.39H1199.75V1153.51H1229.5V1116.39Z" fill="#C7C7C7"/>
<path d="M1229.5 1179.43H1199.75V1216.54H1229.5V1179.43Z" fill="#C7C7C7"/>
<path d="M1229.5 1242.46H1199.75V1279.58H1229.5V1242.46Z" fill="#C7C7C7"/>
<path d="M1229.5 1305.5H1199.75V1342.61H1229.5V1305.5Z" fill="#C7C7C7"/>
<path d="M1229.5 1368.53H1199.75V1405.65H1229.5V1368.53Z" fill="#C7C7C7"/>
<path d="M1229.5 1431.57H1199.75V1468.68H1229.5V1431.57Z" fill="#C7C7C7"/>
<path d="M1229.5 1494.6H1199.75V1531.72H1229.5V1494.6Z" fill="#C7C7C7"/>
<path d="M1229.5 1557.64H1199.75V1594.75H1229.5V1557.64Z" fill="#C7C7C7"/>
<path d="M1237.51 775.299H1267.26V738.184H1237.51V775.299Z" fill="#C7C7C7"/>
<path d="M507.264 685.399H313.781V1678.93H507.264V685.399Z" fill="#EBEBEB"/>
<path d="M507.314 665.598H309.154V685.399H507.314V665.598Z" fill="#C7C7C7"/>
<path d="M350.895 714.554H331.293V1678.93H350.895V714.554Z" fill="white"/>
<path d="M385.622 714.554H366.02V1678.93H385.622V714.554Z" fill="white"/>
<path d="M420.348 714.554H400.746V1678.93H420.348V714.554Z" fill="white"/>
<path d="M455.075 714.554H435.473V1678.93H455.075V714.554Z" fill="white"/>
<path d="M489.801 714.554H470.199V1678.93H489.801V714.554Z" fill="white"/>
<path d="M350.895 739.528H331.293V778.583H350.895V739.528Z" fill="#EBEBEB"/>
<path d="M385.622 739.528H366.02V778.583H385.622V739.528Z" fill="#EBEBEB"/>
<path d="M420.348 739.528H400.746V778.583H420.348V739.528Z" fill="#EBEBEB"/>
<path d="M455.075 739.528H435.473V778.583H455.075V739.528Z" fill="#EBEBEB"/>
<path d="M489.801 739.528H470.199V778.583H489.801V739.528Z" fill="#EBEBEB"/>
<path d="M350.895 803.011H331.293V842.066H350.895V803.011Z" fill="#EBEBEB"/>
<path d="M385.622 803.011H366.02V842.066H385.622V803.011Z" fill="#EBEBEB"/>
<path d="M420.348 803.011H400.746V842.066H420.348V803.011Z" fill="#EBEBEB"/>
<path d="M455.075 803.011H435.473V842.066H455.075V803.011Z" fill="#EBEBEB"/>
<path d="M489.801 803.011H470.199V842.066H489.801V803.011Z" fill="#EBEBEB"/>
<path d="M350.895 866.493H331.293V905.548H350.895V866.493Z" fill="#EBEBEB"/>
<path d="M385.622 866.493H366.02V905.548H385.622V866.493Z" fill="#EBEBEB"/>
<path d="M420.348 866.493H400.746V905.548H420.348V866.493Z" fill="#EBEBEB"/>
<path d="M455.075 866.493H435.473V905.548H455.075V866.493Z" fill="#EBEBEB"/>
<path d="M489.801 866.493H470.199V905.548H489.801V866.493Z" fill="#EBEBEB"/>
<path d="M350.895 929.977H331.293V969.031H350.895V929.977Z" fill="#EBEBEB"/>
<path d="M385.622 929.977H366.02V969.031H385.622V929.977Z" fill="#EBEBEB"/>
<path d="M420.348 929.977H400.746V969.031H420.348V929.977Z" fill="#EBEBEB"/>
<path d="M455.075 929.977H435.473V969.031H455.075V929.977Z" fill="#EBEBEB"/>
<path d="M489.801 929.977H470.199V969.031H489.801V929.977Z" fill="#EBEBEB"/>
<path d="M350.895 993.459H331.293V1032.51H350.895V993.459Z" fill="#EBEBEB"/>
<path d="M385.622 993.459H366.02V1032.51H385.622V993.459Z" fill="#EBEBEB"/>
<path d="M420.348 993.459H400.746V1032.51H420.348V993.459Z" fill="#EBEBEB"/>
<path d="M455.075 993.459H435.473V1032.51H455.075V993.459Z" fill="#EBEBEB"/>
<path d="M489.801 993.459H470.199V1032.51H489.801V993.459Z" fill="#EBEBEB"/>
<path d="M350.895 1056.89H331.293V1095.95H350.895V1056.89Z" fill="#EBEBEB"/>
<path d="M385.622 1056.89H366.02V1095.95H385.622V1056.89Z" fill="#EBEBEB"/>
<path d="M420.348 1056.89H400.746V1095.95H420.348V1056.89Z" fill="#EBEBEB"/>
<path d="M455.075 1056.89H435.473V1095.95H455.075V1056.89Z" fill="#EBEBEB"/>
<path d="M489.801 1056.89H470.199V1095.95H489.801V1056.89Z" fill="#EBEBEB"/>
<path d="M350.895 1120.37H331.293V1159.43H350.895V1120.37Z" fill="#EBEBEB"/>
<path d="M385.622 1120.37H366.02V1159.43H385.622V1120.37Z" fill="#EBEBEB"/>
<path d="M420.348 1120.37H400.746V1159.43H420.348V1120.37Z" fill="#EBEBEB"/>
<path d="M455.075 1120.37H435.473V1159.43H455.075V1120.37Z" fill="#EBEBEB"/>
<path d="M489.801 1120.37H470.199V1159.43H489.801V1120.37Z" fill="#EBEBEB"/>
<path d="M350.895 1183.86H331.293V1222.91H350.895V1183.86Z" fill="#EBEBEB"/>
<path d="M385.622 1183.86H366.02V1222.91H385.622V1183.86Z" fill="#EBEBEB"/>
<path d="M420.348 1183.86H400.746V1222.91H420.348V1183.86Z" fill="#EBEBEB"/>
<path d="M455.075 1183.86H435.473V1222.91H455.075V1183.86Z" fill="#EBEBEB"/>
<path d="M489.801 1183.86H470.199V1222.91H489.801V1183.86Z" fill="#EBEBEB"/>
<path d="M350.895 1247.34H331.293V1286.39H350.895V1247.34Z" fill="#EBEBEB"/>
<path d="M385.622 1247.34H366.02V1286.39H385.622V1247.34Z" fill="#EBEBEB"/>
<path d="M420.348 1247.34H400.746V1286.39H420.348V1247.34Z" fill="#EBEBEB"/>
<path d="M455.075 1247.34H435.473V1286.39H455.075V1247.34Z" fill="#EBEBEB"/>
<path d="M489.801 1247.34H470.199V1286.39H489.801V1247.34Z" fill="#EBEBEB"/>
<path d="M350.895 1310.82H331.293V1349.88H350.895V1310.82Z" fill="#EBEBEB"/>
<path d="M385.622 1310.82H366.02V1349.88H385.622V1310.82Z" fill="#EBEBEB"/>
<path d="M420.348 1310.82H400.746V1349.88H420.348V1310.82Z" fill="#EBEBEB"/>
<path d="M455.075 1310.82H435.473V1349.88H455.075V1310.82Z" fill="#EBEBEB"/>
<path d="M489.801 1310.82H470.199V1349.88H489.801V1310.82Z" fill="#EBEBEB"/>
<path d="M350.895 1374.3H331.293V1413.36H350.895V1374.3Z" fill="#EBEBEB"/>
<path d="M385.622 1374.3H366.02V1413.36H385.622V1374.3Z" fill="#EBEBEB"/>
<path d="M420.348 1374.3H400.746V1413.36H420.348V1374.3Z" fill="#EBEBEB"/>
<path d="M455.075 1374.3H435.473V1413.36H455.075V1374.3Z" fill="#EBEBEB"/>
<path d="M489.801 1374.3H470.199V1413.36H489.801V1374.3Z" fill="#EBEBEB"/>
<path d="M350.895 1437.74H331.293V1476.79H350.895V1437.74Z" fill="#EBEBEB"/>
<path d="M385.622 1437.74H366.02V1476.79H385.622V1437.74Z" fill="#EBEBEB"/>
<path d="M420.348 1437.74H400.746V1476.79H420.348V1437.74Z" fill="#EBEBEB"/>
<path d="M455.075 1437.74H435.473V1476.79H455.075V1437.74Z" fill="#EBEBEB"/>
<path d="M489.801 1437.74H470.199V1476.79H489.801V1437.74Z" fill="#EBEBEB"/>
<path d="M350.895 1501.22H331.293V1540.27H350.895V1501.22Z" fill="#EBEBEB"/>
<path d="M385.622 1501.22H366.02V1540.27H385.622V1501.22Z" fill="#EBEBEB"/>
<path d="M420.348 1501.22H400.746V1540.27H420.348V1501.22Z" fill="#EBEBEB"/>
<path d="M455.075 1501.22H435.473V1540.27H455.075V1501.22Z" fill="#EBEBEB"/>
<path d="M489.801 1501.22H470.199V1540.27H489.801V1501.22Z" fill="#EBEBEB"/>
<path d="M350.895 1564.7H331.293V1678.93H350.895V1564.7Z" fill="#EBEBEB"/>
<path d="M385.622 1564.7H366.02V1678.93H385.622V1564.7Z" fill="#EBEBEB"/>
<path d="M420.348 1564.7H400.746V1678.93H420.348V1564.7Z" fill="#EBEBEB"/>
<path d="M455.075 1564.7H435.473V1678.93H455.075V1564.7Z" fill="#EBEBEB"/>
<path d="M489.801 1564.7H470.199V1678.93H489.801V1564.7Z" fill="#EBEBEB"/>
<path d="M631.541 685.399H507.312V1678.93H631.541V685.399Z" fill="#DBDBDB"/>
<path d="M636.915 665.598H507.312V685.399H636.915V665.598Z" fill="#C7C7C7"/>
<path d="M544.377 714.554H524.775V1678.93H544.377V714.554Z" fill="#C7C7C7"/>
<path d="M579.104 714.554H559.502V1678.93H579.104V714.554Z" fill="#C7C7C7"/>
<path d="M613.831 714.554H594.229V1678.93H613.831V714.554Z" fill="#C7C7C7"/>
<path d="M544.377 739.528H524.775V778.583H544.377V739.528Z" fill="#DBDBDB"/>
<path d="M579.104 739.528H559.502V778.583H579.104V739.528Z" fill="#DBDBDB"/>
<path d="M613.831 739.528H594.229V778.583H613.831V739.528Z" fill="#DBDBDB"/>
<path d="M544.377 803.011H524.775V842.066H544.377V803.011Z" fill="#DBDBDB"/>
<path d="M579.104 803.011H559.502V842.066H579.104V803.011Z" fill="#DBDBDB"/>
<path d="M613.831 803.011H594.229V842.066H613.831V803.011Z" fill="#DBDBDB"/>
<path d="M544.377 866.493H524.775V905.548H544.377V866.493Z" fill="#DBDBDB"/>
<path d="M579.104 866.493H559.502V905.548H579.104V866.493Z" fill="#DBDBDB"/>
<path d="M613.831 866.493H594.229V905.548H613.831V866.493Z" fill="#DBDBDB"/>
<path d="M544.377 929.977H524.775V969.031H544.377V929.977Z" fill="#DBDBDB"/>
<path d="M579.104 929.977H559.502V969.031H579.104V929.977Z" fill="#DBDBDB"/>
<path d="M613.831 929.977H594.229V969.031H613.831V929.977Z" fill="#DBDBDB"/>
<path d="M544.377 993.459H524.775V1032.51H544.377V993.459Z" fill="#DBDBDB"/>
<path d="M579.104 993.459H559.502V1032.51H579.104V993.459Z" fill="#DBDBDB"/>
<path d="M613.831 993.459H594.229V1032.51H613.831V993.459Z" fill="#DBDBDB"/>
<path d="M544.377 1056.89H524.775V1095.95H544.377V1056.89Z" fill="#DBDBDB"/>
<path d="M579.104 1056.89H559.502V1095.95H579.104V1056.89Z" fill="#DBDBDB"/>
<path d="M613.831 1056.89H594.229V1095.95H613.831V1056.89Z" fill="#DBDBDB"/>
<path d="M544.377 1120.37H524.775V1159.43H544.377V1120.37Z" fill="#DBDBDB"/>
<path d="M579.104 1120.37H559.502V1159.43H579.104V1120.37Z" fill="#DBDBDB"/>
<path d="M613.831 1120.37H594.229V1159.43H613.831V1120.37Z" fill="#DBDBDB"/>
<path d="M544.377 1183.86H524.775V1222.91H544.377V1183.86Z" fill="#DBDBDB"/>
<path d="M579.104 1183.86H559.502V1222.91H579.104V1183.86Z" fill="#DBDBDB"/>
<path d="M613.831 1183.86H594.229V1222.91H613.831V1183.86Z" fill="#DBDBDB"/>
<path d="M544.377 1247.34H524.775V1286.39H544.377V1247.34Z" fill="#DBDBDB"/>
<path d="M579.104 1247.34H559.502V1286.39H579.104V1247.34Z" fill="#DBDBDB"/>
<path d="M613.831 1247.34H594.229V1286.39H613.831V1247.34Z" fill="#DBDBDB"/>
<path d="M544.377 1310.82H524.775V1349.88H544.377V1310.82Z" fill="#DBDBDB"/>
<path d="M579.104 1310.82H559.502V1349.88H579.104V1310.82Z" fill="#DBDBDB"/>
<path d="M613.831 1310.82H594.229V1349.88H613.831V1310.82Z" fill="#DBDBDB"/>
<path d="M544.377 1374.3H524.775V1413.36H544.377V1374.3Z" fill="#DBDBDB"/>
<path d="M579.104 1374.3H559.502V1413.36H579.104V1374.3Z" fill="#DBDBDB"/>
<path d="M613.831 1374.3H594.229V1413.36H613.831V1374.3Z" fill="#DBDBDB"/>
<path d="M544.377 1437.74H524.775V1476.79H544.377V1437.74Z" fill="#DBDBDB"/>
<path d="M579.104 1437.74H559.502V1476.79H579.104V1437.74Z" fill="#DBDBDB"/>
<path d="M613.831 1437.74H594.229V1476.79H613.831V1437.74Z" fill="#DBDBDB"/>
<path d="M544.377 1501.22H524.775V1540.27H544.377V1501.22Z" fill="#DBDBDB"/>
<path d="M579.104 1501.22H559.502V1540.27H579.104V1501.22Z" fill="#DBDBDB"/>
<path d="M613.831 1501.22H594.229V1540.27H613.831V1501.22Z" fill="#DBDBDB"/>
<path d="M544.377 1564.7H524.775V1678.93H544.377V1564.7Z" fill="#DBDBDB"/>
<path d="M579.104 1564.7H559.502V1678.93H579.104V1564.7Z" fill="#DBDBDB"/>
<path d="M613.831 1564.7H594.229V1678.93H613.831V1564.7Z" fill="#DBDBDB"/>
<path d="M226.517 982.962H42.9844V1678.93H226.517V982.962Z" fill="#EBEBEB"/>
<path d="M226.518 936.792H69.1055V982.961H226.518V936.792Z" fill="#C7C7C7"/>
<path d="M206.368 1007.04H63.084V1527.34H206.368V1007.04Z" fill="#DBDBDB"/>
<path d="M206.368 1056.69H63.084V1068.98H206.368V1056.69Z" fill="white"/>
<path d="M206.368 1107.64H63.084V1119.93H206.368V1107.64Z" fill="white"/>
<path d="M206.368 1158.53H63.084V1170.82H206.368V1158.53Z" fill="white"/>
<path d="M206.368 1209.48H63.084V1221.77H206.368V1209.48Z" fill="white"/>
<path d="M206.368 1260.42H63.084V1272.71H206.368V1260.42Z" fill="white"/>
<path d="M206.368 1311.32H63.084V1323.61H206.368V1311.32Z" fill="white"/>
<path d="M206.368 1362.26H63.084V1374.55H206.368V1362.26Z" fill="white"/>
<path d="M206.368 1413.21H63.084V1425.5H206.368V1413.21Z" fill="white"/>
<path d="M206.368 1464.11H63.084V1476.39H206.368V1464.11Z" fill="white"/>
<path d="M206.368 1515.05H63.084V1527.34H206.368V1515.05Z" fill="white"/>
<path d="M341.443 982.962H226.518V1678.93H341.443V982.962Z" fill="#DBDBDB"/>
<path d="M324.229 936.792H226.518V982.961H324.229V936.792Z" fill="#A6A6A6"/>
<path d="M330.696 1007.04H242.338V1527.34H330.696V1007.04Z" fill="#C7C7C7"/>
<path d="M330.696 1056.69H242.338V1068.98H330.696V1056.69Z" fill="white"/>
<path d="M330.696 1107.64H242.338V1119.93H330.696V1107.64Z" fill="white"/>
<path d="M330.696 1158.53H242.338V1170.82H330.696V1158.53Z" fill="white"/>
<path d="M330.696 1209.48H242.338V1221.77H330.696V1209.48Z" fill="white"/>
<path d="M330.696 1260.42H242.338V1272.71H330.696V1260.42Z" fill="white"/>
<path d="M330.696 1311.32H242.338V1323.61H330.696V1311.32Z" fill="white"/>
<path d="M330.696 1362.26H242.338V1374.55H330.696V1362.26Z" fill="white"/>
<path d="M330.696 1413.21H242.338V1425.5H330.696V1413.21Z" fill="white"/>
<path d="M330.696 1464.11H242.338V1476.39H330.696V1464.11Z" fill="white"/>
<path d="M330.696 1515.05H242.338V1527.34H330.696V1515.05Z" fill="white"/>
<path d="M1780.8 994.702H1682.79V1110.47H1780.8V994.702Z" fill="#DBDBDB"/>
<path d="M1842.94 994.702H1780.8V1114.75H1842.94V994.702Z" fill="#C7C7C7"/>
<path d="M1847.06 1045.8H1785.37V1114.7H1847.06V1045.8Z" fill="#DBDBDB"/>
<path d="M1885.52 1045.8H1847.06V1114.7H1885.52V1045.8Z" fill="#C7C7C7"/>
<path d="M1803.68 1102.96H1645.17V1678.98H1803.68V1102.96Z" fill="#EBEBEB"/>
<path d="M1713.13 1127.69H1663.28V1148.04H1713.13V1127.69Z" fill="white"/>
<path d="M1776.92 1127.69H1727.06V1148.04H1776.92V1127.69Z" fill="white"/>
<path d="M1713.13 1162.26H1663.28V1182.61H1713.13V1162.26Z" fill="white"/>
<path d="M1776.92 1162.26H1727.06V1182.61H1776.92V1162.26Z" fill="white"/>
<path d="M1713.13 1196.84H1663.28V1217.19H1713.13V1196.84Z" fill="white"/>
<path d="M1776.92 1196.84H1727.06V1217.19H1776.92V1196.84Z" fill="white"/>
<path d="M1713.13 1231.42H1663.28V1251.77H1713.13V1231.42Z" fill="white"/>
<path d="M1776.92 1231.42H1727.06V1251.77H1776.92V1231.42Z" fill="white"/>
<path d="M1713.13 1266H1663.28V1286.34H1713.13V1266Z" fill="white"/>
<path d="M1776.92 1266H1727.06V1286.34H1776.92V1266Z" fill="white"/>
<path d="M1713.13 1300.57H1663.28V1320.92H1713.13V1300.57Z" fill="white"/>
<path d="M1776.92 1300.57H1727.06V1320.92H1776.92V1300.57Z" fill="white"/>
<path d="M1713.13 1335.15H1663.28V1355.5H1713.13V1335.15Z" fill="white"/>
<path d="M1776.92 1335.15H1727.06V1355.5H1776.92V1335.15Z" fill="white"/>
<path d="M1713.13 1369.73H1663.28V1390.08H1713.13V1369.73Z" fill="white"/>
<path d="M1776.92 1369.73H1727.06V1390.08H1776.92V1369.73Z" fill="white"/>
<path d="M1713.13 1404.3H1663.28V1424.65H1713.13V1404.3Z" fill="white"/>
<path d="M1776.92 1404.3H1727.06V1424.65H1776.92V1404.3Z" fill="white"/>
<path d="M1713.13 1438.88H1663.28V1459.23H1713.13V1438.88Z" fill="white"/>
<path d="M1776.92 1438.88H1727.06V1459.23H1776.92V1438.88Z" fill="white"/>
<path d="M1713.13 1473.41H1663.28V1493.76H1713.13V1473.41Z" fill="white"/>
<path d="M1776.92 1473.41H1727.06V1493.76H1776.92V1473.41Z" fill="white"/>
<path d="M1713.13 1507.99H1663.28V1528.33H1713.13V1507.99Z" fill="white"/>
<path d="M1776.92 1507.99H1727.06V1528.33H1776.92V1507.99Z" fill="white"/>
<path d="M1713.13 1542.56H1663.28V1562.91H1713.13V1542.56Z" fill="white"/>
<path d="M1776.92 1542.56H1727.06V1562.91H1776.92V1542.56Z" fill="white"/>
<path d="M1713.13 1577.14H1663.28V1597.49H1713.13V1577.14Z" fill="white"/>
<path d="M1776.92 1577.14H1727.06V1597.49H1776.92V1577.14Z" fill="white"/>
<path d="M1932.09 1102.96H1803.68V1678.98H1932.09V1102.96Z" fill="#C7C7C7"/>
<path d="M1878.31 1597.54H1919.2V1577.19H1878.31V1597.54Z" fill="#EBEBEB"/>
<path d="M1825.97 1597.54H1866.87V1577.19H1825.97V1597.54Z" fill="#EBEBEB"/>
<path d="M1878.31 1562.96H1919.2V1542.61H1878.31V1562.96Z" fill="#EBEBEB"/>
<path d="M1825.97 1562.96H1866.87V1542.61H1825.97V1562.96Z" fill="#EBEBEB"/>
<path d="M1878.31 1528.38H1919.2V1508.04H1878.31V1528.38Z" fill="#EBEBEB"/>
<path d="M1825.97 1528.38H1866.87V1508.04H1825.97V1528.38Z" fill="#EBEBEB"/>
<path d="M1878.31 1493.81H1919.2V1473.46H1878.31V1493.81Z" fill="#EBEBEB"/>
<path d="M1825.97 1493.81H1866.87V1473.46H1825.97V1493.81Z" fill="#EBEBEB"/>
<path d="M1878.31 1459.18H1919.2V1438.83H1878.31V1459.18Z" fill="#EBEBEB"/>
<path d="M1825.97 1459.18H1866.87V1438.83H1825.97V1459.18Z" fill="#EBEBEB"/>
<path d="M1878.31 1424.65H1919.2V1404.3H1878.31V1424.65Z" fill="#EBEBEB"/>
<path d="M1825.97 1424.65H1866.87V1404.3H1825.97V1424.65Z" fill="#EBEBEB"/>
<path d="M1878.31 1390.08H1919.2V1369.73H1878.31V1390.08Z" fill="#EBEBEB"/>
<path d="M1825.97 1390.08H1866.87V1369.73H1825.97V1390.08Z" fill="#EBEBEB"/>
<path d="M1878.31 1355.5H1919.2V1335.15H1878.31V1355.5Z" fill="#EBEBEB"/>
<path d="M1825.97 1355.5H1866.87V1335.15H1825.97V1355.5Z" fill="#EBEBEB"/>
<path d="M1878.31 1320.92H1919.2V1300.57H1878.31V1320.92Z" fill="#EBEBEB"/>
<path d="M1825.97 1320.92H1866.87V1300.57H1825.97V1320.92Z" fill="#EBEBEB"/>
<path d="M1878.31 1286.34H1919.2V1266H1878.31V1286.34Z" fill="#EBEBEB"/>
<path d="M1825.97 1286.34H1866.87V1266H1825.97V1286.34Z" fill="#EBEBEB"/>
<path d="M1878.31 1251.77H1919.2V1231.42H1878.31V1251.77Z" fill="#EBEBEB"/>
<path d="M1825.97 1251.77H1866.87V1231.42H1825.97V1251.77Z" fill="#EBEBEB"/>
<path d="M1878.31 1217.24H1919.2V1196.89H1878.31V1217.24Z" fill="#EBEBEB"/>
<path d="M1825.97 1217.24H1866.87V1196.89H1825.97V1217.24Z" fill="#EBEBEB"/>
<path d="M1878.31 1182.66H1919.2V1162.31H1878.31V1182.66Z" fill="#EBEBEB"/>
<path d="M1825.97 1182.66H1866.87V1162.31H1825.97V1182.66Z" fill="#EBEBEB"/>
<path d="M1878.31 1148.09H1919.2V1127.74H1878.31V1148.09Z" fill="#EBEBEB"/>
<path d="M1825.97 1148.09H1866.87V1127.74H1825.97V1148.09Z" fill="#EBEBEB"/>
<path d="M721.145 994.702H623.135V1110.47H721.145V994.702Z" fill="#DBDBDB"/>
<path d="M783.284 994.702H721.145V1114.75H783.284V994.702Z" fill="#C7C7C7"/>
<path d="M787.463 1045.8H725.771V1114.7H787.463V1045.8Z" fill="#DBDBDB"/>
<path d="M825.872 1045.8H787.414V1114.7H825.872V1045.8Z" fill="#C7C7C7"/>
<path d="M744.031 1102.96H585.523V1678.98H744.031V1102.96Z" fill="#EBEBEB"/>
<path d="M653.484 1127.69H603.633V1148.04H653.484V1127.69Z" fill="white"/>
<path d="M717.263 1127.69H667.412V1148.04H717.263V1127.69Z" fill="white"/>
<path d="M653.484 1162.26H603.633V1182.61H653.484V1162.26Z" fill="white"/>
<path d="M717.263 1162.26H667.412V1182.61H717.263V1162.26Z" fill="white"/>
<path d="M653.484 1196.84H603.633V1217.19H653.484V1196.84Z" fill="white"/>
<path d="M717.263 1196.84H667.412V1217.19H717.263V1196.84Z" fill="white"/>
<path d="M653.484 1231.42H603.633V1251.77H653.484V1231.42Z" fill="white"/>
<path d="M717.263 1231.42H667.412V1251.77H717.263V1231.42Z" fill="white"/>
<path d="M653.484 1266H603.633V1286.34H653.484V1266Z" fill="white"/>
<path d="M717.263 1266H667.412V1286.34H717.263V1266Z" fill="white"/>
<path d="M653.484 1300.57H603.633V1320.92H653.484V1300.57Z" fill="white"/>
<path d="M717.263 1300.57H667.412V1320.92H717.263V1300.57Z" fill="white"/>
<path d="M653.484 1335.15H603.633V1355.5H653.484V1335.15Z" fill="white"/>
<path d="M717.263 1335.15H667.412V1355.5H717.263V1335.15Z" fill="white"/>
<path d="M653.484 1369.73H603.633V1390.08H653.484V1369.73Z" fill="white"/>
<path d="M717.263 1369.73H667.412V1390.08H717.263V1369.73Z" fill="white"/>
<path d="M653.484 1404.3H603.633V1424.65H653.484V1404.3Z" fill="white"/>
<path d="M717.263 1404.3H667.412V1424.65H717.263V1404.3Z" fill="white"/>
<path d="M653.484 1438.88H603.633V1459.23H653.484V1438.88Z" fill="white"/>
<path d="M717.263 1438.88H667.412V1459.23H717.263V1438.88Z" fill="white"/>
<path d="M653.484 1473.41H603.633V1493.76H653.484V1473.41Z" fill="white"/>
<path d="M717.263 1473.41H667.412V1493.76H717.263V1473.41Z" fill="white"/>
<path d="M653.484 1507.99H603.633V1528.33H653.484V1507.99Z" fill="white"/>
<path d="M717.263 1507.99H667.412V1528.33H717.263V1507.99Z" fill="white"/>
<path d="M653.484 1542.56H603.633V1562.91H653.484V1542.56Z" fill="white"/>
<path d="M717.263 1542.56H667.412V1562.91H717.263V1542.56Z" fill="white"/>
<path d="M653.484 1577.14H603.633V1597.49H653.484V1577.14Z" fill="white"/>
<path d="M717.263 1577.14H667.412V1597.49H717.263V1577.14Z" fill="white"/>
<path d="M872.437 1102.96H744.029V1678.98H872.437V1102.96Z" fill="#C7C7C7"/>
<path d="M818.657 1597.54H859.553V1577.19H818.657V1597.54Z" fill="#EBEBEB"/>
<path d="M766.319 1597.54H807.215V1577.19H766.319V1597.54Z" fill="#EBEBEB"/>
<path d="M818.657 1562.96H859.553V1542.61H818.657V1562.96Z" fill="#EBEBEB"/>
<path d="M766.319 1562.96H807.215V1542.61H766.319V1562.96Z" fill="#EBEBEB"/>
<path d="M818.657 1528.38H859.553V1508.04H818.657V1528.38Z" fill="#EBEBEB"/>
<path d="M766.319 1528.38H807.215V1508.04H766.319V1528.38Z" fill="#EBEBEB"/>
<path d="M818.657 1493.81H859.553V1473.46H818.657V1493.81Z" fill="#EBEBEB"/>
<path d="M766.319 1493.81H807.215V1473.46H766.319V1493.81Z" fill="#EBEBEB"/>
<path d="M818.657 1459.18H859.553V1438.83H818.657V1459.18Z" fill="#EBEBEB"/>
<path d="M766.319 1459.18H807.215V1438.83H766.319V1459.18Z" fill="#EBEBEB"/>
<path d="M818.657 1424.65H859.553V1404.3H818.657V1424.65Z" fill="#EBEBEB"/>
<path d="M766.319 1424.65H807.215V1404.3H766.319V1424.65Z" fill="#EBEBEB"/>
<path d="M818.657 1390.08H859.553V1369.73H818.657V1390.08Z" fill="#EBEBEB"/>
<path d="M766.319 1390.08H807.215V1369.73H766.319V1390.08Z" fill="#EBEBEB"/>
<path d="M818.657 1355.5H859.553V1335.15H818.657V1355.5Z" fill="#EBEBEB"/>
<path d="M766.319 1355.5H807.215V1335.15H766.319V1355.5Z" fill="#EBEBEB"/>
<path d="M818.657 1320.92H859.553V1300.57H818.657V1320.92Z" fill="#EBEBEB"/>
<path d="M766.319 1320.92H807.215V1300.57H766.319V1320.92Z" fill="#EBEBEB"/>
<path d="M818.657 1286.34H859.553V1266H818.657V1286.34Z" fill="#EBEBEB"/>
<path d="M766.319 1286.34H807.215V1266H766.319V1286.34Z" fill="#EBEBEB"/>
<path d="M818.657 1251.77H859.553V1231.42H818.657V1251.77Z" fill="#EBEBEB"/>
<path d="M766.319 1251.77H807.215V1231.42H766.319V1251.77Z" fill="#EBEBEB"/>
<path d="M818.657 1217.24H859.553V1196.89H818.657V1217.24Z" fill="#EBEBEB"/>
<path d="M766.319 1217.24H807.215V1196.89H766.319V1217.24Z" fill="#EBEBEB"/>
<path d="M818.657 1182.66H859.553V1162.31H818.657V1182.66Z" fill="#EBEBEB"/>
<path d="M766.319 1182.66H807.215V1162.31H766.319V1182.66Z" fill="#EBEBEB"/>
<path d="M818.657 1148.09H859.553V1127.74H818.657V1148.09Z" fill="#EBEBEB"/>
<path d="M766.319 1148.09H807.215V1127.74H766.319V1148.09Z" fill="#EBEBEB"/>
<path d="M1483.18 1303.61H1296.27V1678.93H1483.18V1303.61Z" fill="#DBDBDB"/>
<path d="M1358.76 1336.1H1325.67V1359.08H1358.76V1336.1Z" fill="#455A64"/>
<path d="M1358.76 1385.2H1325.67V1408.18H1358.76V1385.2Z" fill="#455A64"/>
<path d="M1358.76 1434.3H1325.67V1457.29H1358.76V1434.3Z" fill="#455A64"/>
<path d="M1358.76 1483.46H1325.67V1506.44H1358.76V1483.46Z" fill="#455A64"/>
<path d="M1358.76 1532.56H1325.67V1555.55H1358.76V1532.56Z" fill="#455A64"/>
<path d="M1358.76 1581.67H1325.67V1604.65H1358.76V1581.67Z" fill="#455A64"/>
<path d="M1358.76 1630.77H1325.67V1653.76H1358.76V1630.77Z" fill="#455A64"/>
<path d="M1406.32 1336.1H1373.23V1359.08H1406.32V1336.1Z" fill="white"/>
<path d="M1406.32 1385.2H1373.23V1408.18H1406.32V1385.2Z" fill="#455A64"/>
<path d="M1406.32 1434.3H1373.23V1457.29H1406.32V1434.3Z" fill="#455A64"/>
<path d="M1406.32 1483.46H1373.23V1506.44H1406.32V1483.46Z" fill="#455A64"/>
<path d="M1406.32 1532.56H1373.23V1555.55H1406.32V1532.56Z" fill="#455A64"/>
<path d="M1406.32 1581.67H1373.23V1604.65H1406.32V1581.67Z" fill="#455A64"/>
<path d="M1406.32 1630.77H1373.23V1653.76H1406.32V1630.77Z" fill="#455A64"/>
<path d="M1453.83 1336.1H1420.75V1359.08H1453.83V1336.1Z" fill="white"/>
<path d="M1453.83 1385.2H1420.75V1408.18H1453.83V1385.2Z" fill="#455A64"/>
<path d="M1453.83 1434.3H1420.75V1457.29H1453.83V1434.3Z" fill="#455A64"/>
<path d="M1453.83 1483.46H1420.75V1506.44H1453.83V1483.46Z" fill="#455A64"/>
<path d="M1453.83 1532.56H1420.75V1555.55H1453.83V1532.56Z" fill="#455A64"/>
<path d="M1453.83 1581.67H1420.75V1604.65H1453.83V1581.67Z" fill="#455A64"/>
<path d="M1453.83 1630.77H1420.75V1653.76H1453.83V1630.77Z" fill="#455A64"/>
<path d="M1483.24 1264.5H1358.76V1303.61H1483.24V1264.5Z" fill="#EBEBEB"/>
<path d="M1483.18 1240.27H1404.28V1264.5H1483.18V1240.27Z" fill="#DBDBDB"/>
<path d="M1614.33 1303.61H1483.19V1678.93H1614.33V1303.61Z" fill="#C7C7C7"/>
<path d="M1573.98 1650.08H1600.9V1627.09H1573.98V1650.08Z" fill="#37474F"/>
<path d="M1573.98 1601.02H1600.9V1578.04H1573.98V1601.02Z" fill="#37474F"/>
<path d="M1573.98 1551.92H1600.9V1528.93H1573.98V1551.92Z" fill="#37474F"/>
<path d="M1573.98 1502.76H1600.9V1479.78H1573.98V1502.76Z" fill="#37474F"/>
<path d="M1573.98 1453.66H1600.9V1430.67H1573.98V1453.66Z" fill="#EBEBEB"/>
<path d="M1573.98 1404.5H1600.9V1381.52H1573.98V1404.5Z" fill="#EBEBEB"/>
<path d="M1573.98 1355.45H1600.9V1332.46H1573.98V1355.45Z" fill="#EBEBEB"/>
<path d="M1535.27 1650.08H1562.19V1627.09H1535.27V1650.08Z" fill="#37474F"/>
<path d="M1535.27 1601.02H1562.19V1578.04H1535.27V1601.02Z" fill="#37474F"/>
<path d="M1535.27 1551.92H1562.19V1528.93H1535.27V1551.92Z" fill="#37474F"/>
<path d="M1535.27 1502.76H1562.19V1479.78H1535.27V1502.76Z" fill="#37474F"/>
<path d="M1535.27 1453.66H1562.19V1430.67H1535.27V1453.66Z" fill="#EBEBEB"/>
<path d="M1535.27 1404.5H1562.19V1381.52H1535.27V1404.5Z" fill="#EBEBEB"/>
<path d="M1535.27 1355.45H1562.19V1332.46H1535.27V1355.45Z" fill="#EBEBEB"/>
<path d="M1496.67 1650.08H1523.58V1627.09H1496.67V1650.08Z" fill="#37474F"/>
<path d="M1496.67 1601.02H1523.58V1578.04H1496.67V1601.02Z" fill="#37474F"/>
<path d="M1496.67 1551.92H1523.58V1528.93H1496.67V1551.92Z" fill="#37474F"/>
<path d="M1496.67 1502.76H1523.58V1479.78H1496.67V1502.76Z" fill="#37474F"/>
<path d="M1496.67 1453.66H1523.58V1430.67H1496.67V1453.66Z" fill="#37474F"/>
<path d="M1496.67 1404.5H1523.58V1381.52H1496.67V1404.5Z" fill="#EBEBEB"/>
<path d="M1496.67 1355.45H1523.58V1332.46H1496.67V1355.45Z" fill="#EBEBEB"/>
<path d="M1594.48 1264.5H1483.19V1303.61H1594.48V1264.5Z" fill="#A6A6A6"/>
<path d="M1543.48 1240.27H1483.19V1264.5H1543.48V1240.27Z" fill="#C7C7C7"/>
<path d="M1432.34 228.183H1482.59C1371.99 228.183 1282.39 319.178 1282.39 431.416C1282.39 543.655 1371.94 634.75 1482.59 634.75H1432.34C1321.74 634.75 1232.14 543.755 1232.14 431.416C1232.14 319.078 1321.74 228.183 1432.34 228.183Z" fill="#00B894"/>
<g opacity="0.1">
<path d="M1432.34 228.183H1482.59C1371.99 228.183 1282.39 319.178 1282.39 431.416C1282.39 543.655 1371.94 634.75 1482.59 634.75H1432.34C1321.74 634.75 1232.14 543.755 1232.14 431.416C1232.14 319.078 1321.74 228.183 1432.34 228.183Z" fill="black"/>
</g>
<path d="M1482.59 1211.52H1432.34C1635.57 974.75 1825.92 715.198 1797.96 428.63C1779.75 243.008 1653.68 58.1328 1432.34 58.1328H1482.59C1703.98 58.1328 1830 243.008 1848.16 428.63C1876.37 715.198 1686.02 974.75 1482.59 1211.52Z" fill="#00B894"/>
<g opacity="0.1">
<path d="M1482.59 1211.51H1432.34C1635.57 974.749 1825.92 715.197 1797.96 428.629C1779.75 243.007 1653.68 58.1318 1432.34 58.1318H1482.59C1703.98 58.1318 1830 243.007 1848.16 428.629C1876.37 715.197 1686.02 974.749 1482.59 1211.51Z" fill="black"/>
</g>
<path d="M1797.91 428.63C1825.92 715.198 1635.57 974.75 1432.34 1211.57C1229.35 974.75 1039 715.198 1066.97 428.63C1085.17 243.008 1211.24 58.1826 1432.34 58.1826C1653.43 58.1826 1779.75 243.008 1797.91 428.63ZM1432.34 634.75C1543.18 634.75 1632.79 543.755 1632.79 431.416C1632.79 319.078 1543.23 228.183 1432.34 228.183C1321.44 228.183 1232.14 319.178 1232.14 431.416C1232.14 543.655 1321.69 634.75 1432.34 634.75Z" fill="#00B894"/>
<path d="M9.35156 1702.02L257.013 1700.82L504.675 1700.37L999.998 1699.53L1495.32 1700.37L1742.98 1700.82L1990.65 1702.02L1742.98 1703.26L1495.32 1703.71L999.998 1704.5L504.675 1703.71L257.013 1703.26L9.35156 1702.02Z" fill="#263238"/>
<path d="M1991.54 1678.93H8.45703V1702.02H1991.54V1678.93Z" fill="#C7C7C7"/>
<path d="M65.8202 1678.93C67.1465 1686.57 67.1465 1694.38 65.8202 1702.02C64.4271 1694.38 64.4271 1686.56 65.8202 1678.93Z" fill="#263238"/>
<path d="M132.536 1678.93C133.862 1686.57 133.862 1694.38 132.536 1702.02C131.209 1694.38 131.209 1686.57 132.536 1678.93Z" fill="#263238"/>
<path d="M199.253 1678.93C200.579 1686.57 200.579 1694.38 199.253 1702.02C197.926 1694.38 197.926 1686.57 199.253 1678.93Z" fill="#263238"/>
<path d="M265.969 1678.93C267.296 1686.57 267.296 1694.38 265.969 1702.02C264.643 1694.38 264.643 1686.57 265.969 1678.93Z" fill="#263238"/>
<path d="M332.736 1678.93C334.063 1686.57 334.063 1694.38 332.736 1702.02C331.343 1694.38 331.343 1686.56 332.736 1678.93Z" fill="#263238"/>
<path d="M399.452 1678.93C400.778 1686.57 400.778 1694.38 399.452 1702.02C398.125 1694.38 398.125 1686.57 399.452 1678.93Z" fill="#263238"/>
<path d="M466.169 1678.93C467.495 1686.57 467.495 1694.38 466.169 1702.02C464.842 1694.38 464.842 1686.57 466.169 1678.93Z" fill="#263238"/>
<path d="M532.885 1678.93C534.212 1686.57 534.212 1694.38 532.885 1702.02C531.559 1694.38 531.559 1686.57 532.885 1678.93Z" fill="#263238"/>
<path d="M599.65 1678.93C600.977 1686.57 600.977 1694.38 599.65 1702.02C598.257 1694.38 598.257 1686.56 599.65 1678.93Z" fill="#263238"/>
<path d="M666.368 1678.93C667.694 1686.57 667.694 1694.38 666.368 1702.02C665.041 1694.38 665.041 1686.57 666.368 1678.93Z" fill="#263238"/>
<path d="M733.085 1678.93C734.411 1686.57 734.411 1694.38 733.085 1702.02C731.758 1694.38 731.758 1686.57 733.085 1678.93Z" fill="#263238"/>
<path d="M799.799 1678.93C801.126 1686.57 801.126 1694.38 799.799 1702.02C798.473 1694.38 798.473 1686.57 799.799 1678.93Z" fill="#263238"/>
<path d="M866.566 1678.93C867.893 1686.57 867.893 1694.38 866.566 1702.02C865.173 1694.38 865.173 1686.56 866.566 1678.93Z" fill="#263238"/>
<path d="M933.282 1678.93C934.608 1686.57 934.608 1694.38 933.282 1702.02C931.956 1694.38 931.956 1686.57 933.282 1678.93Z" fill="#263238"/>
<path d="M999.999 1678.93C1001.32 1686.57 1001.32 1694.38 999.999 1702.02C998.672 1694.38 998.672 1686.57 999.999 1678.93Z" fill="#263238"/>
<path d="M1066.72 1678.93C1068.04 1686.57 1068.04 1694.38 1066.72 1702.02C1065.39 1694.38 1065.39 1686.57 1066.72 1678.93Z" fill="#263238"/>
<path d="M1133.48 1678.93C1134.81 1686.57 1134.81 1694.38 1133.48 1702.02C1132.09 1694.38 1132.09 1686.56 1133.48 1678.93Z" fill="#263238"/>
<path d="M1200.2 1678.93C1201.52 1686.57 1201.52 1694.38 1200.2 1702.02C1198.87 1694.38 1198.87 1686.57 1200.2 1678.93Z" fill="#263238"/>
<path d="M1266.91 1678.93C1268.24 1686.57 1268.24 1694.38 1266.91 1702.02C1265.59 1694.38 1265.59 1686.57 1266.91 1678.93Z" fill="#263238"/>
<path d="M1333.63 1678.93C1334.96 1686.57 1334.96 1694.38 1333.63 1702.02C1332.31 1694.38 1332.31 1686.57 1333.63 1678.93Z" fill="#263238"/>
<path d="M1400.35 1678.93C1401.74 1686.56 1401.74 1694.38 1400.35 1702.02C1399.02 1694.38 1399.02 1686.57 1400.35 1678.93Z" fill="#263238"/>
<path d="M1467.11 1678.93C1468.44 1686.57 1468.44 1694.38 1467.11 1702.02C1465.79 1694.38 1465.79 1686.57 1467.11 1678.93Z" fill="#263238"/>
<path d="M1533.83 1678.93C1535.16 1686.57 1535.16 1694.38 1533.83 1702.02C1532.5 1694.38 1532.5 1686.57 1533.83 1678.93Z" fill="#263238"/>
<path d="M1600.55 1678.93C1601.87 1686.57 1601.87 1694.38 1600.55 1702.02C1599.22 1694.38 1599.22 1686.57 1600.55 1678.93Z" fill="#263238"/>
<path d="M1667.26 1678.93C1668.66 1686.56 1668.66 1694.38 1667.26 1702.02C1665.94 1694.38 1665.94 1686.57 1667.26 1678.93Z" fill="#263238"/>
<path d="M1734.03 1678.93C1735.36 1686.57 1735.36 1694.38 1734.03 1702.02C1732.7 1694.38 1732.7 1686.57 1734.03 1678.93Z" fill="#263238"/>
<path d="M1800.99 1678.93C1802.32 1686.57 1802.32 1694.38 1800.99 1702.02C1800.27 1698.21 1799.93 1694.35 1800 1690.47C1799.96 1686.6 1800.29 1682.74 1800.99 1678.93Z" fill="#263238"/>
<path d="M1867.46 1678.93C1868.79 1686.57 1868.79 1694.38 1867.46 1702.02C1866.14 1694.38 1866.14 1686.57 1867.46 1678.93Z" fill="#263238"/>
<path d="M1934.18 1678.93C1935.57 1686.56 1935.57 1694.38 1934.18 1702.02C1932.85 1694.38 1932.85 1686.57 1934.18 1678.93Z" fill="#263238"/>
<path d="M216.17 1678.93H106.717C106.717 1678.93 106.717 1662.66 117.712 1658.33C120.64 1657.11 123.883 1656.85 126.97 1657.59C130.057 1658.33 132.826 1660.04 134.876 1662.46C134.876 1662.46 139.254 1632.61 159.304 1632.61C179.354 1632.61 189.055 1658.33 189.055 1658.33C190.755 1655.86 193.139 1653.95 195.915 1652.82C198.69 1651.68 201.736 1651.39 204.677 1651.97C215.722 1653.46 216.17 1678.93 216.17 1678.93Z" fill="#37474F"/>
<path d="M1974.43 1678.93C1974.43 1678.93 1971.09 1663.31 1964.48 1660.87C1962.43 1660.33 1960.26 1660.5 1958.31 1661.33C1956.36 1662.17 1954.75 1663.64 1953.73 1665.5C1953.73 1665.5 1952.14 1650.57 1942.64 1646.09C1933.13 1641.62 1926.02 1650.77 1926.02 1650.77C1926.02 1650.77 1918.76 1631.82 1905.72 1631.82C1892.69 1631.82 1886.12 1659.53 1886.12 1659.53C1886.12 1659.53 1878.46 1651.27 1870.6 1655.95C1862.74 1660.62 1862.74 1678.93 1862.74 1678.93H1974.43Z" fill="#37474F"/>
<path d="M953.185 1678.93C953.185 1678.93 949.851 1663.31 943.234 1660.87C941.177 1660.33 938.997 1660.49 937.041 1661.33C935.085 1662.17 933.465 1663.63 932.438 1665.5C932.438 1665.5 930.896 1650.57 921.394 1646.09C911.891 1641.62 904.777 1650.77 904.777 1650.77C904.777 1650.77 897.463 1631.82 884.478 1631.82C871.493 1631.82 864.876 1659.53 864.876 1659.53C864.876 1659.53 857.214 1651.27 849.354 1655.95C841.493 1660.62 841.443 1678.93 841.443 1678.93H953.185Z" fill="#37474F"/>
<path d="M126.418 1678.93H25.5723C25.5723 1678.93 28.9056 1664.7 35.5225 1663.71C37.5522 1663.5 39.5953 1663.93 41.3751 1664.93C43.1549 1665.92 44.5854 1667.44 45.4728 1669.28C45.4728 1669.28 45.1743 1649.38 57.6618 1646.09C70.1494 1642.81 80.5971 1660.22 80.5971 1660.22C82.8277 1657.43 85.6358 1655.14 88.8298 1653.53C92.0238 1651.91 95.5285 1651.01 99.1046 1650.87C109.801 1651.52 112.488 1668.04 112.488 1668.04C112.488 1668.04 122.139 1662.31 126.418 1678.93Z" fill="#455A64"/>
<path d="M863.084 1678.93H762.238C762.238 1678.93 765.572 1664.7 772.189 1663.71C774.218 1663.5 776.261 1663.93 778.041 1664.93C779.821 1665.92 781.251 1667.44 782.139 1669.28C782.139 1669.28 781.84 1649.38 794.328 1646.09C806.815 1642.81 817.313 1660.22 817.313 1660.22C819.543 1657.43 822.352 1655.14 825.546 1653.53C828.74 1651.91 832.244 1651.01 835.82 1650.87C846.467 1651.52 849.203 1668.04 849.203 1668.04C849.203 1668.04 858.805 1662.31 863.084 1678.93Z" fill="#455A64"/>
<path d="M1869.85 1678.93H1807.86C1807.86 1678.93 1807.86 1669.73 1814.13 1667.29C1815.78 1666.56 1817.61 1666.39 1819.36 1666.8C1821.12 1667.22 1822.68 1668.19 1823.83 1669.58C1823.83 1669.58 1826.32 1652.66 1837.66 1652.66C1849.01 1652.66 1854.43 1667.29 1854.43 1667.29C1855.39 1665.89 1856.74 1664.8 1858.32 1664.16C1859.89 1663.51 1861.61 1663.34 1863.28 1663.66C1869.6 1664.5 1869.85 1678.93 1869.85 1678.93Z" fill="#455A64"/>
<path d="M1111.79 1678.93H1049.75C1049.75 1678.93 1049.75 1669.73 1055.97 1667.29C1057.65 1666.51 1059.54 1666.31 1061.34 1666.72C1063.14 1667.14 1064.75 1668.14 1065.92 1669.58C1065.92 1669.58 1068.41 1652.66 1079.75 1652.66C1091.1 1652.66 1096.52 1667.29 1096.52 1667.29C1097.48 1665.89 1098.83 1664.8 1100.41 1664.16C1101.98 1663.51 1103.7 1663.34 1105.37 1663.66C1111.54 1664.5 1111.79 1678.93 1111.79 1678.93Z" fill="#455A64"/>
<path d="M559.172 1591.42H813.845C813.845 1591.42 785.955 1472.44 686.584 1472.44C587.212 1472.44 563.551 1564.84 559.172 1591.42Z" fill="#2D3436"/>
<path opacity="0.2" d="M559.172 1591.42H813.845C813.845 1591.42 785.955 1472.44 686.584 1472.44C587.212 1472.44 563.551 1564.84 559.172 1591.42Z" fill="#2D3436"/>
<path d="M1298.32 1604.25H1553.02C1553.02 1604.25 1525.1 1485.27 1425.67 1485.27C1326.23 1485.27 1302.7 1577.68 1298.32 1604.25Z" fill="#2D3436"/>
<path opacity="0.2" d="M1298.32 1604.25H1553.02C1553.02 1604.25 1525.1 1485.27 1425.67 1485.27C1326.23 1485.27 1302.7 1577.68 1298.32 1604.25Z" fill="#2D3436"/>
<path d="M500.933 1374.38C495.476 1383.01 485.835 1478.61 485.317 1481.95C484.799 1485.29 476.819 1499.92 476.689 1502.72C476.56 1505.53 474.532 1548.56 475.719 1551.34C478.282 1556.42 481.216 1561.31 484.497 1565.97C485.878 1567.65 521.964 1598.71 526.019 1599.14C530.074 1599.57 567.39 1599.83 568.08 1599.14C568.77 1598.45 573.106 1483.48 686.389 1483.48C799.673 1483.48 798.422 1605.55 800.515 1606.06C802.607 1606.58 1309.56 1618.06 1309.56 1618.06C1309.56 1599.38 1311.03 1488.18 1422.15 1488.18C1494.54 1488.18 1531.12 1547.87 1532.37 1591.85C1532.89 1610.18 1529.83 1630.31 1530.84 1630.31C1534.19 1630.31 1545.62 1631.15 1547.56 1630.31C1549.5 1629.47 1573.21 1613.87 1575.15 1613.31C1577.09 1612.75 1590.76 1612.49 1594.11 1611.65C1597.45 1610.81 1620.85 1590.32 1621.26 1589.5C1621.67 1588.68 1622.38 1580.57 1622.51 1579.88C1622.64 1579.19 1646.35 1550.2 1647.47 1546.98C1648.59 1543.77 1649 1517.3 1649 1514.63C1649 1511.95 1605.86 1442.18 1595.92 1434.65C1585.97 1427.12 1514.38 1402.04 1493.48 1398.28C1472.58 1394.53 1357.59 1377.38 1353.45 1374.45C1349.31 1371.51 1153.09 1258.99 1118.95 1250.72C1091.36 1244.02 772 1253.23 755.283 1254.07C738.567 1254.91 692.386 1263.11 687.921 1263.11C683.456 1263.11 632.185 1262.82 629.122 1264.23C626.059 1265.63 629.122 1277.88 633.026 1280.1C636.93 1282.32 510.403 1359.33 500.933 1374.38Z" fill="#2D3436"/>
<path d="M508.245 1367.14C509.453 1368.24 529.426 1368.73 531.518 1367.91C533.611 1367.09 659.448 1283.4 659.448 1280.96C659.448 1279.74 635.851 1280.06 633.004 1280.19C630.156 1280.32 505.937 1365.04 508.245 1367.14Z" fill="#506561"/>
<path d="M648.34 1365.8C653.775 1381.91 1314.39 1412 1318.01 1404.19C1320.69 1398.43 1261.59 1350.98 1233.89 1335.52C1206.2 1320.05 1127.29 1275.31 1088.4 1270.81C1049.51 1266.3 970.677 1266.62 901.978 1267.87C833.839 1269.12 753.578 1270.81 725.106 1282.97C700.431 1293.48 644.004 1353.01 648.34 1365.8Z" fill="#2D3436"/>
<path d="M666.738 1356.42C668.399 1362.46 814.296 1378.16 985.279 1386.1C1156.26 1394.03 1240.69 1395.29 1242.78 1394.44C1244.87 1393.6 1236.91 1348.05 1234 1344.29C1231.09 1340.54 1108.59 1277.84 1089.35 1276.16C1070.11 1274.47 966.255 1274.28 913.797 1275.12C861.34 1275.96 752.025 1282.22 733.41 1289.74C717.06 1296.37 665.077 1350.36 666.738 1356.42Z" fill="#506561"/>
<g opacity="0.1">
<path d="M893.046 1275.62L795.142 1373.54C777.649 1372.01 761.515 1370.48 746.977 1368.99L837.785 1278.18C857.154 1277.04 876.438 1276.16 893.046 1275.62Z" fill="white"/>
<path d="M1242.43 1384.78L1232.55 1394.68C1222.63 1394.68 1205.38 1394.36 1180.79 1393.71L1231.71 1342.76C1232.49 1343.2 1233.21 1343.72 1233.87 1344.32C1236.07 1346.97 1240.73 1370.96 1242.43 1384.78Z" fill="white"/>
<path d="M966.126 1274.69L861.988 1378.83C853.633 1378.25 845.451 1377.65 837.441 1377.01L939.639 1274.82C948.029 1274.75 956.959 1274.69 966.126 1274.69Z" fill="white"/>
<path d="M1189.65 1320.33L1118.3 1391.64L1093 1390.69L1172.18 1311.55C1178.11 1314.51 1184 1317.46 1189.65 1320.33Z" fill="white"/>
<path d="M820.271 1279.26L732.181 1367.4L725.451 1366.64L812.248 1279.82L820.271 1279.26Z" fill="white"/>
<path d="M1204.84 1328.1L1140.45 1392.52L1133.21 1392.27L1199.9 1325.66L1204.84 1328.1Z" fill="white"/>
<path d="M1112.41 1283.9L1009.14 1387.17L1001.93 1386.87L1107.08 1281.74C1108.77 1282.39 1110.56 1283.12 1112.41 1283.9Z" fill="white"/>
<path d="M750.364 1285.99L676.704 1359.69C674.245 1359.2 672.217 1358.72 670.643 1358.27L741.348 1287.59C743.893 1287.05 746.934 1286.51 750.364 1285.99Z" fill="white"/>
</g>
<path d="M758.259 1284.87C758.949 1284.87 759.251 1285.78 758.669 1287.37C755.239 1296.86 728.471 1350.57 721.806 1363.1C721.399 1363.79 720.852 1364.37 720.202 1364.83C719.551 1365.29 718.812 1365.6 718.031 1365.76L765.139 1370.8C764.31 1370.47 763.625 1369.85 763.204 1369.06C762.782 1368.28 762.65 1367.36 762.831 1366.49C763.284 1363.53 780.777 1300.38 786.278 1284.89C786.888 1283.44 788.008 1282.26 789.427 1281.57C790.354 1281.57 781.381 1281.7 772.883 1282.58C765.377 1283.42 758.259 1284.87 758.259 1284.87Z" fill="#2D3436"/>
<path d="M820.379 1279.26C820.379 1279.26 821.242 1279.74 821.263 1281.42C821.565 1296.28 823.226 1370.65 821.803 1374.75C821.704 1375.15 821.457 1375.5 821.112 1375.72L830.021 1376.43C829.567 1375.8 829.284 1375.05 829.201 1374.28C828.209 1361.7 827.303 1293.54 827.475 1280.92C827.529 1280.13 827.822 1279.38 828.317 1278.77L820.379 1279.26Z" fill="#2D3436"/>
<path d="M966.816 1277.75C967.872 1281.05 969.598 1378.16 969.598 1381.29C969.598 1384.41 966.039 1385.17 966.039 1385.17L1021.24 1387.71C1021.24 1387.71 1017.68 1386.72 1016.92 1385.04C1016.17 1383.36 998.954 1278.66 999.062 1277.3C999.17 1275.94 1001.89 1274.65 1001.89 1274.65H963.58C964.297 1274.92 964.952 1275.34 965.508 1275.88C966.063 1276.41 966.507 1277.05 966.816 1277.75Z" fill="#2D3436"/>
<path d="M510.618 1388.04C503.845 1388.92 488.595 1404.75 487.495 1408.1C486.395 1411.44 482.189 1433.98 484.432 1437.37C486.675 1440.75 494.742 1449.08 501.688 1449.34C508.633 1449.6 542.67 1433.46 545.711 1430.68C548.753 1427.9 550.996 1410.92 547.372 1405.47C543.749 1400.01 519.245 1386.92 510.618 1388.04Z" fill="white"/>
<path d="M545.799 1430.68C542.736 1433.46 508.721 1449.62 501.775 1449.36C496.448 1449.14 490.494 1444.2 486.979 1440.41C490.926 1443.29 495.704 1444.8 500.589 1444.72C504.342 1444.38 536.179 1430.68 540.277 1426.95C544.375 1423.22 544.591 1409.09 543.987 1406.54C543.383 1404 522.892 1390.73 522.892 1390.73C533.051 1394.68 545.13 1401.8 547.46 1405.47C551.084 1410.92 548.862 1427.88 545.799 1430.68Z" fill="#EBEBEB"/>
<path d="M482.576 1514.13C480.7 1516.03 480.074 1530.16 482.015 1531.39C483.957 1532.62 495.389 1532.51 497.632 1531.39C499.875 1530.27 505.569 1519.7 505.16 1516.08C504.75 1512.45 484.733 1511.91 482.576 1514.13Z" fill="white"/>
<path d="M1499.84 1435.84C1505.86 1445.56 1550.02 1462.8 1566.52 1465.52C1576.91 1467.22 1612.91 1469.48 1615 1467.67C1617.1 1465.86 1599.75 1441.79 1590.76 1435.9C1581.77 1430.01 1536.84 1415 1523.25 1415.63C1509.66 1416.25 1493.78 1426 1499.84 1435.84Z" fill="white"/>
<path d="M1614.98 1467.61C1612.83 1469.48 1576.87 1467.22 1566.47 1465.45C1549.97 1462.73 1505.82 1445.5 1499.8 1435.75C1493.78 1426 1509.62 1416.12 1523.21 1415.5C1524.26 1415.43 1525.32 1415.43 1526.38 1415.5C1513.74 1420.15 1511.15 1430.03 1518.85 1435.68C1526.55 1441.34 1551.2 1454.56 1561.13 1457.25C1570.62 1459.93 1606.1 1465.45 1609.16 1463.03C1609.74 1462.33 1610.17 1461.51 1610.4 1460.63C1610.63 1459.74 1610.66 1458.82 1610.5 1457.92C1613.8 1463.01 1615.8 1466.9 1614.98 1467.61Z" fill="#EBEBEB"/>
<g opacity="0.2">
<path d="M559.171 1501.45C557.014 1496.43 554.857 1491.31 552.7 1486.2C550.543 1481.09 548.753 1475.91 546.768 1470.76C544.784 1465.6 543.037 1460.38 541.268 1455.16C539.499 1449.94 537.774 1444.7 536.242 1439.4C538.507 1444.44 540.556 1449.55 542.713 1454.67C544.87 1459.78 546.66 1464.96 548.623 1470.11C550.586 1475.27 552.376 1480.46 554.145 1485.71C555.914 1490.95 557.639 1496.06 559.171 1501.45Z" fill="#2D3436"/>
<path d="M480.785 1501.45C491.764 1501.26 502.722 1501.28 513.7 1501.3L546.594 1501.67L579.51 1502.44C590.467 1502.79 601.424 1503.16 612.382 1503.74C601.424 1503.95 590.445 1503.93 579.466 1503.91L546.573 1503.54L513.679 1502.75C502.7 1502.53 491.743 1502.03 480.785 1501.45Z" fill="#2D3436"/>
<path d="M998.739 1394.68L1002.51 1421.41L1004.13 1434.82C1004.39 1436.98 1004.63 1439.29 1004.8 1441.55C1004.97 1443.82 1004.8 1446.06 1004.8 1448.33L1004.33 1502.25L1003.89 1529.25L1003.66 1542.74L1003.55 1549.49L1003.03 1556.22L1000.87 1583.14L998.588 1610.03L999.947 1583.09L1001.5 1556.15L1001.89 1549.42V1542.69L1002.02 1529.19L1002.3 1502.23L1003.2 1448.3C1003.2 1446.15 1003.4 1443.77 1003.2 1441.57C1003.01 1439.37 1002.88 1437.11 1002.69 1434.87L1001.33 1421.45L998.739 1394.68Z" fill="#2D3436"/>
<path d="M1295.17 1407L1299.7 1433.87L1301.86 1447.31L1302.44 1450.65C1302.67 1451.78 1302.8 1452.92 1302.83 1454.06C1302.83 1456.33 1302.83 1458.61 1302.83 1460.88C1302.68 1479.04 1302.22 1497.22 1301.66 1515.39C1301.51 1519.92 1301.32 1524.47 1301.08 1529C1300.82 1533.57 1299.94 1538.09 1298.47 1542.43C1295.97 1551.19 1293.14 1559.82 1290.02 1568.32C1287 1576.9 1283.4 1585.27 1279.23 1593.36L1277.55 1596.36C1276.97 1597.33 1276.3 1598.28 1275.69 1599.25C1275.04 1600.22 1274.32 1601.14 1273.54 1602.01L1272.44 1603.35C1271.83 1603.71 1271.15 1603.91 1270.45 1603.95C1265.86 1604.43 1261.33 1604.49 1256.78 1604.64C1220.43 1605.4 1184.09 1605.05 1147.74 1604.81C1111.4 1604.58 1075.07 1604.02 1038.75 1603.37C1002.43 1602.72 966.082 1601.69 929.759 1600.35C911.619 1599.62 893.457 1599.01 875.317 1597.37C872.99 1597.2 870.682 1596.84 868.415 1596.29C867.142 1595.8 866.387 1595.21 865.309 1594.72C864.23 1594.22 863.281 1593.75 862.246 1593.27C858.148 1591.42 853.898 1589.78 849.779 1587.73C845.678 1585.75 841.874 1583.21 838.476 1580.18C835.491 1576.69 832.731 1573.02 830.215 1569.18C819.991 1554.08 810.22 1538.83 800.427 1523.52C790.634 1508.2 781.014 1492.8 771.394 1477.38C761.774 1461.96 752.197 1446.45 742.922 1430.88L739.45 1425.01C739.169 1424.53 738.889 1423.97 738.608 1423.48L738.22 1422.7C738.135 1422.42 738.092 1422.13 738.091 1421.84L737.767 1418.45C737.379 1413.92 737.012 1409.39 736.861 1404.84C736.861 1403.72 736.861 1402.68 736.861 1401.43C737.019 1400.3 737.264 1399.18 737.595 1398.09C738.22 1395.93 738.975 1393.78 739.752 1391.62C741.262 1387.3 742.901 1383.1 744.583 1378.87C742.93 1383.1 741.355 1387.36 739.859 1391.66C739.126 1393.82 738.393 1395.98 737.703 1398.13C737.367 1399.22 737.136 1400.33 737.012 1401.45C737.012 1402.58 737.012 1403.72 737.012 1404.84C737.206 1409.37 737.595 1413.9 738.026 1418.43L738.371 1421.82C738.393 1422.09 738.436 1422.37 738.501 1422.64L738.91 1423.35C739.169 1423.84 739.406 1424.32 739.708 1424.81L743.224 1430.64C752.715 1446.13 762.378 1461.5 772.085 1476.86C791.497 1507.6 810.759 1538.4 831.142 1568.45C833.624 1572.2 836.332 1575.81 839.252 1579.23C842.61 1582.21 846.371 1584.69 850.426 1586.61C854.459 1588.61 858.687 1590.25 862.871 1592.11C863.907 1592.58 865.028 1593.06 865.977 1593.58C866.926 1594.09 868.134 1594.78 868.932 1595.06C871.06 1595.57 873.223 1595.9 875.403 1596.06C893.457 1597.63 911.64 1598.21 929.78 1598.86C966.082 1600.11 1002.41 1600.89 1038.75 1601.58C1075.1 1602.27 1111.4 1602.92 1147.72 1603.35C1184.04 1603.78 1220.39 1604.12 1256.71 1603.48C1261.22 1603.35 1265.79 1603.28 1270.26 1602.83L1271.53 1602.61L1272.59 1601.32C1273.32 1600.48 1273.99 1599.59 1274.59 1598.64C1275.2 1597.72 1275.87 1596.79 1276.43 1595.82L1278.11 1592.89C1282.27 1584.85 1285.87 1576.54 1288.89 1568.02C1292.04 1559.52 1294.88 1550.89 1297.41 1542.13C1298.88 1537.87 1299.75 1533.43 1300.02 1528.93L1300.65 1515.32C1301.36 1497.18 1301.97 1479.02 1302.27 1460.86C1302.27 1458.59 1302.27 1456.31 1302.27 1454.04C1302.34 1452.95 1302.33 1451.85 1302.22 1450.76L1301.68 1447.4L1299.53 1433.96L1295.17 1407Z" fill="#2D3436"/>
<path d="M1528.99 1453.2C1524.23 1457.17 1519.18 1460.77 1513.89 1463.99C1508.71 1467.33 1503.4 1470.46 1498.12 1473.71C1492.84 1476.97 1487.46 1479.97 1482.05 1482.94C1476.64 1485.92 1471.27 1488.9 1465.68 1491.57C1470.83 1488.12 1476.08 1484.86 1481.32 1481.61L1497.17 1472.01L1513.13 1462.67L1521.14 1457.99C1523.84 1456.55 1526.46 1454.95 1528.99 1453.2Z" fill="#2D3436"/>
<path d="M764.125 1506.33L834.917 1508.18L905.687 1510.34L1047.23 1514.65L1188.77 1519.61L1259.52 1522.09L1330.26 1524.88L1259.49 1523.02L1188.72 1520.86L1047.16 1516.53L905.644 1511.59L834.873 1509.11L764.125 1506.33Z" fill="#2D3436"/>
<path d="M759.963 1404.91L757.202 1405.03H756.512C756.361 1405.03 756.317 1405.16 756.231 1405.38C756.107 1405.81 756.027 1406.25 755.994 1406.7C755.81 1408.51 755.767 1410.33 755.864 1412.15C755.864 1413.06 755.972 1413.99 756.102 1414.85C756.159 1415.25 756.268 1415.64 756.425 1416.01H756.619H757.159C758.949 1416.16 760.804 1416.21 762.637 1416.27C769.993 1416.51 777.369 1416.75 784.725 1416.88L795.768 1417.2H801.29H803.555C803.684 1417.2 803.771 1417.2 803.663 1417.2C803.79 1416.99 803.884 1416.77 803.943 1416.53C804.063 1416.12 804.149 1415.7 804.202 1415.28C804.451 1413.49 804.537 1411.69 804.461 1409.89C804.43 1408.99 804.344 1408.1 804.202 1407.21C804.149 1406.86 804.055 1406.51 803.922 1406.18C803.596 1406.02 803.246 1405.92 802.886 1405.88C799.306 1405.25 795.596 1405.06 791.929 1404.69C795.634 1404.59 799.342 1404.68 803.037 1404.97C803.59 1404.98 804.129 1405.14 804.59 1405.44C804.934 1405.9 805.157 1406.43 805.237 1407C805.436 1407.92 805.573 1408.86 805.647 1409.8C805.809 1411.68 805.809 1413.57 805.647 1415.45C805.6 1415.95 805.521 1416.44 805.41 1416.92C805.362 1417.25 805.248 1417.57 805.073 1417.86C804.899 1418.15 804.669 1418.4 804.396 1418.6C804.237 1418.71 804.051 1418.78 803.857 1418.8H803.447C803.196 1418.82 802.943 1418.82 802.692 1418.8H795.747L784.682 1418.65C777.305 1418.36 769.928 1418.15 762.551 1417.61C760.696 1417.46 758.884 1417.33 757.008 1417.07C756.72 1417.06 756.437 1417 756.166 1416.9C756.007 1416.87 755.854 1416.81 755.713 1416.73C755.56 1416.6 755.442 1416.44 755.368 1416.25C755.181 1415.77 755.065 1415.26 755.023 1414.74C754.924 1413.8 754.887 1412.86 754.915 1411.92C754.943 1410.05 755.124 1408.19 755.455 1406.35C755.536 1405.88 755.659 1405.42 755.821 1404.97C755.821 1404.86 755.929 1404.75 756.015 1404.63C756.067 1404.56 756.137 1404.5 756.216 1404.47C756.296 1404.43 756.383 1404.42 756.468 1404.43H757.159L759.963 1404.91Z" fill="#2D3436"/>
<path d="M1030.86 1411.59L1028.07 1411.74H1027.38C1027.26 1411.74 1027.21 1411.87 1027.13 1412.09C1027 1412.52 1026.92 1412.96 1026.89 1413.4C1026.69 1415.22 1026.65 1417.06 1026.76 1418.88C1026.76 1419.79 1026.76 1420.69 1027 1421.58C1027.05 1421.98 1027.16 1422.37 1027.32 1422.74H1027.54C1027.67 1422.74 1027.79 1422.74 1028.07 1422.74C1029.84 1422.92 1031.72 1422.96 1033.55 1423.02C1040.91 1423.26 1048.26 1423.5 1055.64 1423.61L1066.68 1423.93H1072.21H1074.47C1074.6 1423.93 1074.67 1423.93 1074.58 1423.93C1074.7 1423.71 1074.79 1423.48 1074.86 1423.24C1074.97 1422.83 1075.06 1422.41 1075.12 1421.99C1075.36 1420.2 1075.44 1418.4 1075.36 1416.6C1075.33 1415.7 1075.25 1414.81 1075.12 1413.92C1075.07 1413.57 1074.97 1413.23 1074.84 1412.91C1074.52 1412.74 1074.16 1412.64 1073.8 1412.61C1070.22 1411.98 1066.49 1411.76 1062.85 1411.4C1066.54 1411.3 1070.24 1411.39 1073.93 1411.68C1074.49 1411.7 1075.04 1411.87 1075.51 1412.17C1075.85 1412.62 1076.07 1413.15 1076.15 1413.71C1076.34 1414.64 1076.48 1415.58 1076.56 1416.53C1076.73 1418.41 1076.73 1420.3 1076.56 1422.18C1076.51 1422.68 1076.44 1423.17 1076.33 1423.65C1076.28 1423.98 1076.16 1424.3 1075.99 1424.59C1075.82 1424.88 1075.59 1425.13 1075.31 1425.33C1075.16 1425.45 1074.97 1425.51 1074.77 1425.5H1074.36H1073.59H1072.18H1066.68L1055.62 1425.35C1048.24 1425.07 1040.87 1424.86 1033.49 1424.32C1031.63 1424.17 1029.8 1424.04 1027.92 1423.78C1027.65 1423.74 1027.37 1423.68 1027.1 1423.61C1026.95 1423.56 1026.8 1423.5 1026.65 1423.43C1026.5 1423.29 1026.37 1423.13 1026.28 1422.94C1026.11 1422.45 1026 1421.94 1025.96 1421.43C1025.86 1420.49 1025.82 1419.55 1025.85 1418.6C1025.88 1416.74 1026.06 1414.87 1026.39 1413.04C1026.47 1412.57 1026.6 1412.12 1026.76 1411.68C1026.8 1411.55 1026.87 1411.44 1026.95 1411.33C1027 1411.26 1027.07 1411.21 1027.14 1411.17C1027.22 1411.13 1027.3 1411.11 1027.38 1411.12H1028.07L1030.86 1411.59Z" fill="#2D3436"/>
</g>
<path d="M758.776 1671.51C799.916 1630.37 799.916 1563.67 758.776 1522.53C717.636 1481.39 650.934 1481.39 609.794 1522.53C568.654 1563.67 568.654 1630.37 609.794 1671.51C650.934 1712.65 717.636 1712.65 758.776 1671.51Z" fill="#2D3436"/>
<path d="M738.674 1651.41C768.712 1621.37 768.712 1572.67 738.674 1542.63C708.636 1512.59 659.935 1512.59 629.897 1542.63C599.859 1572.67 599.858 1621.37 629.897 1651.41C659.935 1681.44 708.636 1681.44 738.674 1651.41Z" fill="#DBDBDB"/>
<path d="M684.296 1667.93C723.465 1667.93 755.217 1636.17 755.217 1597C755.217 1557.84 723.465 1526.08 684.296 1526.08C645.127 1526.08 613.375 1557.84 613.375 1597C613.375 1636.17 645.127 1667.93 684.296 1667.93Z" fill="#A6A6A6"/>
<path d="M695.426 1579.23H673.166C680.672 1568.45 654.486 1530.48 654.486 1530.48L666.199 1526.56C673.985 1539.93 677.889 1543.81 684.296 1543.81C690.702 1543.81 694.606 1539.89 702.414 1526.56L714.105 1530.48C714.105 1530.48 687.919 1568.36 695.426 1579.23Z" fill="#DBDBDB"/>
<path d="M671.29 1580.59L664.409 1601.75C656.407 1591.25 612.275 1604.45 612.275 1604.45V1592.09C627.374 1588.81 632.335 1586.33 634.32 1580.22C636.304 1574.12 633.78 1569.2 623.535 1557.64L630.868 1547.74C630.868 1547.74 658.65 1584.36 671.29 1580.59Z" fill="#DBDBDB"/>
<path d="M665.12 1603.91L683.153 1617C670.685 1621.31 669.607 1667.43 669.607 1667.43L657.808 1663.72C659.383 1648.32 658.52 1642.84 653.343 1639.09C648.167 1635.33 642.688 1636.2 628.517 1642.41L621.355 1632.38C621.355 1632.38 664.818 1617.17 665.12 1603.91Z" fill="#DBDBDB"/>
<path d="M685.439 1617.04L703.472 1603.95C703.774 1617.15 747.237 1632.42 747.237 1632.42L740.054 1642.47C725.883 1636.24 720.425 1635.36 715.249 1639.13C710.072 1642.91 709.209 1648.36 710.741 1663.76L698.985 1667.47C698.985 1667.47 697.907 1621.42 685.439 1617.04Z" fill="#DBDBDB"/>
<path d="M704.183 1601.75L697.303 1580.57C709.943 1584.34 737.875 1547.74 737.875 1547.74L745.231 1557.66C734.92 1569.2 732.397 1574.12 734.446 1580.22C736.495 1586.33 741.348 1588.85 756.49 1592.11V1604.45C756.49 1604.45 712.186 1591.27 704.183 1601.75Z" fill="#DBDBDB"/>
<path d="M684.296 1617.09C695.661 1617.09 704.874 1607.87 704.874 1596.51C704.874 1585.14 695.661 1575.93 684.296 1575.93C672.932 1575.93 663.719 1585.14 663.719 1596.51C663.719 1607.87 672.932 1617.09 684.296 1617.09Z" fill="#DBDBDB"/>
<path d="M1462.85 1693.94C1516.32 1671 1541.07 1609.06 1518.13 1555.6C1495.19 1502.13 1433.25 1477.38 1379.78 1500.32C1326.32 1523.26 1301.57 1585.2 1324.5 1638.66C1347.44 1692.13 1409.38 1716.88 1462.85 1693.94Z" fill="#2D3436"/>
<path d="M1496.28 1614.43C1505.9 1573.06 1480.15 1531.72 1438.77 1522.11C1397.39 1512.49 1356.05 1538.24 1346.44 1579.62C1336.82 1621 1362.57 1662.34 1403.95 1671.95C1445.33 1681.56 1486.67 1655.81 1496.28 1614.43Z" fill="#DBDBDB"/>
<path d="M1421.35 1667.93C1460.52 1667.93 1492.27 1636.17 1492.27 1597C1492.27 1557.84 1460.52 1526.08 1421.35 1526.08C1382.18 1526.08 1350.43 1557.84 1350.43 1597C1350.43 1636.17 1382.18 1667.93 1421.35 1667.93Z" fill="#A6A6A6"/>
<path d="M1432.48 1579.23H1410.2C1417.73 1568.45 1391.52 1530.48 1391.52 1530.48L1403.24 1526.56C1411.04 1539.93 1414.93 1543.81 1421.35 1543.81C1427.78 1543.81 1431.66 1539.89 1439.47 1526.56L1451.16 1530.48C1451.16 1530.48 1424.98 1568.36 1432.48 1579.23Z" fill="#DBDBDB"/>
<path d="M1408.35 1580.59L1401.44 1601.75C1393.44 1591.25 1349.31 1604.45 1349.31 1604.45L1349.2 1592.09C1364.3 1588.81 1369.26 1586.33 1371.25 1580.22C1373.23 1574.12 1370.69 1569.2 1360.46 1557.64L1367.8 1547.74C1367.8 1547.74 1395.69 1584.36 1408.35 1580.59Z" fill="#DBDBDB"/>
<path d="M1402.18 1603.91L1420.19 1617C1407.72 1621.31 1406.67 1667.43 1406.67 1667.43L1394.97 1663.76C1396.53 1648.36 1395.69 1642.88 1390.51 1639.13C1385.33 1635.38 1379.85 1636.24 1365.66 1642.45L1358.52 1632.42C1358.52 1632.42 1401.88 1617.17 1402.18 1603.91Z" fill="#DBDBDB"/>
<path d="M1422.5 1617.04L1440.53 1603.95C1440.83 1617.15 1484.29 1632.42 1484.29 1632.42L1477.11 1642.47C1462.94 1636.24 1457.48 1635.36 1452.31 1639.13C1447.13 1642.91 1446.27 1648.36 1447.8 1663.76L1435.96 1667.47C1435.96 1667.47 1434.96 1621.42 1422.5 1617.04Z" fill="#DBDBDB"/>
<path d="M1441.24 1601.75L1434.34 1580.57C1447 1584.34 1474.93 1547.74 1474.93 1547.74L1482.29 1557.66C1471.98 1569.2 1469.35 1574.12 1471.5 1580.22C1473.66 1586.33 1478.41 1588.85 1493.55 1592.11V1604.45C1493.55 1604.45 1449.24 1591.27 1441.24 1601.75Z" fill="#DBDBDB"/>
<path d="M1421.35 1617.09C1432.72 1617.09 1441.93 1607.87 1441.93 1596.51C1441.93 1585.14 1432.72 1575.93 1421.35 1575.93C1409.99 1575.93 1400.78 1585.14 1400.78 1596.51C1400.78 1607.87 1409.99 1617.09 1421.35 1617.09Z" fill="#DBDBDB"/>
<path d="M1218.58 1355.17C1214.74 1358.98 1215.11 1393.34 1217.89 1396.15C1220.67 1398.95 1258.87 1401.43 1261.91 1380.12C1264.95 1358.81 1224.57 1349.17 1218.58 1355.17Z" fill="#2D3436"/>
<path d="M1357.92 1375.68H1326.86C1246.14 1322.36 1135.1 1269.58 1135.1 1269.58L1153.52 1265.13C1220.67 1297.64 1350.13 1371.99 1353.54 1374.36C1354.94 1374.97 1356.41 1375.41 1357.92 1375.68Z" fill="#506561"/>
<g opacity="0.5">
<path d="M559.172 1528.22C565.7 1517.5 573.685 1507.73 582.899 1499.21C592.045 1490.6 602.242 1483.18 613.247 1477.12C635.437 1465.11 660.341 1459 685.57 1459.39L694.996 1459.82L699.698 1460.06C701.251 1460.23 702.826 1460.49 704.379 1460.68L713.719 1462.02C716.781 1462.67 719.823 1463.49 722.886 1464.18C735.118 1467.21 746.774 1472.22 757.397 1479C767.981 1485.83 777.441 1494.26 785.438 1504C793.184 1513.83 799.804 1524.5 805.174 1535.81C799.423 1524.73 792.51 1514.3 784.553 1504.69C776.516 1495.23 767.056 1487.08 756.513 1480.53C735.418 1467.35 710.354 1462 685.656 1461.76C673.204 1461.6 660.779 1462.97 648.664 1465.86C636.659 1468.7 625.063 1473.05 614.153 1478.8C603.158 1484.6 592.933 1491.75 583.718 1500.09C574.324 1508.34 566.069 1517.79 559.172 1528.22Z" fill="white"/>
<path d="M1297.2 1528.22C1303.73 1517.5 1311.71 1507.73 1320.93 1499.21C1330.07 1490.6 1340.27 1483.18 1351.27 1477.12C1373.46 1465.11 1398.37 1459 1423.6 1459.39L1433.02 1459.82L1437.73 1460.06C1439.3 1460.23 1440.85 1460.49 1442.41 1460.68L1451.75 1462.02C1454.81 1462.67 1457.87 1463.49 1460.91 1464.18C1473.15 1467.21 1484.8 1472.22 1495.42 1479C1506.01 1485.82 1515.47 1494.26 1523.47 1504C1531.21 1513.83 1537.84 1524.51 1543.22 1535.81C1537.1 1525.03 1530.76 1514.11 1522.52 1504.79C1514.48 1495.33 1505.02 1487.18 1494.48 1480.64C1473.38 1467.46 1448.32 1462.11 1423.62 1461.87C1411.21 1461.68 1398.83 1463.02 1386.76 1465.86C1374.69 1468.68 1363.04 1473.03 1352.07 1478.8C1341.08 1484.61 1330.85 1491.76 1321.64 1500.11C1312.29 1508.36 1304.07 1517.81 1297.2 1528.22Z" fill="white"/>
<path d="M574.42 1353.4C590.834 1340.45 607.486 1327.99 624.246 1315.58C641.005 1303.18 657.959 1291.04 675.388 1279.48C677.545 1278.07 679.809 1276.69 682.096 1275.36C683.217 1274.69 684.404 1274.06 685.59 1273.44C686.828 1272.86 688.112 1272.38 689.429 1272.01C694.477 1270.53 699.524 1269.25 704.528 1267.98C714.666 1265.5 724.825 1263.08 735.092 1261.1C745.376 1259.13 755.812 1258.05 766.282 1257.89C776.722 1257.67 787.162 1257.69 797.58 1258.17C787.14 1258.17 776.722 1258.47 766.347 1259.11C755.966 1259.51 745.639 1260.8 735.481 1262.98C725.321 1265.26 715.184 1267.61 705.089 1270.2C700.063 1271.5 695.016 1272.81 689.99 1274.3C688.794 1274.63 687.632 1275.07 686.517 1275.62C685.396 1276.2 684.361 1276.82 683.174 1277.49C681.017 1278.79 678.86 1280.19 676.595 1281.59C659.146 1292.89 642.257 1305.14 625.238 1317.16L574.42 1353.4Z" fill="white"/>
</g>
<path opacity="0.1" d="M1391.54 1491.33C1310.83 1509.8 1309.58 1601.19 1309.58 1617.95C1309.58 1617.95 802.519 1606.39 800.534 1605.96C798.83 1605.61 799.348 1525.59 739.514 1495.09C766.389 1508.4 800.836 1540.58 813.864 1587.58C815.288 1592.58 889.121 1600.52 1015.35 1604.49C1141.57 1608.46 1251.3 1605.96 1272.03 1603.04C1292.75 1600.13 1317.32 1491.01 1391.54 1491.33Z" fill="#2D3436"/>
<path opacity="0.1" d="M1647.55 1546.88C1646.43 1550.09 1622.73 1579.06 1622.6 1579.77C1622.47 1580.48 1621.78 1588.55 1621.35 1589.39C1620.92 1590.23 1597.51 1610.72 1594.17 1611.54C1590.83 1612.36 1577.17 1612.64 1575.25 1613.2C1573.33 1613.76 1549.61 1629.36 1547.64 1630.2C1545.68 1631.04 1534.27 1630.2 1530.93 1630.2C1529.91 1630.2 1533.08 1610.05 1532.46 1591.76C1531.55 1559.82 1512.03 1519.63 1473.72 1499.98C1494.52 1504.43 1529.18 1532.79 1543.18 1562.06C1557.18 1591.33 1553.6 1593.49 1556.88 1597C1560.15 1600.52 1571 1593.42 1576.01 1592.15C1581.01 1590.88 1597.32 1590.49 1603.6 1589.24C1609.87 1587.99 1610.89 1576.71 1615.2 1574.14C1619.51 1571.57 1641.34 1554.3 1647.55 1546.88Z" fill="#2D3436"/>
<path opacity="0.3" d="M652.093 1411.79V1412.26C652.05 1418.12 649.73 1423.74 645.622 1427.92C643.53 1430.08 641.033 1431.8 638.274 1432.99C635.515 1434.18 632.548 1434.82 629.543 1434.87C626.538 1434.91 623.554 1434.36 620.761 1433.25C617.969 1432.14 615.422 1430.49 613.268 1428.39C611.077 1426.27 609.335 1423.72 608.146 1420.9C606.957 1418.09 606.344 1415.07 606.344 1412.01C606.344 1408.96 606.957 1405.93 608.146 1403.12C609.335 1400.31 611.077 1397.76 613.268 1395.63C615.422 1393.53 617.969 1391.88 620.761 1390.77C623.554 1389.66 626.538 1389.12 629.543 1389.16C632.548 1389.2 635.515 1389.84 638.274 1391.03C641.033 1392.22 643.53 1393.95 645.622 1396.1C649.733 1400.29 652.054 1405.92 652.093 1411.79Z" fill="#F9F9F9"/>
<path opacity="0.3" d="M590.749 1433.92C588.55 1433.75 586.423 1433.05 584.547 1431.89C582.671 1430.73 581.1 1429.14 579.964 1427.25C577.137 1422.67 575.639 1417.39 575.639 1412.01C575.639 1406.63 577.137 1401.35 579.964 1396.77C581.08 1394.9 582.63 1393.31 584.484 1392.16C586.338 1391 588.442 1390.31 590.619 1390.13C592.819 1390.17 594.975 1390.76 596.894 1391.83C598.813 1392.91 600.436 1394.44 601.62 1396.3C603.878 1399.59 605.354 1403.35 605.934 1407.3C605.426 1403.3 604.017 1399.48 601.814 1396.1C600.644 1394.14 599.021 1392.49 597.081 1391.29C595.141 1390.08 592.939 1389.36 590.662 1389.18C588.365 1389.23 586.115 1389.85 584.113 1390.98C582.111 1392.11 580.419 1393.71 579.187 1395.65C576.034 1400.53 574.357 1406.22 574.357 1412.03C574.357 1417.85 576.034 1423.53 579.187 1428.42C580.416 1430.35 582.104 1431.96 584.102 1433.09C586.1 1434.22 588.346 1434.83 590.641 1434.89C592.918 1434.71 595.119 1433.99 597.059 1432.78C599 1431.58 600.623 1429.92 601.792 1427.96C604.456 1423.87 605.982 1419.14 606.214 1414.27C605.929 1419.1 604.349 1423.76 601.641 1427.77C600.468 1429.61 598.862 1431.13 596.962 1432.2C595.063 1433.27 592.929 1433.86 590.749 1433.92ZM606.02 1407.3C606.128 1408.14 606.279 1408.98 606.322 1409.82C606.257 1408.98 606.149 1408.14 606.02 1407.3Z" fill="#F9F9F9"/>
<path opacity="0.3" d="M606.409 1411.94C606.409 1412.67 606.409 1413.4 606.409 1414.09C606.124 1418.92 604.545 1423.59 601.837 1427.6C600.659 1429.46 599.037 1431 597.117 1432.08C595.197 1433.16 593.039 1433.75 590.836 1433.79C588.637 1433.62 586.511 1432.92 584.635 1431.76C582.759 1430.6 581.187 1429.01 580.051 1427.12C577.224 1422.54 575.727 1417.27 575.727 1411.88C575.727 1406.5 577.224 1401.22 580.051 1396.64C581.168 1394.77 582.717 1393.18 584.571 1392.03C586.425 1390.87 588.529 1390.18 590.707 1390C592.907 1390.04 595.062 1390.63 596.981 1391.7C598.9 1392.78 600.524 1394.31 601.707 1396.17C604.416 1400.19 605.995 1404.86 606.28 1409.69C606.388 1410.56 606.409 1411.29 606.409 1411.94Z" fill="#F9F9F9"/>
<path d="M643.163 1411.76V1412.07C643.119 1415.77 641.639 1419.3 639.035 1421.93C636.431 1424.56 632.907 1426.07 629.208 1426.15C627.323 1426.19 625.45 1425.85 623.696 1425.16C621.941 1424.48 620.34 1423.45 618.984 1422.14C617.611 1420.81 616.52 1419.23 615.774 1417.47C615.029 1415.71 614.645 1413.82 614.645 1411.92C614.645 1410.01 615.029 1408.12 615.774 1406.36C616.52 1404.61 617.611 1403.02 618.984 1401.69C620.34 1400.38 621.941 1399.35 623.696 1398.67C625.45 1397.98 627.323 1397.64 629.208 1397.68C632.907 1397.76 636.431 1399.27 639.035 1401.9C641.639 1404.53 643.119 1408.06 643.163 1411.76Z" fill="#959595"/>
<path d="M418.175 1687.54V1364.23L362.935 1172H317.035V1687.54H418.175Z" fill="#2D3436"/>
<path opacity="0.1" d="M418.175 1687.54V1364.23L362.935 1172H317.035V1687.54H418.175Z" fill="#00B894"/>
<path d="M276.14 1687.54V1364.23L220.922 1172H175.021V1687.54H276.14Z" fill="#2D3436"/>
<path opacity="0.1" d="M276.14 1687.54V1364.23L220.922 1172H175.021V1687.54H276.14Z" fill="#2D3436"/>
<path opacity="0.1" d="M257.137 1364.23V1687.51H175V1172.02H201.897L257.137 1364.23Z" fill="#959595"/>
<path d="M418.155 1364.23H276.141V1687.51H418.155V1364.23Z" fill="#00B894"/>
<path d="M276.14 1364.23L267.9 1335.54H374.778L418.176 1364.23H276.14Z" fill="#00B894"/>
<path opacity="0.3" d="M276.14 1364.23L267.9 1335.54H374.778L418.176 1364.23H276.14Z" fill="white"/>
<path d="M343.028 1228.66L362.937 1172H220.922L237.207 1228.66H343.028Z" fill="#00B894"/>
<path opacity="0.1" d="M343.028 1228.66L362.937 1172H220.922L237.207 1228.66H343.028Z" fill="white"/>
<path d="M374.778 1335.54L343.028 1228.66H237.207L267.901 1335.54H374.778Z" fill="#00B894"/>
<path opacity="0.2" d="M374.778 1335.54L343.028 1228.66H237.207L267.901 1335.54H374.778Z" fill="#00B894"/>
<path d="M352.561 1304.7L333.493 1240.51H253.189L271.632 1304.7H352.561Z" fill="white"/>
<path d="M300.515 1316.09L299.069 1311.23H273.596L274.998 1316.09H300.515Z" fill="#00B894"/>
<path d="M356.487 1316.09L355.042 1311.23H329.59L330.992 1316.09H356.487Z" fill="#00B894"/>
<path d="M344.495 1245.38L343.05 1240.51H337.27L338.672 1245.38H344.495Z" fill="#00B894"/>
<path d="M347.191 1255L345.746 1250.12H339.965L341.367 1255H347.191Z" fill="#00B894"/>
<path d="M352.562 1274.24L351.117 1269.39H345.336L346.738 1274.24H352.562Z" fill="#00B894"/>
<path d="M363.151 1391.49L335.715 1427.36H352.604L343.07 1458.92L369.428 1419.84H352.561L363.151 1391.49Z" fill="white"/>
<path d="M220.922 1364.23H205.133V1396.19H220.922V1364.23Z" fill="#00B894"/>
<path d="M577.211 1687.71H204.055C193.896 1687.71 184.643 1679.49 184.643 1670.45V1396.39C184.643 1383.9 192.796 1374.82 204.055 1374.82H213.028V1385.61H204.055C198.9 1385.61 195.427 1389.92 195.427 1396.39V1670.48C195.427 1672.74 198.986 1676.95 204.055 1676.95H577.211C579.499 1676.95 581.693 1676.04 583.311 1674.42C584.929 1672.8 585.838 1670.61 585.838 1668.32V1427.08C585.838 1421.94 587.884 1417 591.524 1413.36C595.165 1409.72 600.103 1407.67 605.251 1407.67H628.503V1418.46H605.208C602.92 1418.46 600.725 1419.36 599.107 1420.98C597.489 1422.6 596.58 1424.8 596.58 1427.08V1668.32C596.574 1673.46 594.533 1678.38 590.902 1682.02C587.271 1685.65 582.348 1687.7 577.211 1687.71Z" fill="#2D3436"/>
<path d="M213.718 1373.81H202.609V1386.81H213.718V1373.81Z" fill="white"/>
<path d="M217.687 1371.39H207.549V1389.23H217.687V1371.39Z" fill="white"/>
<path d="M625.548 1406.59H614.439V1419.6H625.548V1406.59Z" fill="white"/>
<path d="M628.481 1424.02C634.52 1424.02 639.417 1419.12 639.417 1413.08C639.417 1407.04 634.52 1402.15 628.481 1402.15C622.441 1402.15 617.545 1407.04 617.545 1413.08C617.545 1419.12 622.441 1424.02 628.481 1424.02Z" fill="white"/>
</svg>
