<svg width="20" height="20" viewBox="0 0 20 20" fill="none" xmlns="http://www.w3.org/2000/svg">
<g clip-path="url(#clip0_1325_17340)">
<path d="M5.83333 0H3.33333C2.44928 0 1.60143 0.35119 0.976311 0.976311C0.35119 1.60143 0 2.44928 0 3.33333L0 5.83333C0 6.71739 0.35119 7.56524 0.976311 8.19036C1.60143 8.81548 2.44928 9.16667 3.33333 9.16667H5.83333C6.71739 9.16667 7.56524 8.81548 8.19036 8.19036C8.81548 7.56524 9.16667 6.71739 9.16667 5.83333V3.33333C9.16667 2.44928 8.81548 1.60143 8.19036 0.976311C7.56524 0.35119 6.71739 0 5.83333 0V0ZM7.5 5.83333C7.5 6.27536 7.32441 6.69928 7.01184 7.01184C6.69928 7.32441 6.27536 7.5 5.83333 7.5H3.33333C2.89131 7.5 2.46738 7.32441 2.15482 7.01184C1.84226 6.69928 1.66667 6.27536 1.66667 5.83333V3.33333C1.66667 2.89131 1.84226 2.46738 2.15482 2.15482C2.46738 1.84226 2.89131 1.66667 3.33333 1.66667H5.83333C6.27536 1.66667 6.69928 1.84226 7.01184 2.15482C7.32441 2.46738 7.5 2.89131 7.5 3.33333V5.83333Z" fill="#F9F9F9"/>
<path d="M16.6665 0H14.1665C13.2825 0 12.4346 0.35119 11.8095 0.976311C11.1844 1.60143 10.8332 2.44928 10.8332 3.33334V5.83334C10.8332 6.71739 11.1844 7.56524 11.8095 8.19036C12.4346 8.81548 13.2825 9.16667 14.1665 9.16667H16.6665C17.5506 9.16667 18.3984 8.81548 19.0236 8.19036C19.6487 7.56524 19.9999 6.71739 19.9999 5.83334V3.33334C19.9999 2.44928 19.6487 1.60143 19.0236 0.976311C18.3984 0.35119 17.5506 0 16.6665 0V0ZM18.3332 5.83334C18.3332 6.27537 18.1576 6.69929 17.845 7.01185C17.5325 7.32441 17.1086 7.50001 16.6665 7.50001H14.1665C13.7245 7.50001 13.3006 7.32441 12.988 7.01185C12.6755 6.69929 12.4999 6.27537 12.4999 5.83334V3.33334C12.4999 2.89131 12.6755 2.46738 12.988 2.15482C13.3006 1.84226 13.7245 1.66667 14.1665 1.66667H16.6665C17.1086 1.66667 17.5325 1.84226 17.845 2.15482C18.1576 2.46738 18.3332 2.89131 18.3332 3.33334V5.83334Z" fill="#F9F9F9"/>
<path d="M5.83333 10.8333H3.33333C2.44927 10.8333 1.60142 11.1845 0.976303 11.8096C0.351182 12.4348 -7.62939e-06 13.2826 -7.62939e-06 14.1667L-7.62939e-06 16.6667C-7.62939e-06 17.5507 0.351182 18.3986 0.976303 19.0237C1.60142 19.6488 2.44927 20 3.33333 20H5.83333C6.71738 20 7.56523 19.6488 8.19035 19.0237C8.81547 18.3986 9.16666 17.5507 9.16666 16.6667V14.1667C9.16666 13.2826 8.81547 12.4348 8.19035 11.8096C7.56523 11.1845 6.71738 10.8333 5.83333 10.8333ZM7.49999 16.6667C7.49999 17.1087 7.3244 17.5326 7.01184 17.8452C6.69928 18.1577 6.27535 18.3333 5.83333 18.3333H3.33333C2.8913 18.3333 2.46738 18.1577 2.15481 17.8452C1.84225 17.5326 1.66666 17.1087 1.66666 16.6667V14.1667C1.66666 13.7246 1.84225 13.3007 2.15481 12.9882C2.46738 12.6756 2.8913 12.5 3.33333 12.5H5.83333C6.27535 12.5 6.69928 12.6756 7.01184 12.9882C7.3244 13.3007 7.49999 13.7246 7.49999 14.1667V16.6667Z" fill="#F9F9F9"/>
<path d="M16.6665 10.8333H14.1665C13.2825 10.8333 12.4346 11.1845 11.8095 11.8096C11.1844 12.4348 10.8332 13.2826 10.8332 14.1667V16.6667C10.8332 17.5507 11.1844 18.3986 11.8095 19.0237C12.4346 19.6488 13.2825 20 14.1665 20H16.6665C17.5506 20 18.3984 19.6488 19.0236 19.0237C19.6487 18.3986 19.9999 17.5507 19.9999 16.6667V14.1667C19.9999 13.2826 19.6487 12.4348 19.0236 11.8096C18.3984 11.1845 17.5506 10.8333 16.6665 10.8333ZM18.3332 16.6667C18.3332 17.1087 18.1576 17.5326 17.845 17.8452C17.5325 18.1577 17.1086 18.3333 16.6665 18.3333H14.1665C13.7245 18.3333 13.3006 18.1577 12.988 17.8452C12.6755 17.5326 12.4999 17.1087 12.4999 16.6667V14.1667C12.4999 13.7246 12.6755 13.3007 12.988 12.9882C13.3006 12.6756 13.7245 12.5 14.1665 12.5H16.6665C17.1086 12.5 17.5325 12.6756 17.845 12.9882C18.1576 13.3007 18.3332 13.7246 18.3332 14.1667V16.6667Z" fill="#F9F9F9"/>
</g>
<defs>
<clipPath id="clip0_1325_17340">
<rect width="20" height="20" fill="white"/>
</clipPath>
</defs>
</svg>
