<svg width="25" height="25" viewBox="0 0 25 25" fill="none" xmlns="http://www.w3.org/2000/svg">
<path d="M18.0428 13.21C17.9499 13.1163 17.8393 13.0419 17.7174 12.9911C17.5955 12.9403 17.4648 12.9142 17.3328 12.9142C17.2008 12.9142 17.0701 12.9403 16.9482 12.9911C16.8264 13.0419 16.7158 13.1163 16.6228 13.21L13.3328 16.5V6.5C13.3328 6.23478 13.2275 5.98043 13.0399 5.79289C12.8524 5.60536 12.598 5.5 12.3328 5.5C12.0676 5.5 11.8133 5.60536 11.6257 5.79289C11.4382 5.98043 11.3328 6.23478 11.3328 6.5V16.5L8.04282 13.21C7.94986 13.1163 7.83926 13.0419 7.7174 12.9911C7.59554 12.9403 7.46484 12.9142 7.33282 12.9142C7.20081 12.9142 7.07011 12.9403 6.94825 12.9911C6.82639 13.0419 6.71579 13.1163 6.62282 13.21C6.43657 13.3974 6.33203 13.6508 6.33203 13.915C6.33203 14.1792 6.43657 14.4326 6.62282 14.62L10.9228 18.91C11.2962 19.2856 11.8032 19.4978 12.3328 19.5C12.8589 19.4951 13.3619 19.2832 13.7328 18.91L18.0328 14.62C18.2204 14.434 18.3268 14.1813 18.3286 13.9171C18.3305 13.6529 18.2278 13.3987 18.0428 13.21Z" fill="#FF5555"/>
</svg>
