<svg width="20" height="20" viewBox="0 0 20 20" fill="none" xmlns="http://www.w3.org/2000/svg">
<g clip-path="url(#clip0_1072_23867)">
<path d="M15.8333 -7.62939e-06H11.6667C11.4456 -7.62939e-06 11.2337 0.0877898 11.0774 0.24407C10.9211 0.40035 10.8333 0.612312 10.8333 0.833326C10.8333 1.05434 10.9211 1.2663 11.0774 1.42258C11.2337 1.57886 11.4456 1.66666 11.6667 1.66666H15.8333C16.2046 1.6681 16.5707 1.75357 16.9042 1.91666L0.244153 18.5775C0.164561 18.6544 0.101076 18.7463 0.0574018 18.848C0.0137276 18.9497 -0.00926093 19.059 -0.0102224 19.1697C-0.011184 19.2803 0.0099008 19.39 0.0518015 19.4925C0.0937023 19.5949 0.15558 19.6879 0.233824 19.7662C0.312068 19.8444 0.405111 19.9063 0.507525 19.9482C0.609938 19.9901 0.719671 20.0112 0.830321 20.0102C0.94097 20.0092 1.05032 19.9863 1.15199 19.9426C1.25366 19.8989 1.34561 19.8354 1.42249 19.7558L18.0833 3.09583C18.2464 3.42932 18.3319 3.79542 18.3333 4.16666V8.33333C18.3333 8.55434 18.4211 8.7663 18.5774 8.92258C18.7337 9.07886 18.9456 9.16666 19.1667 9.16666C19.3877 9.16666 19.5996 9.07886 19.7559 8.92258C19.9122 8.7663 20 8.55434 20 8.33333V4.16666C19.9987 3.062 19.5593 2.00296 18.7781 1.22184C17.997 0.440727 16.938 0.00131559 15.8333 -7.62939e-06V-7.62939e-06Z" fill="#2D3436"/>
<path d="M4.99984 8.33343C5.65911 8.33343 6.30357 8.13794 6.85174 7.77166C7.3999 7.40539 7.82714 6.8848 8.07944 6.27571C8.33173 5.66662 8.39774 4.9964 8.26912 4.3498C8.1405 3.70319 7.82304 3.10925 7.35686 2.64308C6.89069 2.1769 6.29674 1.85943 5.65014 1.73081C5.00354 1.6022 4.33331 1.66821 3.72423 1.9205C3.11514 2.17279 2.59454 2.60003 2.22827 3.1482C1.862 3.69636 1.6665 4.34083 1.6665 5.0001C1.6665 5.88415 2.01769 6.732 2.64281 7.35712C3.26794 7.98224 4.11578 8.33343 4.99984 8.33343ZM4.99984 3.33343C5.32947 3.33343 5.65171 3.43118 5.92579 3.61432C6.19987 3.79745 6.41349 4.05775 6.53964 4.36229C6.66578 4.66684 6.69879 5.00195 6.63448 5.32525C6.57017 5.64855 6.41144 5.94552 6.17835 6.17861C5.94526 6.4117 5.64829 6.57043 5.32499 6.63474C5.00169 6.69905 4.66657 6.66604 4.36203 6.5399C4.05749 6.41375 3.79719 6.20013 3.61405 5.92605C3.43092 5.65197 3.33317 5.32973 3.33317 5.0001C3.33317 4.55807 3.50877 4.13415 3.82133 3.82159C4.13389 3.50903 4.55781 3.33343 4.99984 3.33343Z" fill="#2D3436"/>
<path d="M15.0001 11.6668C14.3408 11.6668 13.6963 11.8623 13.1482 12.2286C12.6 12.5948 12.1728 13.1154 11.9205 13.7245C11.6682 14.3336 11.6022 15.0038 11.7308 15.6504C11.8594 16.297 12.1769 16.891 12.6431 17.3571C13.1092 17.8233 13.7032 18.1408 14.3498 18.2694C14.9964 18.398 15.6666 18.332 16.2757 18.0797C16.8848 17.8274 17.4054 17.4002 17.7716 16.852C18.1379 16.3039 18.3334 15.6594 18.3334 15.0001C18.3334 14.1161 17.9822 13.2682 17.3571 12.6431C16.732 12.018 15.8841 11.6668 15.0001 11.6668ZM15.0001 16.6668C14.6704 16.6668 14.3482 16.569 14.0741 16.3859C13.8001 16.2028 13.5864 15.9425 13.4603 15.6379C13.3341 15.3334 13.3011 14.9983 13.3654 14.675C13.4297 14.3517 13.5885 14.0547 13.8216 13.8216C14.0547 13.5885 14.3516 13.4298 14.6749 13.3655C14.9982 13.3012 15.3333 13.3342 15.6379 13.4603C15.9424 13.5865 16.2027 13.8001 16.3859 14.0742C16.569 14.3483 16.6668 14.6705 16.6668 15.0001C16.6668 15.4421 16.4912 15.8661 16.1786 16.1786C15.866 16.4912 15.4421 16.6668 15.0001 16.6668Z" fill="#2D3436"/>
</g>
<defs>
<clipPath id="clip0_1072_23867">
<rect width="20" height="20" fill="white"/>
</clipPath>
</defs>
</svg>
