<svg width="20" height="20" viewBox="0 0 20 20" fill="none" xmlns="http://www.w3.org/2000/svg">
<g clip-path="url(#clip0_1325_17225)">
<path d="M15.8334 0H11.6667C11.4457 0 11.2337 0.0877974 11.0775 0.244078C10.9212 0.400358 10.8334 0.61232 10.8334 0.833333C10.8334 1.05435 10.9212 1.26631 11.0775 1.42259C11.2337 1.57887 11.4457 1.66667 11.6667 1.66667H15.8334C16.2046 1.6681 16.5707 1.75357 16.9042 1.91667L0.244206 18.5775C0.164615 18.6544 0.101129 18.7463 0.0574552 18.848C0.013781 18.9497 -0.00920752 19.059 -0.010169 19.1697C-0.0111306 19.2803 0.00995421 19.39 0.0518549 19.4925C0.0937557 19.5949 0.155633 19.6879 0.233877 19.7662C0.312121 19.8444 0.405164 19.9063 0.507578 19.9482C0.609992 19.9901 0.719725 20.0112 0.830374 20.0102C0.941023 20.0092 1.05037 19.9863 1.15204 19.9426C1.25371 19.8989 1.34567 19.8354 1.42254 19.7558L18.0834 3.09583C18.2465 3.42933 18.3319 3.79543 18.3334 4.16667V8.33333C18.3334 8.55435 18.4212 8.76631 18.5775 8.92259C18.7337 9.07887 18.9457 9.16667 19.1667 9.16667C19.3877 9.16667 19.5997 9.07887 19.756 8.92259C19.9122 8.76631 20 8.55435 20 8.33333V4.16667C19.9987 3.062 19.5593 2.00296 18.7782 1.22185C17.9971 0.440735 16.938 0.00132321 15.8334 0V0Z" fill="#959595"/>
<path d="M4.99993 8.33342C5.6592 8.33342 6.30367 8.13792 6.85183 7.77165C7.39999 7.40538 7.82724 6.88478 8.07953 6.27569C8.33182 5.66661 8.39783 4.99639 8.26921 4.34978C8.1406 3.70318 7.82313 3.10924 7.35695 2.64306C6.89078 2.17689 6.29683 1.85942 5.65023 1.7308C5.00363 1.60218 4.3334 1.66819 3.72432 1.92048C3.11523 2.17278 2.59463 2.60002 2.22836 3.14818C1.86209 3.69635 1.6666 4.34081 1.6666 5.00008C1.6666 5.88414 2.01779 6.73198 2.64291 7.35711C3.26803 7.98223 4.11587 8.33342 4.99993 8.33342ZM4.99993 3.33342C5.32956 3.33342 5.6518 3.43116 5.92588 3.6143C6.19996 3.79744 6.41358 4.05773 6.53973 4.36228C6.66587 4.66682 6.69888 5.00193 6.63457 5.32523C6.57026 5.64854 6.41153 5.94551 6.17844 6.17859C5.94535 6.41168 5.64838 6.57042 5.32508 6.63473C5.00178 6.69903 4.66667 6.66603 4.36212 6.53988C4.05758 6.41374 3.79728 6.20012 3.61415 5.92603C3.43101 5.65195 3.33326 5.32972 3.33326 5.00008C3.33326 4.55806 3.50886 4.13413 3.82142 3.82157C4.13398 3.50901 4.5579 3.33342 4.99993 3.33342Z" fill="#959595"/>
<path d="M15.0001 11.6668C14.3408 11.6668 13.6964 11.8623 13.1482 12.2285C12.6 12.5948 12.1728 13.1154 11.9205 13.7245C11.6682 14.3336 11.6022 15.0038 11.7308 15.6504C11.8594 16.297 12.1769 16.891 12.6431 17.3571C13.1093 17.8233 13.7032 18.1408 14.3498 18.2694C14.9964 18.398 15.6666 18.332 16.2757 18.0797C16.8848 17.8274 17.4054 17.4002 17.7717 16.852C18.1379 16.3038 18.3334 15.6594 18.3334 15.0001C18.3334 14.1161 17.9822 13.2682 17.3571 12.6431C16.732 12.018 15.8842 11.6668 15.0001 11.6668ZM15.0001 16.6668C14.6705 16.6668 14.3482 16.569 14.0741 16.3859C13.8001 16.2028 13.5864 15.9425 13.4603 15.6379C13.3342 15.3334 13.3011 14.9983 13.3655 14.675C13.4298 14.3517 13.5885 14.0547 13.8216 13.8216C14.0547 13.5885 14.3516 13.4298 14.6749 13.3655C14.9983 13.3012 15.3334 13.3342 15.6379 13.4603C15.9424 13.5865 16.2027 13.8001 16.3859 14.0742C16.569 14.3482 16.6668 14.6705 16.6668 15.0001C16.6668 15.4421 16.4912 15.8661 16.1786 16.1786C15.866 16.4912 15.4421 16.6668 15.0001 16.6668Z" fill="#959595"/>
</g>
<defs>
<clipPath id="clip0_1325_17225">
<rect width="20" height="20" fill="white"/>
</clipPath>
</defs>
</svg>
