<svg width="312" height="202" viewBox="0 0 312 202" fill="none" xmlns="http://www.w3.org/2000/svg">
<path d="M263.55 33.6172C259.964 31.6551 258.339 33.2875 257.037 31.6551C255.734 30.0227 260.615 25.7929 250.837 21.5551C250.837 21.5551 250.186 12.4282 236.821 12.0985C223.456 11.7688 227.042 21.2254 223.456 23.4851C219.87 25.7447 218.889 22.1824 215.302 24.4661C211.716 26.7499 213.348 31.3093 210.413 31.9606C207.478 32.612 203.57 29.0256 199.959 31.3093C196.349 33.593 196.373 35.5471 194.74 35.5471C193.108 35.5471 189.851 34.2444 187.897 35.5471C185.943 36.8498 183.659 38.4822 183.659 38.4822H266.164C266.164 38.4822 267.137 35.5471 263.55 33.6172Z" fill="#DEDEDE"/>
<path opacity="0.5" d="M263.55 33.6172C259.964 31.6551 258.339 33.2875 257.037 31.6551C255.734 30.0227 260.615 25.7929 250.837 21.5551C250.837 21.5551 250.186 12.4282 236.821 12.0985C223.456 11.7688 227.042 21.2254 223.456 23.4851C219.87 25.7447 218.889 22.1824 215.302 24.4661C211.716 26.7499 213.348 31.3093 210.413 31.9606C207.478 32.612 203.57 29.0256 199.959 31.3093C196.349 33.593 196.373 35.5471 194.74 35.5471C193.108 35.5471 189.851 34.2444 187.897 35.5471C185.943 36.8498 183.659 38.4822 183.659 38.4822H266.164C266.164 38.4822 267.137 35.5471 263.55 33.6172Z" fill="#DEDEDE"/>
<path d="M192.449 13.9961C190.326 12.8382 189.361 13.8031 188.589 12.8382C187.817 11.8732 190.712 9.35625 184.914 6.84734C184.914 6.84734 184.528 1.43551 176.607 1.21839C168.686 1.00128 170.809 6.63022 168.686 7.98117C166.563 9.33212 165.985 7.17704 163.862 8.56015C161.739 9.94326 162.704 12.621 160.967 13.007C159.23 13.393 156.946 11.262 154.783 12.621C152.62 13.98 152.66 15.1299 151.687 15.1299C150.714 15.1299 148.792 14.3258 147.666 15.1299C146.541 15.9341 145.157 16.8669 145.157 16.8669H194.041C194.041 16.8669 194.58 15.1541 192.449 13.9961Z" fill="#DEDEDE"/>
<path opacity="0.5" d="M192.449 13.9961C190.326 12.8382 189.361 13.8031 188.589 12.8382C187.817 11.8732 190.712 9.35625 184.914 6.84734C184.914 6.84734 184.528 1.43551 176.607 1.21839C168.686 1.00128 170.809 6.63022 168.686 7.98117C166.563 9.33212 165.985 7.17704 163.862 8.56015C161.739 9.94326 162.704 12.621 160.967 13.007C159.23 13.393 156.946 11.262 154.783 12.621C152.62 13.98 152.66 15.1299 151.687 15.1299C150.714 15.1299 148.792 14.3258 147.666 15.1299C146.541 15.9341 145.157 16.8669 145.157 16.8669H194.041C194.041 16.8669 194.58 15.1541 192.449 13.9961Z" fill="#DEDEDE"/>
<path d="M168.316 67.0612C166.194 65.9032 165.229 66.8682 164.457 65.9032C163.685 64.9383 166.58 62.4213 160.782 59.9124C160.782 59.9124 160.396 54.5006 152.475 54.2835C144.554 54.0663 146.677 59.6953 144.554 61.0462C142.431 62.3972 141.844 60.2421 139.729 61.6252C137.615 63.0083 138.572 65.6459 136.835 66.0721C135.098 66.4983 132.814 64.3351 130.651 65.6861C128.488 67.037 128.52 68.195 127.555 68.195C126.59 68.195 124.66 67.3909 123.534 68.195C122.408 68.9991 121.017 69.94 121.017 69.94H169.901C169.901 69.94 170.439 68.2191 168.316 67.0612Z" fill="#DEDEDE"/>
<path opacity="0.5" d="M168.316 67.0612C166.194 65.9032 165.229 66.8682 164.457 65.9032C163.685 64.9383 166.58 62.4213 160.782 59.9124C160.782 59.9124 160.396 54.5006 152.475 54.2835C144.554 54.0663 146.677 59.6953 144.554 61.0462C142.431 62.3972 141.844 60.2421 139.729 61.6252C137.615 63.0083 138.572 65.6459 136.835 66.0721C135.098 66.4983 132.814 64.3351 130.651 65.6861C128.488 67.037 128.52 68.195 127.555 68.195C126.59 68.195 124.66 67.3909 123.534 68.195C122.408 68.9991 121.017 69.94 121.017 69.94H169.901C169.901 69.94 170.439 68.2191 168.316 67.0612Z" fill="#DEDEDE"/>
<g opacity="0.6">
<path d="M263.55 33.6172C259.964 31.6551 258.339 33.2875 257.037 31.6551C255.734 30.0227 260.615 25.7929 250.837 21.5551C250.837 21.5551 250.185 12.4282 236.821 12.0985C223.456 11.7688 227.042 21.2254 223.456 23.4851C219.87 25.7447 218.888 22.1824 215.302 24.4661C211.716 26.7499 213.348 31.3093 210.413 31.9606C207.478 32.612 203.57 29.0256 199.959 31.3093C196.349 33.593 196.373 35.5471 194.74 35.5471C193.108 35.5471 189.851 34.2444 187.897 35.5471C185.943 36.8498 183.659 38.4822 183.659 38.4822H266.164C266.164 38.4822 267.137 35.5471 263.55 33.6172Z" fill="white"/>
<path opacity="0.5" d="M263.55 33.6172C259.964 31.6551 258.339 33.2875 257.037 31.6551C255.734 30.0227 260.615 25.7929 250.837 21.5551C250.837 21.5551 250.185 12.4282 236.821 12.0985C223.456 11.7688 227.042 21.2254 223.456 23.4851C219.87 25.7447 218.888 22.1824 215.302 24.4661C211.716 26.7499 213.348 31.3093 210.413 31.9606C207.478 32.612 203.57 29.0256 199.959 31.3093C196.349 33.593 196.373 35.5471 194.74 35.5471C193.108 35.5471 189.851 34.2444 187.897 35.5471C185.943 36.8498 183.659 38.4822 183.659 38.4822H266.164C266.164 38.4822 267.137 35.5471 263.55 33.6172Z" fill="white"/>
</g>
<g opacity="0.6">
<path d="M192.449 13.9961C190.326 12.8382 189.361 13.8031 188.589 12.8382C187.817 11.8732 190.712 9.35625 184.914 6.84734C184.914 6.84734 184.528 1.43551 176.607 1.21839C168.686 1.00128 170.809 6.63022 168.686 7.98117C166.564 9.33212 165.985 7.17704 163.862 8.56015C161.739 9.94326 162.704 12.621 160.967 13.007C159.23 13.393 156.946 11.262 154.783 12.621C152.62 13.98 152.66 15.1299 151.687 15.1299C150.714 15.1299 148.792 14.3258 147.666 15.1299C146.541 15.9341 145.157 16.8669 145.157 16.8669H194.041C194.041 16.8669 194.58 15.1541 192.449 13.9961Z" fill="white"/>
<path opacity="0.5" d="M192.449 13.9961C190.326 12.8382 189.361 13.8031 188.589 12.8382C187.817 11.8732 190.712 9.35625 184.914 6.84734C184.914 6.84734 184.528 1.43551 176.607 1.21839C168.686 1.00128 170.809 6.63022 168.686 7.98117C166.564 9.33212 165.985 7.17704 163.862 8.56015C161.739 9.94326 162.704 12.621 160.967 13.007C159.23 13.393 156.946 11.262 154.783 12.621C152.62 13.98 152.66 15.1299 151.687 15.1299C150.714 15.1299 148.792 14.3258 147.666 15.1299C146.541 15.9341 145.157 16.8669 145.157 16.8669H194.041C194.041 16.8669 194.58 15.1541 192.449 13.9961Z" fill="white"/>
</g>
<g opacity="0.6">
<path d="M168.316 67.0611C166.194 65.9031 165.229 66.8681 164.457 65.9031C163.685 64.9381 166.579 62.4212 160.782 59.9123C160.782 59.9123 160.396 54.5005 152.475 54.2833C144.554 54.0662 146.677 59.6952 144.554 61.0461C142.431 62.3971 141.844 60.242 139.729 61.6251C137.615 63.0082 138.571 65.6458 136.835 66.072C135.098 66.4982 132.814 64.335 130.651 65.686C128.488 67.0369 128.52 68.1949 127.555 68.1949C126.59 68.1949 124.66 67.3907 123.534 68.1949C122.408 68.999 121.017 69.9399 121.017 69.9399H169.901C169.901 69.9399 170.439 68.219 168.316 67.0611Z" fill="white"/>
<path opacity="0.5" d="M168.316 67.0611C166.194 65.9031 165.229 66.8681 164.457 65.9031C163.685 64.9381 166.579 62.4212 160.782 59.9123C160.782 59.9123 160.396 54.5005 152.475 54.2833C144.554 54.0662 146.677 59.6952 144.554 61.0461C142.431 62.3971 141.844 60.242 139.729 61.6251C137.615 63.0082 138.571 65.6458 136.835 66.072C135.098 66.4982 132.814 64.335 130.651 65.686C128.488 67.0369 128.52 68.1949 127.555 68.1949C126.59 68.1949 124.66 67.3907 123.534 68.1949C122.408 68.999 121.017 69.9399 121.017 69.9399H169.901C169.901 69.9399 170.439 68.219 168.316 67.0611Z" fill="white"/>
</g>
<path d="M239.41 197.219H280.847C280.043 192.153 276.827 193.045 276.368 185.157C276.151 181.2 279.81 176.311 279.488 171.108C279.231 166.83 275.009 162.44 274.663 157.543C274.374 153.128 277.968 148.223 277.623 143.462C277.293 138.959 273.015 134.617 272.637 129.961C272.259 125.305 275.797 120.44 275.379 115.824C274.961 111.208 270.611 106.979 270.144 102.419C269.67 97.739 273.087 92.7052 272.557 88.2342C272.002 83.4817 267.515 79.3887 266.928 74.9981C266.244 70.125 269.42 64.9142 268.681 60.7086C267.772 55.5541 262.971 51.8229 261.958 48.0193C260.076 40.9349 260.35 34.0997 258.09 33.6575C255.718 33.183 255.179 39.8734 253.386 47.3278C252.477 51.0911 247.757 54.9027 247.017 60.0572C246.39 64.2387 249.711 69.3128 249.164 74.1698C248.682 78.5202 244.339 82.6937 243.881 87.422C243.487 91.8688 247.033 96.766 246.679 101.414C246.342 105.933 242.104 110.259 241.806 114.827C241.509 119.394 245.176 124.219 244.926 128.755C244.677 133.29 240.504 137.777 240.295 142.248C240.069 146.968 243.793 151.737 243.616 156.119C243.415 160.944 239.306 165.431 239.153 169.677C238.968 174.832 242.755 179.584 242.643 183.508C242.385 192.024 238.485 190.263 238.349 197.114L239.41 197.219Z" fill="#DEDEDE"/>
<path d="M257.198 47.3116V195.305" stroke="#2D3436" stroke-miterlimit="10"/>
<path d="M263.671 62.8235L256.924 68.6535L251.4 61.2876" stroke="#2D3436" stroke-miterlimit="10"/>
<path d="M263.671 88.588L256.924 94.41L251.4 87.0521" stroke="#2D3436" stroke-miterlimit="10"/>
<path d="M263.671 112.809L256.924 118.639L251.4 111.281" stroke="#2D3436" stroke-miterlimit="10"/>
<path d="M263.671 141.637L256.924 147.467L251.4 140.109" stroke="#2D3436" stroke-miterlimit="10"/>
<path d="M263.671 170.771L256.924 176.601L251.4 169.243" stroke="#2D3436" stroke-miterlimit="10"/>
<path d="M195.826 197.219H231.763C231.071 192.828 228.249 193.6 227.871 186.765C227.686 183.331 230.862 179.085 230.589 174.582C230.356 170.875 226.697 167.064 226.415 162.818C226.158 158.99 229.286 154.736 228.98 150.603C228.691 146.703 224.96 142.956 224.654 138.903C224.349 134.85 227.396 130.644 227.067 126.64C226.737 122.635 222.925 118.96 222.531 115.02C222.113 110.959 225.072 106.593 224.622 102.717C224.14 98.5914 220.256 95.0371 219.725 91.2416C219.138 87.0118 221.896 82.4926 221.253 78.8499C220.449 74.3789 216.299 71.1382 215.423 67.8413C213.814 61.6977 213.999 55.7792 212.069 55.3932C210.011 54.9751 209.544 60.781 207.984 67.2784C207.18 70.4949 203.16 73.8401 202.468 78.3111C201.921 81.9377 204.8 86.3525 204.326 90.55C203.907 94.3214 200.12 97.9401 199.75 102.041C199.404 105.893 202.476 110.147 202.163 114.176C201.849 118.204 198.198 121.831 197.941 125.803C197.683 129.776 200.86 133.949 200.643 137.865C200.426 141.782 196.807 145.69 196.622 149.566C196.429 153.667 199.662 157.8 199.501 161.628C199.332 165.841 195.77 169.669 195.641 173.384C195.48 177.855 198.761 181.98 198.665 185.382C198.439 192.764 195.062 191.236 194.941 197.178L195.826 197.219Z" fill="#959595"/>
<path d="M211.233 67.2222V195.562" stroke="#2D3436" stroke-miterlimit="10"/>
<path d="M216.846 80.6753L211 85.7334L206.207 79.3485" stroke="#2D3436" stroke-miterlimit="10"/>
<path d="M216.846 103.014L211 108.072L206.207 101.687" stroke="#2D3436" stroke-miterlimit="10"/>
<path d="M216.846 124.026L211 129.076L206.207 122.699" stroke="#2D3436" stroke-miterlimit="10"/>
<path d="M216.846 149.027L211 154.077L206.207 147.692" stroke="#2D3436" stroke-miterlimit="10"/>
<path d="M216.846 174.285L211 179.343L206.207 172.958" stroke="#2D3436" stroke-miterlimit="10"/>
<path d="M69.3193 197.219H119.304C118.348 191.107 114.415 192.185 113.893 182.744C113.635 177.968 118.05 172.065 117.664 165.801C117.35 160.639 112.26 155.347 111.866 149.437C111.512 144.106 115.887 138.179 115.437 132.446C115.034 127.018 109.872 121.807 109.422 116.162C108.971 110.662 113.225 104.687 112.727 99.1141C112.228 93.5415 106.969 88.4352 106.414 82.951C105.843 77.322 109.96 71.2347 109.333 65.831C108.658 60.1055 103.254 55.152 102.522 49.8689C101.718 43.9906 105.538 37.7103 104.637 32.6362C103.543 26.4203 97.7536 21.9171 96.5313 17.3577C94.2636 8.8097 94.5451 0.567309 91.8673 0.0285382C89.0046 -0.542398 88.3532 7.53916 86.1901 16.5616C85.0965 21.0969 79.4354 25.6965 78.5106 31.9125C77.7547 36.9544 81.7272 43.0819 81.0999 48.9361C80.5129 54.179 75.2458 59.221 74.7312 64.9223C74.2487 70.2778 78.5267 76.1802 78.1086 81.8091C77.6984 87.2531 72.5841 92.4479 72.2303 97.9803C71.8765 103.513 76.251 109.319 75.9856 114.779C75.672 120.408 70.6542 125.667 70.3969 131.054C70.1235 136.756 74.6186 142.505 74.4176 147.788C74.1763 153.651 69.2229 159.046 69.0379 164.137C68.8208 170.352 73.3883 176.094 73.2435 180.822C72.938 191.099 68.2338 188.968 68.0649 197.235L69.3193 197.219Z" fill="#E9E9E9"/>
<path d="M90.7737 16.4008V194.911" stroke="#2D3436" stroke-miterlimit="10"/>
<path d="M98.5819 35.121L90.444 42.1491L83.7858 33.2715" stroke="#2D3436" stroke-miterlimit="10"/>
<path d="M98.5819 66.1849L90.444 73.213L83.7858 64.3434" stroke="#2D3436" stroke-miterlimit="10"/>
<path d="M98.5819 95.4071L90.444 102.435L83.7858 93.5576" stroke="#2D3436" stroke-miterlimit="10"/>
<path d="M98.5819 130.178L90.444 137.206L83.7858 128.328" stroke="#2D3436" stroke-miterlimit="10"/>
<path d="M98.5818 165.319L90.444 172.347L83.7857 163.469" stroke="#2D3436" stroke-miterlimit="10"/>
<path d="M58.3188 141.983V185.543C58.3188 187.639 59.1516 189.65 60.634 191.132C62.1165 192.614 64.127 193.447 66.2235 193.447H156.568C158.665 193.447 160.675 192.614 162.158 191.132C163.64 189.65 164.473 187.639 164.473 185.543V180.581" stroke="#2D3436" stroke-width="2" stroke-linecap="round" stroke-linejoin="round"/>
<path d="M61.1735 133.475H54.4429V138.436H61.1735V133.475Z" fill="#2D3436" stroke="#2D3436" stroke-linecap="round" stroke-linejoin="round"/>
<path d="M55.2872 109.688H22.1729V199.623H55.2872V109.688Z" fill="white"/>
<mask id="mask0_1592_27253" style="mask-type:luminance" maskUnits="userSpaceOnUse" x="22" y="109" width="34" height="91">
<path d="M55.2873 109.688H22.173V199.623H55.2873V109.688Z" fill="white"/>
</mask>
<g mask="url(#mask0_1592_27253)">
<path d="M22.173 199.623H36.945V121.59L36.8565 109.688H22.173V199.623Z" fill="#959595"/>
<path opacity="0.5" d="M22.173 199.623H36.945V121.59L36.8565 109.688H22.173V199.623Z" fill="#959595"/>
<path d="M43.394 152.348H41.0701L42.7829 147.692H37.1941L34.7978 154.213H36.4785L33.5594 162.126L43.394 152.348Z" fill="#2D3436"/>
</g>
<path d="M55.2872 109.688H22.1729V199.623H55.2872V109.688Z" stroke="#2D3436" stroke-miterlimit="10"/>
<path d="M38.7301 136.273C47.8743 136.273 55.2872 124.943 55.2872 110.967C55.2872 96.9908 47.8743 85.6609 38.7301 85.6609C29.5858 85.6609 22.1729 96.9908 22.1729 110.967C22.1729 124.943 29.5858 136.273 38.7301 136.273Z" fill="#E9E9E9" stroke="#2D3436" stroke-linecap="round" stroke-linejoin="round"/>
<path d="M42.5979 103.022H34.8541C34.1569 103.022 33.5916 103.587 33.5916 104.285V109.906C33.5916 110.603 34.1569 111.168 34.8541 111.168H42.5979C43.2952 111.168 43.8604 110.603 43.8604 109.906V104.285C43.8604 103.587 43.2952 103.022 42.5979 103.022Z" fill="#00B894" stroke="#2D3436" stroke-linecap="round" stroke-linejoin="round"/>
<path d="M44.3912 126.045C44.3912 124.931 44.0611 123.843 43.4425 122.917C42.824 121.992 41.9449 121.27 40.9163 120.844C39.8878 120.418 38.756 120.307 37.6641 120.524C36.5722 120.741 35.5692 121.277 34.782 122.064C33.9947 122.852 33.4586 123.855 33.2414 124.946C33.0243 126.038 33.1357 127.17 33.5618 128.199C33.9878 129.227 34.7093 130.106 35.635 130.725C36.5606 131.343 37.6489 131.674 38.7622 131.674C39.5014 131.674 40.2334 131.528 40.9163 131.245C41.5993 130.962 42.2198 130.548 42.7425 130.025C43.2652 129.502 43.6798 128.882 43.9627 128.199C44.2456 127.516 44.3912 126.784 44.3912 126.045Z" fill="#2D3436" stroke="#2D3436" stroke-linecap="round" stroke-linejoin="round"/>
<path opacity="0.2" d="M41.5606 126.045C41.5606 125.485 41.3946 124.937 41.0836 124.472C40.7726 124.006 40.3305 123.644 39.8133 123.429C39.2961 123.215 38.7269 123.159 38.1779 123.268C37.6288 123.378 37.1244 123.647 36.7286 124.043C36.3327 124.439 36.0631 124.943 35.9539 125.492C35.8447 126.041 35.9008 126.611 36.115 127.128C36.3292 127.645 36.692 128.087 37.1575 128.398C37.623 128.709 38.1703 128.875 38.7301 128.875C39.4801 128.873 40.1989 128.574 40.7292 128.044C41.2596 127.513 41.5585 126.795 41.5606 126.045Z" fill="white"/>
<path d="M40.4992 93.8149C40.4992 93.465 40.3954 93.1229 40.201 92.832C40.0066 92.5411 39.7303 92.3143 39.4071 92.1804C39.0838 92.0465 38.7281 92.0115 38.3849 92.0798C38.0418 92.148 37.7265 92.3165 37.4791 92.5639C37.2317 92.8113 37.0632 93.1266 36.995 93.4697C36.9267 93.8129 36.9617 94.1686 37.0956 94.4919C37.2295 94.8151 37.4563 95.0914 37.7472 95.2858C38.0381 95.4802 38.3802 95.584 38.7301 95.584C39.1986 95.5819 39.6474 95.3948 39.9787 95.0635C40.31 94.7322 40.497 94.2834 40.4992 93.8149Z" fill="#2D3436" stroke="#2D3436" stroke-linecap="round" stroke-linejoin="round"/>
<path d="M59.8386 137.978H56.9035V142.94H59.8386V137.978Z" fill="#2D3436" stroke="#2D3436" stroke-linecap="round" stroke-linejoin="round"/>
<path d="M55.2872 183.058H22.1729V199.623H55.2872V183.058Z" fill="#00B894" stroke="#2D3436" stroke-linecap="round" stroke-linejoin="round"/>
<path d="M311.179 194.034H1.00005V200.057H311.179V194.034Z" fill="white" stroke="#2D3436" stroke-linecap="round" stroke-linejoin="round"/>
<path d="M311.179 198.634H1.00005V201.464H311.179V198.634Z" fill="#2D3436" stroke="#2D3436" stroke-linecap="round" stroke-linejoin="round"/>
<path d="M115.726 131.183H115.292C114.86 131.183 114.434 131.08 114.049 130.884C113.664 130.688 113.331 130.403 113.078 130.053C112.824 129.703 112.658 129.298 112.591 128.871C112.524 128.444 112.56 128.007 112.694 127.597C113.241 125.908 114.166 124.203 115.726 123.946C118.943 123.407 127.788 126.093 127.788 127.966C127.788 129.84 127.788 130.644 126.711 130.644H120.012L114.648 136.547L114.536 136.45C114.259 136.218 114.036 135.929 113.883 135.602C113.73 135.274 113.651 134.918 113.651 134.556C113.651 134.195 113.73 133.838 113.883 133.511C114.036 133.184 114.259 132.894 114.536 132.663C115.014 132.241 115.417 131.741 115.726 131.183Z" fill="#2D3436" stroke="#2D3436" stroke-linecap="round" stroke-linejoin="round"/>
<path d="M176.302 181.039H265.295C265.295 181.039 278.161 172.459 275.476 149.944C272.79 127.428 258.323 142.441 252.96 157.454H213.292C213.292 157.454 204.712 140.294 190.776 142.441C176.84 144.588 176.302 181.039 176.302 181.039Z" fill="#2D3436" stroke="#2D3436" stroke-linecap="round" stroke-linejoin="round"/>
<path d="M198.166 176.584C198.166 169.966 196.276 164.016 193.245 159.81V153.538H182.518C173.865 153.538 166.861 163.855 166.861 176.584C166.861 189.314 173.865 199.591 182.518 199.591H193.245V193.319C196.276 189.137 198.166 183.194 198.166 176.584Z" fill="#2D3436" stroke="#2D3436" stroke-linecap="round" stroke-linejoin="round"/>
<path d="M193.245 199.623C201.892 199.623 208.901 189.308 208.901 176.585C208.901 163.861 201.892 153.546 193.245 153.546C184.598 153.546 177.588 163.861 177.588 176.585C177.588 189.308 184.598 199.623 193.245 199.623Z" fill="#2D3436"/>
<mask id="mask1_1592_27253" style="mask-type:luminance" maskUnits="userSpaceOnUse" x="177" y="153" width="32" height="47">
<path d="M193.245 199.623C201.892 199.623 208.901 189.308 208.901 176.585C208.901 163.861 201.892 153.546 193.245 153.546C184.598 153.546 177.588 163.861 177.588 176.585C177.588 189.308 184.598 199.623 193.245 199.623Z" fill="white"/>
</mask>
<g mask="url(#mask1_1592_27253)">
<path opacity="0.2" d="M193.245 199.623C201.892 199.623 208.901 189.308 208.901 176.585C208.901 163.861 201.892 153.546 193.245 153.546C184.598 153.546 177.588 163.861 177.588 176.585C177.588 189.308 184.598 199.623 193.245 199.623Z" fill="white"/>
</g>
<path d="M193.245 199.623C201.892 199.623 208.901 189.308 208.901 176.585C208.901 163.861 201.892 153.546 193.245 153.546C184.598 153.546 177.588 163.861 177.588 176.585C177.588 189.308 184.598 199.623 193.245 199.623Z" stroke="#2D3436" stroke-linecap="round" stroke-linejoin="round"/>
<path d="M101.461 153.538H91.2883C83.1183 153.538 76.4922 163.855 76.4922 176.584C76.4922 189.314 83.1505 199.591 91.2883 199.591H101.428C109.599 199.591 116.225 189.274 116.225 176.552C116.225 163.831 109.631 153.538 101.461 153.538Z" fill="#2D3436" stroke="#2D3436" stroke-linecap="round" stroke-linejoin="round"/>
<path d="M193.245 194.967C200.142 194.967 205.733 186.737 205.733 176.584C205.733 166.432 200.142 158.202 193.245 158.202C186.348 158.202 180.756 166.432 180.756 176.584C180.756 186.737 186.348 194.967 193.245 194.967Z" fill="#F9F9F9" stroke="#2D3436" stroke-linecap="round" stroke-linejoin="round"/>
<path d="M193.286 183.533C195.488 183.533 197.273 180.512 197.273 176.786C197.273 173.06 195.488 170.039 193.286 170.039C191.084 170.039 189.299 173.06 189.299 176.786C189.299 180.512 191.084 183.533 193.286 183.533Z" fill="#2D3436" stroke="#2D3436" stroke-linecap="round" stroke-linejoin="round"/>
<path d="M271.479 176.584C271.479 169.966 270.273 164.016 268.343 159.81V153.538H258.87C253.37 153.538 248.907 163.855 248.907 176.584C248.907 189.314 253.37 199.591 258.87 199.591H268.343V193.319C270.273 189.137 271.479 183.194 271.479 176.584Z" fill="#2D3436" stroke="#2D3436" stroke-linecap="round" stroke-linejoin="round"/>
<path d="M268.343 199.623C273.845 199.623 278.306 189.308 278.306 176.585C278.306 163.861 273.845 153.546 268.343 153.546C262.84 153.546 258.38 163.861 258.38 176.585C258.38 189.308 262.84 199.623 268.343 199.623Z" fill="#2D3436"/>
<mask id="mask2_1592_27253" style="mask-type:luminance" maskUnits="userSpaceOnUse" x="258" y="153" width="21" height="47">
<path d="M268.343 199.623C273.845 199.623 278.306 189.308 278.306 176.585C278.306 163.861 273.845 153.546 268.343 153.546C262.84 153.546 258.379 163.861 258.379 176.585C258.379 189.308 262.84 199.623 268.343 199.623Z" fill="white"/>
</mask>
<g mask="url(#mask2_1592_27253)">
<path opacity="0.2" d="M268.343 199.623C273.845 199.623 278.306 189.308 278.306 176.585C278.306 163.861 273.845 153.546 268.343 153.546C262.84 153.546 258.379 163.861 258.379 176.585C258.379 189.308 262.84 199.623 268.343 199.623Z" fill="white"/>
</g>
<path d="M268.343 199.623C273.845 199.623 278.306 189.308 278.306 176.585C278.306 163.861 273.845 153.546 268.343 153.546C262.84 153.546 258.38 163.861 258.38 176.585C258.38 189.308 262.84 199.623 268.343 199.623Z" stroke="#2D3436" stroke-linecap="round" stroke-linejoin="round"/>
<path d="M268.343 194.967C272.731 194.967 276.288 186.737 276.288 176.584C276.288 166.432 272.731 158.202 268.343 158.202C263.955 158.202 260.398 166.432 260.398 176.584C260.398 186.737 263.955 194.967 268.343 194.967Z" fill="#F9F9F9" stroke="#2D3436" stroke-linecap="round" stroke-linejoin="round"/>
<path d="M180.049 182.205C180.049 163.847 186.433 148.962 194.298 148.962C202.162 148.962 208.547 163.847 208.547 182.205C208.547 183.219 208.547 184.216 208.483 185.197H259.248C259.216 184.216 259.2 183.219 259.2 182.205C259.2 163.847 263.848 148.962 269.581 148.962C273.409 148.962 276.754 155.613 278.547 165.503V138.388C278.547 137.152 278.115 135.955 277.324 135.005C276.534 134.054 275.436 133.411 274.221 133.185L273.98 133.137C270.458 132.429 264.129 125.747 254.278 117.304C244.428 108.86 235.63 108.161 235.63 108.161H146.773C145.091 108.167 143.459 108.733 142.134 109.769L111.826 133.161C111.826 133.161 84.7344 138.436 78.7516 144.419C72.7688 150.402 73.4765 185.221 73.4765 185.221H180.113C180.073 184.216 180.049 183.219 180.049 182.205Z" fill="#00B894"/>
<mask id="mask3_1592_27253" style="mask-type:luminance" maskUnits="userSpaceOnUse" x="73" y="108" width="206" height="78">
<path d="M180.049 182.205C180.049 163.847 186.434 148.962 194.298 148.962C202.162 148.962 208.547 163.847 208.547 182.205C208.547 183.219 208.547 184.216 208.483 185.197H259.248C259.216 184.216 259.2 183.219 259.2 182.205C259.2 163.847 263.848 148.962 269.581 148.962C273.409 148.962 276.754 155.613 278.547 165.503V138.388C278.547 137.152 278.115 135.955 277.324 135.005C276.534 134.054 275.436 133.411 274.221 133.185L273.98 133.137C270.458 132.429 264.129 125.747 254.278 117.304C244.428 108.86 235.631 108.161 235.631 108.161H146.774C145.091 108.167 143.459 108.733 142.134 109.769L111.826 133.161C111.826 133.161 84.7345 138.436 78.7517 144.419C72.7689 150.402 73.4766 185.221 73.4766 185.221H180.113C180.073 184.216 180.049 183.219 180.049 182.205Z" fill="white"/>
</mask>
<g mask="url(#mask3_1592_27253)">
<path opacity="0.3" d="M197.643 133.137L202.347 108.161H146.774C145.091 108.167 143.459 108.733 142.134 109.769L111.826 133.161C111.826 133.161 84.7345 138.436 78.7517 144.419C72.7689 150.402 73.4766 185.221 73.4766 185.221H168.622C169.313 166.42 173.624 157.478 173.624 157.478H147.353C167.721 135.469 197.643 133.137 197.643 133.137Z" fill="#2D3436"/>
</g>
<path d="M213.823 108.161H146.774C145.091 108.167 143.459 108.733 142.134 109.769L111.826 133.161H197.643L213.823 108.161Z" fill="#00B894"/>
<path d="M178.698 142.545C173.873 142.61 165.422 142.931 161.763 144.395C158.731 145.585 155.791 146.996 152.965 148.617H170.198L178.698 142.545Z" fill="#F9F9F9"/>
<path d="M171.26 153.892V150.723H152.965L156.279 153.779C156.226 153.811 156.177 153.848 156.134 153.892H171.26Z" fill="#F9F9F9"/>
<path d="M173.013 149.316V153.916C173.725 153.854 174.413 153.629 175.024 153.258C175.635 152.887 176.152 152.38 176.535 151.777C178.296 148.962 182.252 142.545 182.252 142.545L173.013 149.316Z" fill="#F9F9F9"/>
<path d="M80.4405 153.755L83.7536 150.699H75.9454C75.7042 151.688 75.479 152.75 75.286 153.868H80.5853C80.5402 153.826 80.4917 153.789 80.4405 153.755Z" fill="#F9F9F9"/>
<path d="M77.8271 145.609C77.288 146.561 76.8565 147.569 76.5405 148.617H83.7777C81.8505 147.506 79.864 146.502 77.8271 145.609Z" fill="#F9F9F9"/>
<path d="M197.643 133.137H249.703C249.703 133.137 257.093 130.677 254.978 121.525C254.262 118.421 239.499 111.329 237.392 111.329H212.061L197.643 133.137Z" fill="#2D3436"/>
<mask id="mask4_1592_27253" style="mask-type:luminance" maskUnits="userSpaceOnUse" x="197" y="111" width="59" height="23">
<path d="M197.643 133.137H249.703C249.703 133.137 257.093 130.676 254.978 121.525C254.262 118.421 239.498 111.328 237.392 111.328H212.061L197.643 133.137Z" fill="white"/>
</mask>
<g mask="url(#mask4_1592_27253)">
<path opacity="0.2" d="M197.643 133.137H249.703C249.703 133.137 257.093 130.676 254.978 121.525C254.262 118.421 239.498 111.328 237.392 111.328H212.061L197.643 133.137Z" fill="#959595" stroke="#959595" stroke-linecap="round" stroke-linejoin="round"/>
</g>
<path d="M197.643 133.137H249.703C249.703 133.137 257.093 130.677 254.978 121.525C254.262 118.421 239.499 111.329 237.392 111.329H212.061L197.643 133.137Z" stroke="#2D3436" stroke-linecap="round" stroke-linejoin="round"/>
<path d="M85.0724 149.316V156.706L90.3475 160.574H132.91L142.761 156.352V149.316H85.0724Z" fill="#2D3436" stroke="#2D3436" stroke-linecap="round" stroke-linejoin="round"/>
<path d="M163.162 169.717H75.5755L74.4015 160.333C73.8627 165.495 73.5974 170.988 73.5089 175.507L73.8145 176.753L75.5755 173.239H83.0862L78.4222 177.075H148.068L145.584 173.207H163.194L168.123 176.021H171.638V158.113L163.162 169.717Z" fill="#2D3436"/>
<path d="M215.97 131.183H215.535C215.104 131.182 214.679 131.078 214.295 130.881C213.911 130.684 213.58 130.399 213.327 130.049C213.075 129.7 212.908 129.295 212.842 128.869C212.776 128.442 212.812 128.007 212.946 127.597C213.485 125.908 214.418 124.203 215.97 123.946C219.186 123.407 228.032 126.093 228.032 127.966C228.032 129.84 228.032 130.644 226.962 130.644H220.264L214.9 136.547L214.787 136.45C214.51 136.218 214.288 135.929 214.135 135.602C213.982 135.274 213.903 134.918 213.903 134.556C213.903 134.195 213.982 133.838 214.135 133.511C214.288 133.184 214.51 132.894 214.787 132.663C215.263 132.241 215.663 131.74 215.97 131.183Z" fill="#00B894"/>
<path d="M231.956 133.137H234.899C234.585 128.819 233.355 119.314 228.522 111.329H225.579C227.276 115.004 231.296 124.485 231.956 133.137Z" fill="#2D3436" stroke="#2D3436" stroke-linecap="round" stroke-linejoin="round"/>
<path d="M168.526 117.247L169.603 120.19C168.279 121.452 167.507 123.187 167.456 125.015V133.137H160.854L166.387 117.247H168.526ZM137.703 121.268C133.176 124.026 126.341 130.113 123.02 133.137H145.061L156.464 115.639L148.961 116.17C145.002 117.37 141.217 119.084 137.703 121.268ZM183.273 119.121L180.588 118.582H176.84L175.763 119.66C175.763 119.66 178.449 119.925 178.714 121.533C178.896 123.135 178.985 124.746 178.979 126.358H180.861C180.861 126.358 180.861 123.407 182.196 122.072C182.954 121.306 183.759 120.589 184.608 119.925L183.273 119.121Z" fill="white" stroke="#959595" stroke-linecap="round" stroke-linejoin="round"/>
<path d="M214.553 136.56L214.665 136.656L220.029 130.754H226.727C227.612 130.754 227.765 130.199 227.789 128.944H212.607C212.698 129.595 213.02 130.19 213.515 130.621C214.01 131.053 214.644 131.291 215.3 131.292H215.735C215.426 131.85 215.023 132.351 214.545 132.772C214.268 133.004 214.046 133.294 213.894 133.622C213.741 133.95 213.663 134.306 213.664 134.668C213.664 135.029 213.744 135.385 213.898 135.712C214.052 136.039 214.275 136.328 214.553 136.56Z" fill="#2D3436" stroke="#2D3436" stroke-linecap="round" stroke-linejoin="round"/>
<path d="M231.329 139.61H225.298V140.905H231.329V139.61Z" fill="#2D3436"/>
<path d="M258.484 139.61H252.453V140.905H258.484V139.61Z" fill="#2D3436"/>
<path d="M258.91 134.456C258.91 134.456 263.277 137.423 265.81 147.821C265.81 147.821 255.034 149.107 255.034 178.852" stroke="#2D3436" stroke-width="0.2" stroke-linecap="round" stroke-linejoin="round"/>
<path d="M253.724 180.123H208.515C208.515 180.814 208.515 181.506 208.515 182.205C208.515 183.219 208.515 184.216 208.451 185.197H259.216C259.184 184.216 259.168 183.219 259.168 182.205V182.004L253.724 180.123Z" fill="#2D3436" stroke="#2D3436" stroke-linecap="round" stroke-linejoin="round"/>
<path d="M180.049 182.205C180.049 181.506 180.049 180.814 180.049 180.123H73.4446C73.4446 183.219 73.4446 185.197 73.4446 185.197H180.113C180.073 184.216 180.049 183.219 180.049 182.205Z" fill="#2D3436" stroke="#2D3436" stroke-linecap="round" stroke-linejoin="round"/>
<path d="M276.658 137.029C276.122 137.029 275.595 137.169 275.13 137.434C274.664 137.699 274.276 138.081 274.002 138.541C273.729 139.002 273.58 139.526 273.571 140.062C273.561 140.597 273.691 141.126 273.948 141.597L278.547 150.04V138.388C278.541 137.929 278.477 137.472 278.354 137.029H276.658Z" fill="#F9F9F9" stroke="#959595" stroke-linecap="round" stroke-linejoin="round"/>
<path d="M235.269 137.616C235.269 137.616 244.918 151.552 235.269 175.145" stroke="#2D3436" stroke-width="0.2" stroke-linecap="round" stroke-linejoin="round"/>
<path d="M268.728 182.919C270.253 182.919 271.488 180.173 271.488 176.786C271.488 173.398 270.253 170.652 268.728 170.652C267.204 170.652 265.968 173.398 265.968 176.786C265.968 180.173 267.204 182.919 268.728 182.919Z" fill="#2D3436" stroke="#2D3436" stroke-linecap="round" stroke-linejoin="round"/>
<path d="M141.143 111L114 133H196.432L210 111H141.143Z" fill="#747D7F"/>
<path d="M244.322 119.129C244.322 119.129 243.474 120.949 242.376 123.163C241.278 125.377 240.363 127.153 240.34 127.138C240.316 127.122 241.188 125.318 242.289 123.108C243.391 120.898 244.299 119.114 244.322 119.129Z" fill="white"/>
<path d="M245.128 121.536C245.128 121.536 244.703 122.446 244.154 123.553C243.605 124.66 243.148 125.548 243.136 125.541C243.125 125.533 243.56 124.631 244.111 123.526C244.662 122.421 245.116 121.529 245.128 121.536Z" fill="white"/>
</svg>
