<svg width="20" height="20" viewBox="0 0 20 20" fill="none" xmlns="http://www.w3.org/2000/svg">
<path fill-rule="evenodd" clip-rule="evenodd" d="M17.2727 9.5C17.2727 10.5207 17.0717 11.5315 16.6811 12.4745C16.2904 13.4175 15.7179 14.2744 14.9961 14.9961C14.2744 15.7179 13.4175 16.2904 12.4745 16.6811C11.5315 17.0717 10.5207 17.2727 9.5 17.2727C8.47927 17.2727 7.46854 17.0717 6.52551 16.6811C5.58248 16.2904 4.72562 15.7179 4.00385 14.9961C3.28209 14.2744 2.70955 13.4175 2.31894 12.4745C1.92832 11.5315 1.72727 10.5207 1.72727 9.5C1.72727 7.43854 2.54618 5.46152 4.00385 4.00385C5.46152 2.54618 7.43854 1.72727 9.5 1.72727C11.5615 1.72727 13.5385 2.54618 14.9961 4.00385C16.4538 5.46152 17.2727 7.43854 17.2727 9.5ZM9.5 19C14.7466 19 19 14.7466 19 9.5C19 4.25341 14.7466 0 9.5 0C4.25341 0 0 4.25341 0 9.5C0 14.7466 4.25341 19 9.5 19ZM8.80391 11.2273H10.2427V11.001C10.2427 10.7511 10.3133 10.5053 10.4543 10.2635C10.6659 9.90073 10.767 9.79795 10.9682 9.59241C11.1697 9.38686 11.3712 9.17527 11.5727 8.95764C11.7742 8.74 11.9455 8.48206 12.0866 8.18382C12.2277 7.88558 12.2982 7.56718 12.2982 7.22864C12.2982 6.50318 12.0423 5.94498 11.5304 5.55405C11.018 5.16253 10.3832 4.96706 9.62609 4.96764C8.74749 4.96764 8.04621 5.19736 7.52227 5.65682C6.99833 6.11627 6.73636 6.80142 6.73636 7.71227H8.22355C8.22355 7.26894 8.34445 6.92838 8.58627 6.69059C8.82809 6.4528 9.14246 6.33391 9.52936 6.33391C9.88346 6.33391 10.1636 6.42258 10.3697 6.59991C10.5752 6.77724 10.678 7.03921 10.678 7.38582C10.678 7.61152 10.6135 7.83318 10.4845 8.05082C10.2911 8.37727 10.2004 8.46968 10.019 8.65536C9.83768 8.84076 9.6543 9.03421 9.46891 9.23573C9.27514 9.44945 9.11603 9.69219 8.99736 9.95514C8.86782 10.2332 8.80333 10.5295 8.80391 10.8438V11.2273ZM9.5 14.4227C9.77486 14.4227 10.0385 14.3135 10.2328 14.1192C10.4272 13.9248 10.5364 13.6612 10.5364 13.3864C10.5364 13.1115 10.4272 12.8479 10.2328 12.6535C10.0385 12.4592 9.77486 12.35 9.5 12.35C9.22514 12.35 8.96154 12.4592 8.76718 12.6535C8.57282 12.8479 8.46364 13.1115 8.46364 13.3864C8.46364 13.6612 8.57282 13.9248 8.76718 14.1192C8.96154 14.3135 9.22514 14.4227 9.5 14.4227Z" fill="#959595"/>
</svg>
