<svg width="153" height="48" viewBox="0 0 153 48" fill="none" xmlns="http://www.w3.org/2000/svg">
<path d="M139.437 11.7431C143.537 11.7431 146.817 12.9694 149.277 15.4219C151.759 17.8522 153 21.1001 153 25.1655V47.1715H144.125V28.0156C144.125 25.6736 143.426 23.8067 142.03 22.4147C140.656 21.0007 138.817 20.2937 136.512 20.2937C134.097 20.2937 132.135 21.0228 130.628 22.481C129.144 23.9171 128.401 25.8173 128.401 28.1814V47.1715H119.559V12.5717H128.401V16.4161C131.194 13.3008 134.872 11.7431 139.437 11.7431Z" fill="#2C3436"/>
<path d="M107.858 42.7968C104.29 46.2656 99.8578 48 94.5613 48C89.2648 48 84.8215 46.2656 81.2314 42.7968C77.6635 39.328 75.8795 35.0196 75.8795 29.8716C75.8795 24.7236 77.6635 20.4152 81.2314 16.9464C84.8215 13.4776 89.2648 11.7431 94.5613 11.7431C99.8578 11.7431 104.29 13.4776 107.858 16.9464C111.426 20.4152 113.21 24.7236 113.21 29.8716C113.21 35.0196 111.426 39.328 107.858 42.7968ZM94.5613 39.4495C97.3093 39.4495 99.5808 38.5436 101.376 36.7319C103.171 34.898 104.068 32.6113 104.068 29.8716C104.068 27.1319 103.171 24.8562 101.376 23.0444C99.5808 21.2106 97.3093 20.2937 94.5613 20.2937C91.8355 20.2937 89.564 21.2106 87.7468 23.0444C85.9296 24.8782 85.021 27.154 85.021 29.8716C85.021 32.5892 85.9296 34.8649 87.7468 36.6987C89.564 38.5326 91.8355 39.4495 94.5613 39.4495Z" fill="#2C3436"/>
<path d="M31.6123 9.1582H19.4492C13.9033 9.15823 9.40723 13.6542 9.40723 19.2002H37.2305L37.2666 19.251C43.5362 19.4056 49.1336 23.2718 51.4834 29.1133L54.2949 36.1025L59.4062 19.2441H69.2783L58.7158 47.1719H49.5742L40.8643 28.0156H9.40723C9.40723 33.7262 14.0366 38.3552 19.7471 38.3555H31.9453V47.1719H23.4141C10.4828 47.1716 0 36.6882 0 23.7568C6.82268e-05 10.8256 10.4828 0.343009 23.4141 0.342773H31.6123V9.1582ZM64.8525 0C67.4906 0 69.999 1.55879 71.0439 3.99414C72.9739 8.49252 69.0211 11.6103 66.0566 14.3779C65.7338 14.6792 65.3016 14.8477 64.8525 14.8477C64.4036 14.8475 63.9722 14.679 63.6494 14.3779C60.6922 11.6008 56.7297 8.49817 58.6621 3.99414C59.707 1.55893 62.2147 0.000167794 64.8525 0Z" fill="#00B894"/>
</svg>
