<svg width="20" height="20" viewBox="0 0 20 20" fill="none" xmlns="http://www.w3.org/2000/svg">
<g clip-path="url(#clip0_1325_16967)">
<path d="M14.1668 11.6667C14.1668 11.8877 14.079 12.0996 13.9227 12.2559C13.7664 12.4122 13.5545 12.5 13.3335 12.5H6.66679C6.44578 12.5 6.23381 12.4122 6.07753 12.2559C5.92125 12.0996 5.83346 11.8877 5.83346 11.6667C5.83346 11.4456 5.92125 11.2337 6.07753 11.0774C6.23381 10.9211 6.44578 10.8333 6.66679 10.8333H13.3335C13.5545 10.8333 13.7664 10.9211 13.9227 11.0774C14.079 11.2337 14.1668 11.4456 14.1668 11.6667ZM10.8335 14.1667H6.66679C6.44578 14.1667 6.23381 14.2545 6.07753 14.4107C5.92125 14.567 5.83346 14.779 5.83346 15C5.83346 15.221 5.92125 15.433 6.07753 15.5892C6.23381 15.7455 6.44578 15.8333 6.66679 15.8333H10.8335C11.0545 15.8333 11.2664 15.7455 11.4227 15.5892C11.579 15.433 11.6668 15.221 11.6668 15C11.6668 14.779 11.579 14.567 11.4227 14.4107C11.2664 14.2545 11.0545 14.1667 10.8335 14.1667ZM18.3335 8.73749V15.8333C18.3321 16.938 17.8927 17.997 17.1116 18.7781C16.3305 19.5593 15.2715 19.9987 14.1668 20H5.83346C4.72879 19.9987 3.66975 19.5593 2.88864 18.7781C2.10752 17.997 1.66811 16.938 1.66679 15.8333V4.16666C1.66811 3.06199 2.10752 2.00295 2.88864 1.22184C3.66975 0.440724 4.72879 0.0013119 5.83346 -1.13103e-05H9.59596C10.3623 -0.00198375 11.1214 0.147978 11.8295 0.441205C12.5375 0.734431 13.1804 1.1651 13.721 1.70832L16.6243 4.61332C17.1678 5.15352 17.5988 5.7962 17.8921 6.50413C18.1855 7.21206 18.3355 7.97117 18.3335 8.73749ZM12.5426 2.88666C12.2804 2.63262 11.9859 2.41409 11.6668 2.23666V5.83332C11.6668 6.05434 11.7546 6.2663 11.9109 6.42258C12.0671 6.57886 12.2791 6.66666 12.5001 6.66666H16.0968C15.9193 6.34765 15.7004 6.05344 15.446 5.79166L12.5426 2.88666ZM16.6668 8.73749C16.6668 8.59999 16.6401 8.46832 16.6276 8.33332H12.5001C11.8371 8.33332 11.2012 8.06993 10.7324 7.60109C10.2635 7.13225 10.0001 6.49636 10.0001 5.83332V1.70582C9.86512 1.69332 9.73262 1.66666 9.59596 1.66666H5.83346C5.17042 1.66666 4.53453 1.93005 4.06569 2.39889C3.59685 2.86773 3.33346 3.50361 3.33346 4.16666V15.8333C3.33346 16.4964 3.59685 17.1322 4.06569 17.6011C4.53453 18.0699 5.17042 18.3333 5.83346 18.3333H14.1668C14.8298 18.3333 15.4657 18.0699 15.9346 17.6011C16.4034 17.1322 16.6668 16.4964 16.6668 15.8333V8.73749Z" fill="#959595"/>
</g>
<defs>
<clipPath id="clip0_1325_16967">
<rect width="20" height="20" fill="white"/>
</clipPath>
</defs>
</svg>
