<svg width="24" height="24" viewBox="0 0 24 24" fill="none" xmlns="http://www.w3.org/2000/svg">
<g clip-path="url(#clip0_1941_42392)">
<path d="M23.119 0.88238C22.7605 0.519508 22.3144 0.255235 21.8239 0.115097C21.3335 -0.0250423 20.8151 -0.0363107 20.319 0.0823801L4.31901 3.45238C3.39759 3.57875 2.52974 3.95986 1.81321 4.55279C1.09668 5.14573 0.559923 5.92694 0.263385 6.80844C-0.033153 7.68995 -0.0776925 8.63674 0.134782 9.5422C0.347257 10.4476 0.808307 11.2758 1.46601 11.9334L3.18401 13.6504C3.27699 13.7433 3.35073 13.8537 3.40101 13.9752C3.45129 14.0967 3.47711 14.2269 3.47701 14.3584V17.5264C3.47922 17.9718 3.58176 18.411 3.77701 18.8114L3.76901 18.8184L3.79501 18.8444C4.08802 19.4335 4.56659 19.91 5.15701 20.2004L5.18301 20.2264L5.19001 20.2184C5.59037 20.4136 6.02958 20.5162 6.47501 20.5184H9.64301C9.90806 20.5182 10.1624 20.6232 10.35 20.8104L12.067 22.5274C12.5275 22.993 13.0757 23.3629 13.6798 23.6157C14.2839 23.8685 14.9321 23.9992 15.587 24.0004C16.1328 23.9997 16.6748 23.9105 17.192 23.7364C18.0655 23.4496 18.8414 22.9244 19.4322 22.2201C20.0231 21.5158 20.4054 20.6604 20.536 19.7504L23.911 3.71538C24.0359 3.21502 24.0285 2.6908 23.8897 2.19414C23.7508 1.69749 23.4852 1.24545 23.119 0.88238ZM4.60001 12.2384L2.88101 10.5214C2.48073 10.1307 2.20018 9.63403 2.0723 9.08954C1.94441 8.54505 1.97449 7.97537 2.15901 7.44738C2.33791 6.9057 2.66862 6.42681 3.11181 6.06764C3.555 5.70848 4.09202 5.48417 4.65901 5.42138L20.5 2.08638L5.47501 17.1134V14.3584C5.47652 13.9647 5.39997 13.5747 5.24978 13.2108C5.09959 12.8469 4.87874 12.5164 4.60001 12.2384ZM18.571 19.4084C18.4942 19.9607 18.265 20.4807 17.9091 20.91C17.5532 21.3393 17.0847 21.6609 16.5561 21.8387C16.0276 22.0165 15.46 22.0435 14.9169 21.9166C14.3739 21.7897 13.877 21.514 13.482 21.1204L11.762 19.4004C11.4844 19.1212 11.1542 18.8999 10.7904 18.7492C10.4267 18.5985 10.0367 18.5214 9.64301 18.5224H6.88801L21.915 3.50038L18.571 19.4084Z" fill="#00B894"/>
</g>
<defs>
<clipPath id="clip0_1941_42392">
<rect width="24" height="24" fill="white"/>
</clipPath>
</defs>
</svg>
