<svg width="20" height="20" viewBox="0 0 20 20" fill="none" xmlns="http://www.w3.org/2000/svg">
<path d="M11.6899 8.5H15.5029C15.6051 8.49999 15.7049 8.53131 15.7887 8.58974C15.8726 8.64816 15.9366 8.73089 15.972 8.82678C16.0074 8.92266 16.0126 9.02709 15.9868 9.12601C15.961 9.22492 15.9056 9.31357 15.8279 9.38L10.8699 13.621L5.8459 18.364C5.4559 18.732 4.8389 18.311 5.0389 17.814L7.9769 10.5H5.5029C5.42012 10.5001 5.33861 10.4796 5.2657 10.4404C5.19279 10.4012 5.13075 10.3445 5.08515 10.2754C5.03955 10.2063 5.01182 10.127 5.00444 10.0445C4.99707 9.96208 5.01029 9.87909 5.0429 9.803L8.0429 2.803C8.08148 2.713 8.14564 2.63631 8.22742 2.58244C8.30919 2.52858 8.40498 2.49991 8.5029 2.5H13.5029C13.5857 2.49993 13.6672 2.52041 13.7401 2.55961C13.813 2.59881 13.8751 2.6555 13.9207 2.72459C13.9663 2.79368 13.994 2.87301 14.0014 2.95547C14.0087 3.03792 13.9955 3.12091 13.9629 3.197L11.6899 8.5Z" fill="#E0F3EF"/>
<path fill-rule="evenodd" clip-rule="evenodd" d="M14.5029 7H10.6899L12.9629 1.697C12.9955 1.62091 13.0087 1.53792 13.0014 1.45547C12.994 1.37301 12.9663 1.29368 12.9207 1.22459C12.8751 1.1555 12.813 1.09881 12.7401 1.05961C12.6672 1.02041 12.5857 0.999927 12.5029 1H7.5029C7.40498 0.999913 7.30919 1.02858 7.22742 1.08245C7.14564 1.13631 7.08148 1.213 7.0429 1.303L4.0429 8.303C4.01029 8.37909 3.99707 8.46208 4.00444 8.54453C4.01182 8.62699 4.03955 8.70632 4.08515 8.77541C4.13075 8.8445 4.19279 8.90119 4.2657 8.94039C4.33861 8.97959 4.42012 9.00007 4.5029 9H6.9769L4.0389 16.314C3.8389 16.811 4.4559 17.232 4.8459 16.864L9.8699 12.121L14.8279 7.88C14.9056 7.81357 14.961 7.72492 14.9868 7.62601C15.0126 7.52709 15.0074 7.42266 14.972 7.32678C14.9366 7.23089 14.8726 7.14816 14.7887 7.08974C14.7049 7.03131 14.6051 6.99999 14.5029 7ZM9.9319 8H13.1489L9.2009 11.378L5.8159 14.573L8.1809 8.686C8.21131 8.61014 8.22265 8.52798 8.21394 8.44672C8.20523 8.36545 8.17673 8.28757 8.13094 8.21987C8.08516 8.15217 8.02347 8.09673 7.95129 8.0584C7.87911 8.02007 7.79863 8.00002 7.7169 8H5.2609L7.8329 2H11.7449L9.4719 7.303C9.43929 7.37909 9.42607 7.46208 9.43344 7.54453C9.44082 7.62699 9.46855 7.70632 9.51415 7.77541C9.55975 7.8445 9.62179 7.90119 9.6947 7.94039C9.76761 7.97959 9.84912 8.00007 9.9319 8Z" fill="#00B894"/>
</svg>
