<svg width="20" height="20" viewBox="0 0 20 20" fill="none" xmlns="http://www.w3.org/2000/svg">
<path d="M2.15162 11.8419C2.24533 12.7924 3.01181 13.4754 3.9661 13.5276C5.19314 13.595 7.16648 13.6667 10 13.6667C12.8335 13.6667 14.8069 13.595 16.0343 13.5276C16.9882 13.4754 17.7547 12.7924 17.8484 11.8419C17.9291 11.0232 18 9.86743 18 8.33333C18 6.79924 17.9291 5.64343 17.8484 4.82476C17.7547 3.8739 16.9882 3.19124 16.0339 3.13905C14.8069 3.07162 12.8335 3 10 3C7.16648 3 5.19314 3.07162 3.96571 3.13905C3.01181 3.19124 2.24533 3.87429 2.15162 4.82476C2.07086 5.64381 2 6.79924 2 8.33333C2 9.86743 2.07086 11.0232 2.15162 11.8419Z" fill="#E0F3EF"/>
<path d="M14.1905 17.2248C13.9628 17.3278 13.7178 17.3869 13.4682 17.3989C12.6522 17.44 11.5093 17.4762 10 17.4762C8.49067 17.4762 7.34781 17.44 6.53181 17.3989C6.28222 17.3869 6.03715 17.3278 5.80952 17.2248M15.9048 15.1448C15.6133 15.3319 15.2778 15.4394 14.9318 15.4564C13.8697 15.5143 12.2518 15.5714 10 15.5714C7.74819 15.5714 6.13029 15.5143 5.06819 15.4564C4.72221 15.4394 4.38673 15.3319 4.09524 15.1448M2.15162 11.8419C2.24533 12.7924 3.01181 13.4754 3.9661 13.5276C5.19314 13.595 7.16648 13.6667 10 13.6667C12.8335 13.6667 14.8069 13.595 16.0343 13.5276C16.9882 13.4754 17.7547 12.7924 17.8484 11.8419C17.9291 11.0232 18 9.86743 18 8.33333C18 6.79924 17.9291 5.64343 17.8484 4.82476C17.7547 3.8739 16.9882 3.19124 16.0339 3.13905C14.8069 3.07162 12.8335 3 10 3C7.16648 3 5.19314 3.07162 3.96571 3.13905C3.01181 3.19124 2.24533 3.87429 2.15162 4.82476C2.07086 5.64381 2 6.79924 2 8.33333C2 9.86743 2.07086 11.0232 2.15162 11.8419Z" stroke="#00B894" stroke-linecap="round" stroke-linejoin="round"/>
<path d="M11.524 6.62279C11.524 6.62279 10.9145 6.1565 10.0002 6.1565M10.0002 6.1565C9.23833 6.1565 8.47642 6.62317 8.47642 7.24488C8.47642 8.79993 11.524 7.86698 11.524 9.42203C11.524 10.0437 10.7621 10.5104 10.0002 10.5104M10.0002 6.1565V5.28564M10.0002 10.5104C9.08595 10.5104 8.47642 10.0437 8.47642 10.0437M10.0002 10.5104V11.3809M14.9526 8.33326H14.5717M5.4288 8.33326H5.04785" stroke="#00B894" stroke-linecap="round" stroke-linejoin="round"/>
</svg>
