<svg width="20" height="20" viewBox="0 0 20 20" fill="none" xmlns="http://www.w3.org/2000/svg">
<path d="M4.19913 15.1528C6.86307 18.2824 13.1353 18.2824 15.8005 15.1528C18.2556 12.2693 18.0685 6.62702 15.1141 4.15867C12.4682 1.94711 7.53026 1.94711 4.88431 4.15867C1.92997 6.62702 1.74398 12.2705 4.19913 15.1528Z" fill="#E0F3EF"/>
<path d="M14.003 3.34023C14.8716 3.77106 15.6202 4.41001 16.1821 5.20019M17.3581 11.8001C17.4517 11.2377 17.4989 10.6377 17.4997 10.0001C17.4997 9.04371 17.4517 8.76172 17.3581 8.20013M16.4665 14.3608C15.2677 16.3996 13.0598 17.4999 9.99985 17.4999C5.19995 17.4999 2.5 14.8 2.5 10.0001C2.5 5.20019 5.19995 2.50024 9.99985 2.50024C10.3874 2.50384 11.2874 2.53864 11.7902 2.65024" stroke="#00B894" stroke-linecap="round" stroke-linejoin="round"/>
<path d="M10 7.30005V10.3L12.4744 13.1835" stroke="#00B894" stroke-linecap="round" stroke-linejoin="round"/>
</svg>
