<svg width="20" height="20" viewBox="0 0 20 20" fill="none" xmlns="http://www.w3.org/2000/svg">
<path d="M10.0001 6.66718C9.34081 6.66718 8.69635 6.86267 8.14818 7.22894C7.60002 7.59521 7.17278 8.11581 6.92048 8.7249C6.66819 9.33398 6.60218 10.0042 6.7308 10.6508C6.85942 11.2974 7.17689 11.8914 7.64306 12.3575C8.10924 12.8237 8.70318 13.1412 9.34978 13.2698C9.99639 13.3984 10.6666 13.3324 11.2757 13.0801C11.8848 12.8278 12.4054 12.4006 12.7716 11.8524C13.1379 11.3042 13.3334 10.6598 13.3334 10.0005C13.3334 9.11645 12.9822 8.26861 12.3571 7.64349C11.732 7.01836 10.8841 6.66718 10.0001 6.66718ZM10.0001 11.6672C9.67045 11.6672 9.34822 11.5694 9.07413 11.3863C8.80005 11.2032 8.58643 10.9429 8.46028 10.6383C8.33414 10.3338 8.30113 9.99866 8.36544 9.67536C8.42975 9.35206 8.58848 9.05509 8.82157 8.822C9.05466 8.58891 9.35163 8.43017 9.67493 8.36587C9.99823 8.30156 10.3333 8.33456 10.6379 8.46071C10.9424 8.58686 11.2027 8.80048 11.3859 9.07456C11.569 9.34864 11.6668 9.67087 11.6668 10.0005C11.6668 10.4425 11.4912 10.8665 11.1786 11.179C10.866 11.4916 10.4421 11.6672 10.0001 11.6672Z" fill="#959595"/>
<path d="M17.745 11.5833L17.375 11.37C17.5416 10.4637 17.5416 9.53463 17.375 8.62833L17.745 8.415C18.0296 8.25085 18.279 8.03226 18.479 7.77172C18.6791 7.51118 18.8259 7.21378 18.911 6.89651C18.9961 6.57925 19.0179 6.24832 18.9751 5.92263C18.9324 5.59694 18.8259 5.28286 18.6617 4.99833C18.4976 4.7138 18.279 4.46439 18.0184 4.26434C17.7579 4.06428 17.4605 3.91751 17.1432 3.83239C16.826 3.74726 16.495 3.72547 16.1693 3.76824C15.8437 3.81101 15.5296 3.91751 15.245 4.08167L14.8742 4.29583C14.1738 3.69743 13.3689 3.23354 12.5 2.9275V2.5C12.5 1.83696 12.2367 1.20107 11.7678 0.732233C11.299 0.263392 10.6631 0 10 0C9.337 0 8.70112 0.263392 8.23228 0.732233C7.76344 1.20107 7.50004 1.83696 7.50004 2.5V2.9275C6.6312 3.23464 5.82658 3.69967 5.12671 4.29917L4.75421 4.08333C4.17957 3.75181 3.49678 3.66214 2.85603 3.83405C2.21528 4.00596 1.66906 4.42536 1.33754 5C1.00602 5.57464 0.916354 6.25743 1.08826 6.89818C1.26017 7.53893 1.67957 8.08515 2.25421 8.41667L2.62421 8.63C2.45763 9.5363 2.45763 10.4654 2.62421 11.3717L2.25421 11.585C1.67957 11.9165 1.26017 12.4627 1.08826 13.1035C0.916354 13.7442 1.00602 14.427 1.33754 15.0017C1.66906 15.5763 2.21528 15.9957 2.85603 16.1676C3.49678 16.3395 4.17957 16.2499 4.75421 15.9183L5.12504 15.7042C5.82568 16.3027 6.63086 16.7666 7.50004 17.0725V17.5C7.50004 18.163 7.76344 18.7989 8.23228 19.2678C8.70112 19.7366 9.337 20 10 20C10.6631 20 11.299 19.7366 11.7678 19.2678C12.2367 18.7989 12.5 18.163 12.5 17.5V17.0725C13.3689 16.7654 14.1735 16.3003 14.8734 15.7008L15.2459 15.9158C15.8205 16.2474 16.5033 16.337 17.1441 16.1651C17.7848 15.9932 18.331 15.5738 18.6625 14.9992C18.9941 14.4245 19.0837 13.7417 18.9118 13.101C18.7399 12.4602 18.3205 11.914 17.7459 11.5825L17.745 11.5833ZM15.6217 8.43667C15.9039 9.45922 15.9039 10.5391 15.6217 11.5617C15.5724 11.7396 15.5837 11.9289 15.6537 12.0998C15.7236 12.2707 15.8484 12.4135 16.0084 12.5058L16.9117 13.0275C17.1032 13.138 17.243 13.3201 17.3003 13.5336C17.3575 13.7472 17.3276 13.9747 17.2171 14.1663C17.1066 14.3578 16.9246 14.4975 16.711 14.5548C16.4974 14.6121 16.2699 14.5822 16.0784 14.4717L15.1734 13.9483C15.0133 13.8556 14.8269 13.8188 14.6436 13.8437C14.4603 13.8686 14.2904 13.9538 14.1609 14.0858C13.4191 14.843 12.4847 15.3833 11.4584 15.6483C11.2792 15.6944 11.1205 15.7987 11.0072 15.9449C10.8939 16.0911 10.8325 16.2709 10.8325 16.4558V17.5C10.8325 17.721 10.7447 17.933 10.5885 18.0893C10.4322 18.2455 10.2202 18.3333 9.99921 18.3333C9.7782 18.3333 9.56623 18.2455 9.40996 18.0893C9.25367 17.933 9.16588 17.721 9.16588 17.5V16.4567C9.16597 16.2717 9.10452 16.092 8.99121 15.9458C8.87791 15.7996 8.71918 15.6952 8.54004 15.6492C7.51367 15.3831 6.57948 14.8416 5.83838 14.0833C5.70881 13.9513 5.53899 13.8661 5.35567 13.8412C5.17236 13.8163 4.98597 13.8531 4.82588 13.9458L3.92254 14.4683C3.82773 14.5239 3.72287 14.5602 3.61398 14.5751C3.50509 14.59 3.39434 14.5832 3.28809 14.5551C3.18184 14.527 3.0822 14.4782 2.99489 14.4114C2.90759 14.3446 2.83436 14.2613 2.77941 14.1661C2.72446 14.0709 2.68887 13.9658 2.67471 13.8568C2.66054 13.7479 2.66807 13.6372 2.69687 13.5311C2.72566 13.425 2.77515 13.3257 2.84249 13.2389C2.90982 13.152 2.99367 13.0793 3.08921 13.025L3.99254 12.5033C4.1525 12.411 4.27727 12.2682 4.34726 12.0973C4.41725 11.9264 4.42849 11.7371 4.37921 11.5592C4.09701 10.5366 4.09701 9.45672 4.37921 8.43417C4.4276 8.25657 4.41582 8.06795 4.34572 7.89774C4.27562 7.72754 4.15114 7.58534 3.99171 7.49333L3.08838 6.97167C2.89687 6.86116 2.7571 6.6791 2.69983 6.46555C2.64255 6.25199 2.67245 6.02442 2.78296 5.83292C2.89347 5.64141 3.07552 5.50164 3.28908 5.44437C3.50264 5.38709 3.7302 5.41699 3.92171 5.5275L4.82671 6.05083C4.98636 6.14376 5.17236 6.18101 5.35548 6.15672C5.53861 6.13244 5.70847 6.048 5.83838 5.91667C6.58012 5.15945 7.51456 4.61918 8.54088 4.35417C8.72057 4.30797 8.87971 4.20313 8.99307 4.05625C9.10644 3.90938 9.16754 3.72887 9.16671 3.54333V2.5C9.16671 2.27899 9.25451 2.06702 9.41079 1.91074C9.56707 1.75446 9.77903 1.66667 10 1.66667C10.2211 1.66667 10.433 1.75446 10.5893 1.91074C10.7456 2.06702 10.8334 2.27899 10.8334 2.5V3.54333C10.8333 3.7283 10.8947 3.90804 11.008 4.05423C11.1213 4.20043 11.2801 4.30478 11.4592 4.35083C12.4859 4.61679 13.4204 5.15824 14.1617 5.91667C14.2913 6.04872 14.4611 6.13391 14.6444 6.15881C14.8277 6.1837 15.0141 6.14689 15.1742 6.05417L16.0775 5.53167C16.1724 5.47609 16.2772 5.43981 16.3861 5.42492C16.495 5.41003 16.6058 5.41683 16.712 5.44492C16.8182 5.47301 16.9179 5.52184 17.0052 5.58859C17.0925 5.65535 17.1657 5.73872 17.2207 5.83389C17.2756 5.92907 17.3112 6.03417 17.3254 6.14316C17.3395 6.25214 17.332 6.36285 17.3032 6.46891C17.2744 6.57497 17.2249 6.67429 17.1576 6.76114C17.0903 6.848 17.0064 6.92068 16.9109 6.975L16.0075 7.49667C15.8484 7.58892 15.7243 7.73123 15.6545 7.90141C15.5847 8.07159 15.5732 8.26008 15.6217 8.4375V8.43667Z" fill="#959595"/>
</svg>
