<svg width="20" height="20" viewBox="0 0 20 20" fill="none" xmlns="http://www.w3.org/2000/svg">
<g clip-path="url(#clip0_1325_17055)">
<path d="M9.37062 9.57906C9.43949 9.68054 9.48243 9.79736 9.49567 9.91929C9.50891 10.0412 9.49205 10.1645 9.44655 10.2784L7.94656 14.0284C7.87234 14.2132 7.72777 14.3609 7.54466 14.439C7.36155 14.5172 7.15489 14.5194 6.97015 14.4452C6.78541 14.3709 6.63772 14.2264 6.55957 14.0433C6.48142 13.8601 6.47921 13.6535 6.55343 13.4688L7.64187 10.75H5.75C5.62707 10.7502 5.50599 10.7202 5.39738 10.6626C5.28878 10.6051 5.196 10.5217 5.1272 10.4198C5.05839 10.3179 5.01568 10.2007 5.00282 10.0785C4.98996 9.95623 5.00734 9.8327 5.05343 9.71875L6.55343 5.96875C6.62802 5.78401 6.77295 5.63647 6.95632 5.55858C7.1397 5.4807 7.3465 5.47885 7.53124 5.55344C7.71598 5.62803 7.86353 5.77295 7.94141 5.95633C8.0193 6.13971 8.02115 6.34651 7.94656 6.53125L6.85812 9.25H8.74999C8.87244 9.25002 8.99303 9.28002 9.10121 9.33738C9.2094 9.39474 9.30189 9.47772 9.37062 9.57906ZM20 6.12156V13.75C20 14.3467 19.7629 14.919 19.341 15.341C18.919 15.7629 18.3467 16 17.75 16C17.1532 16 16.581 15.7629 16.159 15.341C15.737 14.919 15.5 14.3467 15.5 13.75V10C15.5 9.80109 15.421 9.61032 15.2803 9.46967C15.1397 9.32902 14.9489 9.25 14.75 9.25H13.25V17.5H14.75C14.9489 17.5 15.1397 17.579 15.2803 17.7197C15.421 17.8603 15.5 18.0511 15.5 18.25C15.5 18.4489 15.421 18.6397 15.2803 18.7803C15.1397 18.921 14.9489 19 14.75 19H-0.250001C-0.448913 19 -0.639678 18.921 -0.78033 18.7803C-0.920982 18.6397 -1 18.4489 -1 18.25C-1 18.0511 -0.920982 17.8603 -0.78033 17.7197C-0.639678 17.579 -0.448913 17.5 -0.250001 17.5H1.25V3.25C1.25 2.65326 1.48705 2.08097 1.90901 1.65901C2.33096 1.23705 2.90326 1 3.5 1H11C11.5967 1 12.169 1.23705 12.591 1.65901C13.0129 2.08097 13.25 2.65326 13.25 3.25V7.75H14.75C15.3467 7.75 15.919 7.98705 16.341 8.40901C16.7629 8.83097 17 9.40326 17 10V13.75C17 13.9489 17.079 14.1397 17.2197 14.2803C17.3603 14.421 17.5511 14.5 17.75 14.5C17.9489 14.5 18.1397 14.421 18.2803 14.2803C18.421 14.1397 18.5 13.9489 18.5 13.75V6.12156C18.4994 5.92356 18.4205 5.73383 18.2806 5.59375L16.4694 3.78062C16.3286 3.63989 16.2496 3.44902 16.2496 3.25C16.2496 3.05098 16.3286 2.86011 16.4694 2.71938C16.6101 2.57864 16.801 2.49958 17 2.49958C17.199 2.49958 17.3899 2.57864 17.5306 2.71938L19.3437 4.53063C19.5528 4.73931 19.7184 4.98736 19.8311 5.26043C19.9437 5.5335 20.0011 5.82618 20 6.12156ZM11.75 17.5V3.25C11.75 3.05109 11.671 2.86032 11.5303 2.71967C11.3897 2.57902 11.1989 2.5 11 2.5H3.5C3.30108 2.5 3.11032 2.57902 2.96967 2.71967C2.82902 2.86032 2.75 3.05109 2.75 3.25V17.5H11.75Z" fill="#959595"/>
</g>
<defs>
<clipPath id="clip0_1325_17055">
<rect width="20" height="20" fill="white"/>
</clipPath>
</defs>
</svg>
