<svg width="24" height="24" viewBox="0 0 24 24" fill="none" xmlns="http://www.w3.org/2000/svg">
<g clip-path="url(#clip0_1037_23452)">
<path d="M11.8491 12.0089C11.9294 12.1273 11.9795 12.2636 11.995 12.4058C12.0104 12.5481 11.9907 12.692 11.9377 12.8248L10.1877 17.1998C10.1011 17.4154 9.93241 17.5877 9.71878 17.6789C9.50515 17.77 9.26405 17.7726 9.04852 17.686C8.83299 17.5994 8.66068 17.4308 8.56951 17.2171C8.47833 17.0035 8.47575 16.7624 8.56234 16.5469L9.83219 13.375H7.625C7.48159 13.3752 7.34032 13.3402 7.21362 13.2731C7.08692 13.2059 6.97867 13.1086 6.8984 12.9898C6.81813 12.8709 6.7683 12.7342 6.75329 12.5916C6.73829 12.4489 6.75857 12.3048 6.81234 12.1719L8.56234 7.79688C8.64937 7.58135 8.81845 7.40921 9.03238 7.31835C9.24632 7.22748 9.4876 7.22532 9.70312 7.31234C9.91865 7.39937 10.0908 7.56845 10.1817 7.78238C10.2725 7.99632 10.2747 8.2376 10.1877 8.45312L8.91781 11.625H11.125C11.2679 11.625 11.4085 11.66 11.5348 11.7269C11.661 11.7939 11.7689 11.8907 11.8491 12.0089ZM24.25 7.97516V16.875C24.25 17.5712 23.9734 18.2389 23.4812 18.7312C22.9889 19.2234 22.3212 19.5 21.625 19.5C20.9288 19.5 20.2611 19.2234 19.7688 18.7312C19.2766 18.2389 19 17.5712 19 16.875V12.5C19 12.2679 18.9078 12.0454 18.7437 11.8813C18.5796 11.7172 18.3571 11.625 18.125 11.625H16.375V21.25H18.125C18.3571 21.25 18.5796 21.3422 18.7437 21.5063C18.9078 21.6704 19 21.8929 19 22.125C19 22.3571 18.9078 22.5796 18.7437 22.7437C18.5796 22.9078 18.3571 23 18.125 23H0.625C0.392936 23 0.170376 22.9078 0.00628152 22.7437C-0.157813 22.5796 -0.25 22.3571 -0.25 22.125C-0.25 21.8929 -0.157813 21.6704 0.00628152 21.5063C0.170376 21.3422 0.392936 21.25 0.625 21.25H2.375V4.625C2.375 3.92881 2.65156 3.26113 3.14384 2.76884C3.63613 2.27656 4.30381 2 5 2H13.75C14.4462 2 15.1139 2.27656 15.6062 2.76884C16.0984 3.26113 16.375 3.92881 16.375 4.625V9.875H18.125C18.8212 9.875 19.4889 10.1516 19.9812 10.6438C20.4734 11.1361 20.75 11.8038 20.75 12.5V16.875C20.75 17.1071 20.8422 17.3296 21.0063 17.4937C21.1704 17.6578 21.3929 17.75 21.625 17.75C21.8571 17.75 22.0796 17.6578 22.2437 17.4937C22.4078 17.3296 22.5 17.1071 22.5 16.875V7.97516C22.4993 7.74416 22.4073 7.52281 22.2441 7.35938L20.1309 5.24406C19.9668 5.07988 19.8745 4.85719 19.8745 4.625C19.8745 4.39281 19.9668 4.17012 20.1309 4.00594C20.2951 3.84175 20.5178 3.74951 20.75 3.74951C20.9822 3.74951 21.2049 3.84175 21.3691 4.00594L23.4844 6.11906C23.7283 6.36253 23.9215 6.65192 24.0529 6.9705C24.1843 7.28908 24.2513 7.63054 24.25 7.97516ZM14.625 21.25V4.625C14.625 4.39294 14.5328 4.17038 14.3687 4.00628C14.2046 3.84219 13.9821 3.75 13.75 3.75H5C4.76794 3.75 4.54538 3.84219 4.38128 4.00628C4.21719 4.17038 4.125 4.39294 4.125 4.625V21.25H14.625Z" fill="#2D3436"/>
</g>
<defs>
<clipPath id="clip0_1037_23452">
<rect width="24" height="24" fill="white"/>
</clipPath>
</defs>
</svg>
