<svg width="25" height="25" viewBox="0 0 25 25" fill="none" xmlns="http://www.w3.org/2000/svg">
<path d="M18.3768 10.3799L14.0768 6.08989C13.7021 5.71738 13.1952 5.5083 12.6668 5.5083C12.1384 5.5083 11.6315 5.71738 11.2568 6.08989L6.95681 10.3799C6.77056 10.5672 6.66602 10.8207 6.66602 11.0849C6.66602 11.3491 6.77056 11.6025 6.95681 11.7899C7.04977 11.8836 7.16037 11.958 7.28223 12.0088C7.40409 12.0595 7.5348 12.0857 7.66681 12.0857C7.79882 12.0857 7.92953 12.0595 8.05138 12.0088C8.17324 11.958 8.28385 11.8836 8.37681 11.7899L11.6668 8.49989V19.4999C11.6668 19.7651 11.7722 20.0195 11.9597 20.207C12.1472 20.3945 12.4016 20.4999 12.6668 20.4999C12.932 20.4999 13.1864 20.3945 13.3739 20.207C13.5615 20.0195 13.6668 19.7651 13.6668 19.4999V8.49989L16.9568 11.7899C17.1438 11.9782 17.3979 12.0845 17.6633 12.0854C17.9286 12.0864 18.1835 11.9819 18.3718 11.7949C18.5601 11.6079 18.6664 11.3538 18.6674 11.0884C18.6683 10.8231 18.5638 10.5682 18.3768 10.3799Z" fill="#00B894"/>
</svg>
